<?xml version="1.0" encoding="UTF-8" standalone="no"?>
<!-- Uploaded to: SVG Repo, www.svgrepo.com, Generator: SVG Repo Mixer Tools -->

<svg
   fill="#000000"
   width="800px"
   height="800px"
   viewBox="0 0 24 24"
   version="1.1"
   id="svg1043"
   sodipodi:docname="bar-chart-alt-2.svg"
   inkscape:version="1.2.2 (732a01da63, 2022-12-09)"
   xmlns:inkscape="http://www.inkscape.org/namespaces/inkscape"
   xmlns:sodipodi="http://sodipodi.sourceforge.net/DTD/sodipodi-0.dtd"
   xmlns="http://www.w3.org/2000/svg"
   xmlns:svg="http://www.w3.org/2000/svg">
  <defs
     id="defs1047" />
  <sodipodi:namedview
     id="namedview1045"
     pagecolor="#ffffff"
     bordercolor="#000000"
     borderopacity="0.25"
     inkscape:showpageshadow="2"
     inkscape:pageopacity="0.0"
     inkscape:pagecheckerboard="0"
     inkscape:deskcolor="#d1d1d1"
     showgrid="false"
     inkscape:zoom="0.65625"
     inkscape:cx="302.47619"
     inkscape:cy="400.7619"
     inkscape:window-width="1366"
     inkscape:window-height="705"
     inkscape:window-x="-8"
     inkscape:window-y="-8"
     inkscape:window-maximized="1"
     inkscape:current-layer="svg1043" />
  <path
     d="M6 21H3a1 1 0 0 1-1-1v-8a1 1 0 0 1 1-1h3a1 1 0 0 1 1 1v8a1 1 0 0 1-1 1zm7 0h-3a1 1 0 0 1-1-1V3a1 1 0 0 1 1-1h3a1 1 0 0 1 1 1v17a1 1 0 0 1-1 1zm7 0h-3a1 1 0 0 1-1-1V9a1 1 0 0 1 1-1h3a1 1 0 0 1 1 1v11a1 1 0 0 1-1 1z"
     id="path1041"
     style="fill:#3e7fa2;fill-opacity:1" />
</svg>
