<?xml version="1.0" encoding="UTF-8" standalone="no"?>
<svg
   enable-background="new 0 0 144 144"
   id="Layer_1"
   version="1.1"
   viewBox="0 0 144 144"
   xml:space="preserve"
   sodipodi:docname="design_web.svg"
   inkscape:version="1.2.2 (732a01da63, 2022-12-09)"
   xmlns:inkscape="http://www.inkscape.org/namespaces/inkscape"
   xmlns:sodipodi="http://sodipodi.sourceforge.net/DTD/sodipodi-0.dtd"
   xmlns="http://www.w3.org/2000/svg"
   xmlns:svg="http://www.w3.org/2000/svg"><defs
     id="defs621" /><sodipodi:namedview
     id="namedview619"
     pagecolor="#ffffff"
     bordercolor="#000000"
     borderopacity="0.25"
     inkscape:showpageshadow="2"
     inkscape:pageopacity="0.0"
     inkscape:pagecheckerboard="0"
     inkscape:deskcolor="#d1d1d1"
     showgrid="false"
     inkscape:zoom="3.6458333"
     inkscape:cx="68.982857"
     inkscape:cy="75.977143"
     inkscape:window-width="1366"
     inkscape:window-height="705"
     inkscape:window-x="-8"
     inkscape:window-y="-8"
     inkscape:window-maximized="1"
     inkscape:current-layer="Layer_1" /><g
     id="g604"><rect
       fill="#528AC8"
       height="5.003"
       opacity="0.3"
       width="20.998"
       x="46.961"
       y="104.861"
       id="rect542" /><path
       d="M91.732,104.989   H15.683c-6.623,0-12.042-5.419-12.042-12.042v-58.82c0-6.623,5.419-12.042,12.042-12.042h83.771   c6.623,0,12.042,5.419,12.042,12.042v22.536"
       fill="none"
       stroke="#3D6CB4"
       stroke-linecap="round"
       stroke-linejoin="round"
       stroke-miterlimit="10"
       id="path544" /><path
       d="M91.732,87.74   H15.762c-3.558,0-6.469-2.911-6.469-6.469V34.467c0-3.558,2.911-6.47,6.47-6.47h83.613c3.558,0,6.469,2.911,6.469,6.469v21.675"
       fill="none"
       stroke="#3D6CB4"
       stroke-linecap="round"
       stroke-linejoin="round"
       stroke-miterlimit="10"
       id="path546" /><path
       d="M9.292,36.519v-2.052c0-3.558,2.911-6.47,6.47-6.47h83.613c3.558,0,6.469,2.911,6.469,6.469   v2.053H9.292z"
       fill="#528AC8"
       opacity="0.3"
       id="path548" /><path
       d="M9.292,36.519   v-2.052c0-3.558,2.911-6.47,6.47-6.47h83.613c3.558,0,6.469,2.911,6.469,6.469v2.053H9.292z"
       fill="none"
       stroke="#3D6CB4"
       stroke-linecap="round"
       stroke-linejoin="round"
       stroke-miterlimit="10"
       id="path550" /><circle
       cx="57.569"
       cy="96.613"
       fill="#528AC8"
       opacity="0.3"
       r="3.605"
       id="circle552" /><circle
       cx="57.569"
       cy="96.613"
       fill="none"
       r="3.605"
       stroke="#3D6CB4"
       stroke-linecap="round"
       stroke-linejoin="round"
       stroke-miterlimit="10"
       id="circle554" /><path
       d="M68.111,105.247   c0,0-1.904,12.308,7.468,12.308c-11.421,0-18.743,0-18.743,0h1.171c0,0-7.028,0-18.45,0c9.371,0,7.321-12.18,7.321-12.18"
       fill="none"
       stroke="#3D6CB4"
       stroke-linecap="round"
       stroke-linejoin="round"
       stroke-miterlimit="10"
       id="path556" /><rect
       fill="none"
       height="13.434"
       stroke="#3D6CB4"
       stroke-linecap="round"
       stroke-linejoin="round"
       stroke-miterlimit="10"
       width="35.955"
       x="16.538"
       y="42.927"
       id="rect558" /><g
       id="g566"><line
         fill="none"
         stroke="#3D6CB4"
         stroke-linecap="round"
         stroke-linejoin="round"
         stroke-miterlimit="10"
         x1="58.36"
         x2="88.36"
         y1="44.555"
         y2="44.555"
         id="line560" /><line
         fill="none"
         stroke="#3D6CB4"
         stroke-linecap="round"
         stroke-linejoin="round"
         stroke-miterlimit="10"
         x1="58.36"
         x2="93.36"
         y1="50.555"
         y2="50.555"
         id="line562" /><line
         fill="none"
         stroke="#3D6CB4"
         stroke-linecap="round"
         stroke-linejoin="round"
         stroke-miterlimit="10"
         x1="58.36"
         x2="88.36"
         y1="54.555"
         y2="54.555"
         id="line564" /></g><rect
       fill="#528AC8"
       height="17.978"
       opacity="0.3"
       width="17.978"
       x="16.538"
       y="63.77"
       id="rect568" /><rect
       fill="none"
       height="17.978"
       stroke="#3D6CB4"
       stroke-linecap="round"
       stroke-linejoin="round"
       stroke-miterlimit="10"
       width="17.978"
       x="16.538"
       y="63.77"
       id="rect570" /><rect
       fill="none"
       height="17.978"
       stroke="#3D6CB4"
       stroke-linecap="round"
       stroke-linejoin="round"
       stroke-miterlimit="10"
       width="17.978"
       x="41.035"
       y="63.77"
       id="rect572" /><rect
       fill="none"
       height="17.978"
       stroke="#3D6CB4"
       stroke-linecap="round"
       stroke-linejoin="round"
       stroke-miterlimit="10"
       width="17.978"
       x="65.532"
       y="63.77"
       id="rect574" /><path
       d="M134.727,124.88   H96.596c-2.652,0-4.822-2.17-4.822-4.822V61.48c0-2.652,2.17-4.822,4.822-4.822h38.131c2.652,0,4.822,2.17,4.822,4.822v58.578   C139.549,122.71,137.379,124.88,134.727,124.88z"
       fill="none"
       stroke="#3D6CB4"
       stroke-linecap="round"
       stroke-linejoin="round"
       stroke-miterlimit="10"
       id="path576" /><path
       d="M133.102,113.904   h-34.88c-1.717,0-3.11-1.392-3.11-3.11V63.66c0-1.717,1.392-3.11,3.11-3.11h34.88c1.717,0,3.11,1.392,3.11,3.11v47.134   C136.211,112.512,134.819,113.904,133.102,113.904z"
       fill="none"
       stroke="#3D6CB4"
       stroke-linecap="round"
       stroke-linejoin="round"
       stroke-miterlimit="10"
       id="path578" /><circle
       cx="117.456"
       cy="119.246"
       fill="#528AC8"
       opacity="0.3"
       r="2.206"
       id="circle580" /><circle
       cx="117.456"
       cy="119.246"
       fill="none"
       r="2.206"
       stroke="#3D6CB4"
       stroke-linecap="round"
       stroke-linejoin="round"
       stroke-miterlimit="10"
       id="circle582" /><rect
       fill="#528AC8"
       height="25.649"
       opacity="0.3"
       width="30.596"
       x="100.96"
       y="65.646"
       id="rect584" /><rect
       fill="none"
       height="25.649"
       stroke="#3D6CB4"
       stroke-linecap="round"
       stroke-linejoin="round"
       stroke-miterlimit="10"
       width="31.238"
       x="100.318"
       y="65.646"
       id="rect586" /><line
       fill="none"
       stroke="#3D6CB4"
       stroke-linecap="round"
       stroke-linejoin="round"
       stroke-miterlimit="10"
       x1="101.36"
       x2="125.36"
       y1="98.555"
       y2="98.555"
       id="line588" /><line
       fill="none"
       stroke="#3D6CB4"
       stroke-linecap="round"
       stroke-linejoin="round"
       stroke-miterlimit="10"
       x1="101.36"
       x2="121.36"
       y1="102.555"
       y2="102.555"
       id="line590" /><g
       id="g596"><line
         fill="none"
         stroke="#3D6CB4"
         stroke-linecap="round"
         stroke-linejoin="round"
         stroke-miterlimit="10"
         x1="125.538"
         x2="125.538"
         y1="40.51"
         y2="46.741"
         id="line592" /><line
         fill="none"
         stroke="#3D6CB4"
         stroke-linecap="round"
         stroke-linejoin="round"
         stroke-miterlimit="10"
         x1="128.654"
         x2="122.423"
         y1="43.625"
         y2="43.625"
         id="line594" /></g><g
       id="g602"><line
         fill="none"
         stroke="#3D6CB4"
         stroke-linecap="round"
         stroke-linejoin="round"
         stroke-miterlimit="10"
         x1="135.663"
         x2="135.663"
         y1="18.369"
         y2="28.777"
         id="line598" /><line
         fill="none"
         stroke="#3D6CB4"
         stroke-linecap="round"
         stroke-linejoin="round"
         stroke-miterlimit="10"
         x1="140.867"
         x2="130.46"
         y1="23.573"
         y2="23.573"
         id="line600" /></g></g><g
     id="g606" /><g
     id="g608" /><g
     id="g610" /><g
     id="g612" /><g
     id="g614" /><g
     id="g616" /></svg>
