<?xml version="1.0" encoding="UTF-8" standalone="no"?>
<!-- Created with Inkscape (http://www.inkscape.org/) -->

<svg
   version="1.1"
   id="svg92175"
   width="1090.4381"
   height="989.86664"
   viewBox="0 0 1090.4381 989.86664"
   sodipodi:docname="Helix.svg"
   inkscape:version="1.2.2 (732a01da63, 2022-12-09)"
   xmlns:inkscape="http://www.inkscape.org/namespaces/inkscape"
   xmlns:sodipodi="http://sodipodi.sourceforge.net/DTD/sodipodi-0.dtd"
   xmlns="http://www.w3.org/2000/svg"
   xmlns:svg="http://www.w3.org/2000/svg">
  <defs
     id="defs92179">
    <rect
       x="246.24762"
       y="503.46667"
       width="327.92381"
       height="86.552381"
       id="rect95793" />
    <clipPath
       clipPathUnits="userSpaceOnUse"
       id="clipPath92730">
      <path
         style="fill:#999999;fill-rule:evenodd;stroke:#e59a0e;stroke-width:0;stroke-linecap:round;stroke-linejoin:round;stroke-dasharray:none"
         d="m 260.87619,494.93333 78.01905,-78.01904 290.13333,-173.10477 107.27619,-75.58095 65.82857,-41.44762 21.94286,-4.87619 85.33333,92.64762 -78.01904,129.21905 -104.8381,134.09524 -43.88571,63.39047 92.64762,-70.70476 L 921.6,360.8381 l 85.3333,-46.32381 19.5048,14.62857 70.7048,70.70476 4.8761,9.75238 -65.8285,112.15238 -119.46669,156.0381 -36.57143,53.63809 136.53332,-99.9619 129.2191,-95.08572 60.9523,-29.25714 82.8953,82.89524 4.8762,2.43809 -4.8762,24.38096 -68.2667,107.27619 -107.2762,141.40952 -60.9524,92.64762 -43.8857,70.70477 -9.75235,24.3809 -2.4381,17.0667 v 7.3143 L 921.6,1153.219 l -82.89524,-82.8952 14.62857,-36.5714 104.8381,-153.60002 63.39047,-78.01905 36.5714,-56.07619 -180.41901,129.21905 -56.07619,43.88571 -68.26667,36.57143 -24.38095,9.75238 -9.75238,-14.62857 -75.58096,-73.14285 19.50476,-46.32381 146.28572,-204.8 56.07619,-68.26667 v -9.75238 L 648.53333,707.04762 563.2,765.5619 531.50476,768 448.60952,680.22857 565.6381,504.68571 675.35238,358.4 l -2.43809,-2.4381 -121.90477,87.77143 -134.09523,99.96191 -70.70477,36.57143 v -4.87619 z"
         id="path92732" />
    </clipPath>
    <clipPath
       clipPathUnits="userSpaceOnUse"
       id="clipPath94267">
      <path
         style="fill:#999999;fill-rule:evenodd;stroke:#e59a0e;stroke-width:0;stroke-linecap:round;stroke-linejoin:round;stroke-dasharray:none"
         d="m 266.43454,489.36383 74.88813,-71.49504 h 17.90803 l 43.95608,-19.66113 94.42417,-58.98341 92.79616,-64.34552 50.46809,-39.32227 71.63212,-50.04652 78.14414,-53.62127 30.93206,-7.14951 50.46809,50.04652 32.56006,33.96014 -8.14002,32.17277 -74.88813,109.02992 -128.61223,173.37546 -11.39602,14.299 4.88401,3.57476 219.78039,-162.65121 52.09609,-37.53488 30.08105,-15.62452 25.32579,-8.84706 86.3379,85.94286 -16.1164,41.70756 -21.8723,31.59664 -146.19881,199.69076 -37.98868,60.66555 134.68719,-99.84538 84.0354,-63.19328 71.3727,-48.02689 35.6864,-15.16639 89.7913,85.94286 -20.721,50.55463 -27.6282,41.70756 -57.5586,75.83193 -26.4769,39.17983 -55.2563,72.04032 -41.4421,63.1933 -13.8141,18.95797 -35.6863,58.13781 -8.0583,17.6942 -11.5116,29.0689 3.45347,16.4302 -78.2797,74.5681 -78.27969,-82.1513 5.75586,-22.7496 28.7793,-48.0269 46.04688,-65.72093 85.18678,-113.74795 55.2562,-78.35966 -51.8028,31.59664 -66.76792,53.08235 -28.77929,21.48572 -71.37266,51.81851 -51.80273,34.12439 -54.10508,27.80499 -10.36055,-1.26381 -9.20937,-11.37487 -71.37267,-69.51258 v -12.63868 l 10.36055,-24.01341 32.23282,-50.55463 85.18672,-116.27563 67.91914,-89.73446 24.17461,-29.06891 v -10.11093 l -89.79141,61.92942 -41.44219,32.8605 -118.5707,85.94286 -27.62813,18.95799 -39.13984,20.22185 -18.41875,-1.26387 -49.50039,-51.81849 -29.93047,-31.59663 6.90703,-18.95799 115.11718,-173.14958 100.15196,-136.49748 -42.59335,26.54118 -79.43087,59.40168 -97.84961,72.04033 -54.10508,36.6521 -44.89569,24.01345 -10.36055,1.26386 -6.90704,-2.52772 -74.82617,-74.56807 z"
         id="path94269" />
    </clipPath>
    <clipPath
       clipPathUnits="userSpaceOnUse"
       id="clipPath94271">
      <path
         style="fill:#999999;fill-rule:evenodd;stroke:#e59a0e;stroke-width:0;stroke-linecap:round;stroke-linejoin:round;stroke-dasharray:none"
         d="m 230.19085,644.56193 79.30371,-68.95975 h 18.96393 l 46.54783,-18.96393 99.99163,-56.89179 98.26764,-62.06377 53.4438,-37.92786 75.85572,-48.27182 82.7517,-51.71981 32.75588,-6.89598 53.44381,48.27182 34.47987,32.75588 -8.61997,31.03189 -79.30371,105.16361 -136.1955,167.22739 -12.06796,13.79195 5.17199,3.44799 232.73914,-156.88343 55.1678,-36.20386 31.8547,-15.07046 26.81904,-8.53333 91.4286,82.89524 -17.0667,40.22857 -23.1619,30.47619 -154.81904,192.60952 -40.22857,58.51429 142.62861,-96.30476 88.9904,-60.95238 75.581,-46.32381 37.7905,-14.62858 95.0857,82.89524 -21.9428,48.76191 -29.2572,40.22857 -60.9524,73.14286 L 1177.6,947.2 l -58.5143,69.4857 -43.8857,60.9524 -14.6286,18.2857 -37.7904,56.0762 -8.5334,17.0667 -12.1904,28.0381 3.6571,15.8476 -82.89525,71.9238 -82.89524,-79.2381 6.09524,-21.9429 30.47619,-46.3238 48.76191,-63.3904 90.20955,-109.71433 58.5143,-75.58095 -54.8572,30.47619 -70.70475,51.2 -30.47619,20.72381 -75.58095,49.98098 -54.85714,32.9143 -57.29524,26.819 -10.97143,-1.219 -9.75238,-10.9715 -75.58096,-67.0476 v -12.1905 l 10.97143,-23.16187 34.13334,-48.76191 90.20952,-112.15238 71.92381,-86.55238 25.6,-28.0381 v -9.75238 l -95.08571,59.73334 -43.88572,31.69523 -125.5619,82.89524 -29.25715,18.28572 -41.44762,19.50476 L 512,911.84762 459.58096,861.86667 427.88572,831.39048 435.2,813.10476 557.10476,646.09524 663.16191,514.4381 l -45.10476,25.6 -84.11429,57.29524 -103.61905,69.48571 -57.29524,35.35238 -47.54285,23.16191 -10.97143,1.21904 -7.31429,-2.43809 -79.23809,-71.92381 z"
         id="path94273" />
    </clipPath>
    <rect
       x="246.24762"
       y="503.46667"
       width="327.9238"
       height="86.552383"
       id="rect95793-4" />
    <rect
       x="246.24762"
       y="503.46667"
       width="327.9238"
       height="86.552383"
       id="rect95793-2" />
    <rect
       x="246.24762"
       y="503.46667"
       width="327.9238"
       height="86.552383"
       id="rect95793-0" />
    <rect
       x="246.24762"
       y="503.46667"
       width="327.9238"
       height="86.552383"
       id="rect95793-3" />
    <rect
       x="246.24762"
       y="503.46667"
       width="327.9238"
       height="86.552383"
       id="rect95793-9" />
    <rect
       x="246.24762"
       y="503.46667"
       width="327.9238"
       height="86.552383"
       id="rect95793-04" />
  </defs>
  <sodipodi:namedview
     id="namedview92177"
     pagecolor="#ffffff"
     bordercolor="#000000"
     borderopacity="0.25"
     inkscape:showpageshadow="2"
     inkscape:pageopacity="0.0"
     inkscape:pagecheckerboard="0"
     inkscape:deskcolor="#d1d1d1"
     showgrid="false"
     inkscape:zoom="0.8203125"
     inkscape:cx="415.08571"
     inkscape:cy="274.28571"
     inkscape:window-width="1366"
     inkscape:window-height="705"
     inkscape:window-x="-8"
     inkscape:window-y="-8"
     inkscape:window-maximized="1"
     inkscape:current-layer="g92181" />
  <g
     inkscape:groupmode="layer"
     inkscape:label="Image"
     id="g92181"
     transform="translate(-226.74286,-287.69524)">
    <rect
       style="fill:#ffffff;fill-rule:evenodd;stroke:#e59a0e;stroke-width:0;stroke-linecap:round;stroke-linejoin:round;stroke-dasharray:none;fill-opacity:0.44705883"
       id="rect94245"
       width="1087.3905"
       height="987.42859"
       x="229.18095"
       y="285.25714"
       ry="1.585469"
       clip-path="url(#clipPath94271)"
       transform="matrix(1.0011211,0,0,1,-1.4759769,0)" />
  </g>
</svg>
