<?xml version="1.0" encoding="UTF-8" standalone="no"?>
<svg
   viewBox="0 0 640 512"
   version="1.1"
   id="svg44797"
   sodipodi:docname="laptop-code - Copy.svg"
   inkscape:version="1.2.2 (732a01da63, 2022-12-09)"
   xml:space="preserve"
   xmlns:inkscape="http://www.inkscape.org/namespaces/inkscape"
   xmlns:sodipodi="http://sodipodi.sourceforge.net/DTD/sodipodi-0.dtd"
   xmlns="http://www.w3.org/2000/svg"
   xmlns:svg="http://www.w3.org/2000/svg"><defs
     id="defs44801" /><sodipodi:namedview
     id="namedview44799"
     pagecolor="#ffffff"
     bordercolor="#000000"
     borderopacity="0.25"
     inkscape:showpageshadow="2"
     inkscape:pageopacity="0.0"
     inkscape:pagecheckerboard="0"
     inkscape:deskcolor="#d1d1d1"
     showgrid="false"
     inkscape:zoom="1.4501213"
     inkscape:cx="50.685415"
     inkscape:cy="400.65614"
     inkscape:window-width="1366"
     inkscape:window-height="705"
     inkscape:window-x="-8"
     inkscape:window-y="-8"
     inkscape:window-maximized="1"
     inkscape:current-layer="svg44797" /><!--! Font Awesome Free 6.5.1 by @fontawesome - https://fontawesome.com License - https://fontawesome.com/license/free (Icons: CC BY 4.0, Fonts: SIL OFL 1.1, Code: MIT License) Copyright 2023 Fonticons, Inc. --><path
     style="fill:#666666;stroke-width:2.84276"
     d="m 139.63297,502.56055 c -6.5445,-6.29604 1.65275,-11.43058 18.24879,-11.43058 h 14.28823 l -1.83079,-10.79555 c -5.95396,-35.10844 -15.25782,-116.67259 -13.6825,-119.95027 1.63731,-3.40664 20.52325,-3.88101 154.51689,-3.88101 133.64129,0 152.99045,0.48346 155.37269,3.88223 2.2785,3.25071 -4.26464,61.07029 -13.43028,118.67899 l -1.91966,12.06561 h 10.85512 c 13.28696,0 20.72905,5.7417 14.81568,11.43058 -3.42712,3.29703 -26.13695,3.81019 -168.61708,3.81019 -142.48014,0 -165.18995,-0.51316 -168.61709,-3.81019 z M 327.44291,454.2551 c 10.28316,-4.24568 18.99116,-15.53513 18.9727,-24.59711 -0.0191,-8.88294 -10.79397,-21.10098 -21.82897,-24.75043 -38.86616,-12.85364 -67.38003,30.65712 -31.52779,48.10981 12.48163,6.07601 21.84897,6.41319 34.38406,1.23773 z m -26.35112,-14.13117 c -6.39549,-2.97414 -7.47221,-15.04066 -1.7498,-19.60954 5.35358,-4.2744 17.06379,-3.79399 22.99736,0.94348 14.00365,11.18075 -3.7691,26.79416 -21.24756,18.66606 z m -163.48978,9.09391 c -2.52032,-5.24389 0.89693,-11.43058 6.31374,-11.43058 2.46537,0 6.26473,1.71459 8.44304,3.8102 3.15978,3.03982 3.15978,4.58056 0,7.62038 -2.17831,2.09561 -5.97767,3.8102 -8.44304,3.8102 -2.46536,0 -5.30654,-1.71459 -6.31374,-3.8102 z m 330.95689,0.17807 c -3.16768,-6.5908 1.2722,-12.03816 9.08939,-11.15188 5.25808,0.59614 7.17249,2.50815 7.17249,7.16352 0,4.65537 -1.91441,6.56737 -7.17249,7.16352 -4.30222,0.48775 -7.93961,-0.78287 -9.08939,-3.17516 z m -356.40852,-2.7182 c -2.52032,-5.24389 0.89692,-11.43058 6.31374,-11.43058 6.36881,0 12.67455,6.852 10.48954,11.39825 -2.38513,4.96257 -14.42256,4.98576 -16.80328,0.0323 z m 381.77455,0 c -2.52035,-5.24389 0.89691,-11.43058 6.31372,-11.43058 6.36883,0 12.67456,6.852 10.48954,11.39825 -2.38514,4.96257 -14.42255,4.98576 -16.80326,0.0323 z M 112.05571,423.61959 c -1.05925,-2.20394 0.41733,-5.87806 3.28131,-8.16471 4.822,-3.84997 5.59245,-3.84997 10.41445,0 6.50443,5.19324 3.51892,12.17187 -5.20722,12.17187 -3.60944,0 -7.42928,-1.80321 -8.48854,-4.00716 z m 381.77454,0 c -1.05927,-2.20394 0.41734,-5.87806 3.28132,-8.16471 4.82197,-3.84997 5.59245,-3.84997 10.41442,0 6.50446,5.19324 3.51895,12.17187 -5.20721,12.17187 -3.60942,0 -7.42927,-1.80321 -8.48853,-4.00716 z m -381.6763,-22.65678 c -1.09943,-2.28751 -0.52927,-5.33252 1.26701,-6.7667 5.1861,-4.14066 15.07692,-1.34997 15.07692,4.25396 0,6.46125 -13.4522,8.52942 -16.34393,2.51274 z m 381.77454,0 c -1.09942,-2.28751 -0.52927,-5.33252 1.26701,-6.7667 5.18609,-4.14066 15.07692,-1.34997 15.07692,4.25396 0,6.46125 -13.45221,8.52942 -16.34393,2.51274 z M 114.21496,380.6667 c -5.16607,-4.96991 -1.83031,-11.46292 5.88905,-11.46292 7.52488,0 11.38833,7.01947 6.46848,11.75255 -4.64327,4.46699 -7.48238,4.40044 -12.35753,-0.28963 z m 381.77454,0 c -5.28631,-5.08557 -1.76504,-11.46292 6.32928,-11.46292 3.60942,0 7.39367,1.72915 8.40941,3.84253 1.82813,3.80372 -3.77499,11.39825 -8.40941,11.39825 -1.32129,0 -4.16946,-1.70003 -6.32928,-3.77786 z M 114.21496,357.80554 c -5.28628,-5.08557 -1.76502,-11.46291 6.32929,-11.46291 3.60943,0 7.39366,1.72914 8.40941,3.84252 1.82813,3.80372 -3.77498,11.39825 -8.40941,11.39825 -1.3213,0 -4.16948,-1.70003 -6.32929,-3.77786 z m 381.77454,0 c -5.28631,-5.08557 -1.76504,-11.46291 6.32928,-11.46291 3.60942,0 7.39367,1.72914 8.40941,3.84252 1.82813,3.80372 -3.77499,11.39825 -8.40941,11.39825 -1.32129,0 -4.16946,-1.70003 -6.32928,-3.77786 z M 193.7177,332.412 c 0,-11.5539 12.53291,-22.4869 32.91982,-28.7174 l 15.42183,-4.71311 17.98344,14.30885 c 13.13755,10.45314 22.02135,15.20432 32.96833,17.63198 26.47345,5.87087 53.56007,-1.76019 74.51437,-20.99272 l 12.14952,-11.15124 14.39542,3.77074 c 19.97769,5.23292 31.94648,15.10376 34.13898,28.15492 l 1.77372,10.55835 H 311.85041 193.7177 Z m -79.05403,4.06187 c -6.27644,-3.17575 -3.09915,-11.59744 4.71278,-12.49167 7.97753,-0.9132 12.49644,6.15263 7.19604,11.25181 -4.19361,4.03438 -6.01171,4.22367 -11.90882,1.23986 z m 381.77454,0 c -6.43971,-3.25835 -3.0219,-11.60686 5.13194,-12.53554 8.54962,-0.97373 12.74663,5.55257 7.07791,11.00605 -4.49937,4.32858 -6.24554,4.54732 -12.20985,1.52949 z M 296.9546,315.11403 c -18.62975,-5.88017 -29.73283,-14.60417 -40.20741,-31.59199 -22.03353,-35.73435 -7.09897,-70.28854 35.27498,-81.61596 40.68755,-10.87661 85.95675,14.97221 86.13227,49.18172 0.20298,39.57937 -45.20837,75.38637 -81.19984,64.02623 z m -184.80422,-3.06314 c -2.52032,-5.2439 0.89692,-11.43058 6.31374,-11.43058 6.36881,0 12.67455,6.85199 10.48954,11.39824 -2.38513,4.96257 -14.42256,4.98577 -16.80328,0.0323 z m 381.77455,0 c -2.52035,-5.2439 0.89691,-11.43058 6.31372,-11.43058 6.36883,0 12.67456,6.85199 10.48954,11.39824 -2.38514,4.96257 -14.42255,4.98577 -16.80326,0.0323 z M 112.15038,289.18973 c -2.52032,-5.24389 0.89692,-11.43058 6.31374,-11.43058 2.46536,0 6.26473,1.71459 8.44303,3.81019 3.15978,3.03982 3.15978,4.58056 0,7.62039 -2.1783,2.0956 -5.97767,3.81019 -8.44303,3.81019 -2.46537,0 -5.30655,-1.71459 -6.31374,-3.81019 z m 381.77455,0 c -2.52035,-5.24389 0.89691,-11.43058 6.31372,-11.43058 2.46537,0 6.26473,1.71459 8.44304,3.81019 3.15979,3.03982 3.15979,4.58056 0,7.62039 -2.17831,2.0956 -5.97767,3.81019 -8.44304,3.81019 -2.46537,0 -5.30654,-1.71459 -6.31372,-3.81019 z m -380.80408,-20.7444 c -4.03023,-3.21781 -2.10268,-10.46928 3.21605,-12.09885 6.75813,-2.07056 15.24877,4.47346 12.69588,9.78513 -1.93366,4.02323 -11.94714,5.47928 -15.91193,2.31372 z m 381.77455,0 c -4.03024,-3.21781 -2.10269,-10.46928 3.21603,-12.09885 6.75814,-2.07056 15.24878,4.47346 12.69588,9.78513 -1.93365,4.02323 -11.94712,5.47928 -15.91191,2.31372 z M 112.05571,243.27045 c -1.05925,-2.20394 0.12456,-5.6443 2.63069,-7.64524 3.86648,-3.08706 5.4562,-3.11287 10.49633,-0.17036 7.40801,4.32493 4.46635,11.82275 -4.63848,11.82275 -3.60944,0 -7.42928,-1.80322 -8.48854,-4.00715 z m 381.77454,0 c -1.05927,-2.20394 0.12439,-5.6443 2.63068,-7.64524 3.86648,-3.08706 5.45619,-3.11287 10.49631,-0.17036 7.40802,4.32493 4.46638,11.82275 -4.63846,11.82275 -3.60942,0 -7.42927,-1.80322 -8.48853,-4.00715 z M 112.05571,220.40929 c -1.05925,-2.20394 0.41733,-5.87806 3.28131,-8.1647 4.822,-3.84997 5.59245,-3.84997 10.41445,0 6.50443,5.19324 3.51892,12.17185 -5.20722,12.17185 -3.60944,0 -7.42928,-1.80322 -8.48854,-4.00715 z m 381.77454,0 c -1.05927,-2.20394 0.41734,-5.87806 3.28132,-8.1647 4.82197,-3.84997 5.59245,-3.84997 10.41442,0 6.50446,5.19324 3.51895,12.17185 -5.20721,12.17185 -3.60942,0 -7.42927,-1.80322 -8.48853,-4.00715 z m -381.6763,-22.65678 c -1.09943,-2.2875 -0.52927,-5.33251 1.26701,-6.7667 5.1861,-4.14067 15.07692,-1.34999 15.07692,4.25394 0,6.46125 -13.4522,8.52942 -16.34393,2.51276 z m 382.30603,1.38517 c -1.15296,-1.48946 -1.22371,-4.90312 -0.15716,-7.58591 1.54946,-3.8978 0.18961,-5.04148 -6.76905,-5.69256 -6.73266,-0.62993 -9.29147,-2.62511 -11.27976,-8.79515 -3.12584,-9.7002 -16.09084,-13.581 -24.66766,-7.38375 -7.70739,5.56903 -11.17155,4.98762 -24.04254,-4.03519 -16.49679,-11.56459 -19.0438,-16.42738 -12.67135,-24.19245 7.51333,-9.1553 3.97889,-17.35147 -8.73344,-20.25233 -10.3849,-2.36976 -10.40014,-2.39763 -11.33466,-20.74311 l -0.93576,-18.370167 9.95919,-1.590317 c 12.31586,-1.966638 18.97012,-11.438001 13.20988,-18.802292 -6.32308,-8.083896 -4.37819,-13.604844 8.26506,-23.461968 13.36733,-10.421606 16.6973,-11.120064 27.09149,-5.682406 9.79007,5.121606 20.89831,2.300201 23.35579,-5.932181 3.32115,-11.126075 7.17103,-13.032151 26.32202,-13.032151 19.59893,0 25.69839,2.84853 25.69839,12.001476 0,8.708969 13.59543,12.237246 25.50667,6.619469 8.99645,-4.243052 9.17309,-4.200344 22.79919,5.512511 18.83873,13.428488 19.9097,15.405907 12.74427,23.53072 -7.93073,8.992569 -3.62132,17.609351 10.24107,20.477352 9.80324,2.028202 9.83588,2.093419 9.83588,19.654384 v 17.61944 l -10.89661,2.81198 c -12.82237,3.30895 -17.71643,11.08919 -11.25729,17.89602 7.21837,7.60694 5.47236,11.88622 -9.70082,23.77574 l -14.35673,11.24974 -10.73257,-4.61475 c -13.3757,-5.75122 -22.47306,-2.69737 -25.27399,8.48408 -1.52379,6.08319 -3.58549,7.7106 -9.76821,7.7106 -6.57279,0 -7.74016,1.12625 -7.2378,6.98278 0.46331,5.40146 -0.95412,7.16006 -6.25913,7.76564 -3.77194,0.43058 -7.80141,-0.43578 -8.95437,-1.92525 z m 26.42357,-74.49112 c 4.08636,-1.60913 9.45506,-6.05275 11.93046,-9.87472 19.32008,-29.829614 -30.42403,-57.866479 -57.34582,-32.321346 -13.49315,12.803179 -9.05254,35.403316 8.28582,42.169986 15.69984,6.12721 21.62536,6.13137 37.12954,0.0261 z M 7.4563703,178.03573 C 6.6108683,176.27654 6.2978863,138.84139 6.7608553,94.846508 L 7.6026183,14.855812 151.99339,14.19466 c 103.96262,-0.476037 145.60656,0.144459 148.73299,2.216122 5.93975,3.935842 6.43616,157.055328 0.52448,161.775318 -5.67397,4.5302 -291.6152517,4.38385 -293.7944897,-0.15037 z M 141.74352,156.41516 c 3.93562,-1.99919 39.24836,-102.880029 39.24836,-112.124045 0,-6.725103 -8.60357,-9.794343 -14.06176,-5.016394 -2.21321,1.937379 -12.18238,27.924758 -22.15371,57.749732 -14.12601,42.251917 -17.31233,55.013557 -14.42847,57.787937 4.17874,4.02008 6.1038,4.29084 11.39558,1.60277 z m -21.81664,-23.98395 c 0.64013,-2.68217 -6.66835,-10.25002 -19.05622,-19.73252 L 80.77607,97.316961 100.96678,82.426812 C 121.35085,67.394081 125.43312,59.103886 113.36523,57.248314 106.70371,56.224033 56.945592,91.45172 56.849948,97.259928 56.814058,99.438073 67.9094,109.48857 81.50622,119.59436 c 24.74345,18.39049 36.18303,22.2126 38.42066,12.83685 z m 106.87379,-12.41096 c 13.30077,-9.9175 24.18321,-20.112538 24.18321,-22.655631 0,-5.729763 -47.20228,-40.57601 -54.97994,-40.587969 -13.03879,-0.02007 -9.47757,8.077699 10.70131,24.333362 l 20.2339,16.299986 -20.2339,16.299992 c -13.69539,11.03271 -19.60939,17.59937 -18.3013,20.32103 3.73084,7.76255 14.43299,3.85739 38.39672,-14.01077 z"
     id="path934" /></svg>
