<?xml version="1.0" encoding="UTF-8" standalone="no"?>
<!-- Created with Inkscape (http://www.inkscape.org/) -->

<svg
   version="1.1"
   id="svg987"
   width="68.394669"
   height="96.469337"
   viewBox="0 0 68.394664 96.469338"
   sodipodi:docname="launch.svg"
   inkscape:version="1.2.2 (732a01da63, 2022-12-09)"
   xmlns:inkscape="http://www.inkscape.org/namespaces/inkscape"
   xmlns:sodipodi="http://sodipodi.sourceforge.net/DTD/sodipodi-0.dtd"
   xmlns="http://www.w3.org/2000/svg"
   xmlns:svg="http://www.w3.org/2000/svg">
  <defs
     id="defs991">
    <clipPath
       clipPathUnits="userSpaceOnUse"
       id="clipPath1168">
      <rect
         style="fill:#666666;fill-rule:evenodd;stroke-width:1.333;stroke-linecap:round;stroke-linejoin:round"
         id="rect1170"
         width="116.77867"
         height="109.61067"
         x="17.621334"
         y="10.752" />
    </clipPath>
  </defs>
  <sodipodi:namedview
     id="namedview989"
     pagecolor="#ffffff"
     bordercolor="#000000"
     borderopacity="0.25"
     inkscape:showpageshadow="2"
     inkscape:pageopacity="0.0"
     inkscape:pagecheckerboard="0"
     inkscape:deskcolor="#d1d1d1"
     showgrid="false"
     inkscape:zoom="3.3482142"
     inkscape:cx="87.061336"
     inkscape:cy="62.122668"
     inkscape:window-width="1366"
     inkscape:window-height="705"
     inkscape:window-x="-8"
     inkscape:window-y="-8"
     inkscape:window-maximized="1"
     inkscape:current-layer="g993" />
  <g
     inkscape:groupmode="layer"
     inkscape:label="Image"
     id="g993"
     transform="translate(-44.800001,-16.725333)">
    <path
       style="fill:#666666;stroke-width:0.16"
       d="m 54.301656,111.26125 c -0.933278,-0.33099 -1.884816,-1.20436 -2.367533,-2.17304 L 51.52,108.25717 V 97.888586 87.52 h 12.714408 c 13.89741,0 13.454474,0.02781 14.874867,-0.933925 C 79.466229,86.344386 80.946523,84.63671 82.52992,82.64 84.065174,80.704 85.42,79.014571 85.540645,78.885714 85.726549,78.687157 85.76,81.15765 85.76,95.085714 V 111.52 l -15.4,-0.0126 c -13.067378,-0.0107 -15.499718,-0.048 -16.058344,-0.24612 z m 12.356845,-4.15099 c 0.589885,-0.44073 0.789817,-1.07077 0.535006,-1.68594 C 66.818483,104.51894 66.574483,104.48 61.275638,104.48 h -4.820254 l -0.467691,0.46769 c -0.499581,0.49958 -0.614511,1.19901 -0.295095,1.79585 0.379802,0.70967 0.889264,0.7735 5.855991,0.73379 4.433862,-0.0354 4.690779,-0.0539 5.109912,-0.36707 z m 8.468771,-5.90299 C 75.416243,100.9183 75.52,100.64162 75.52,100.16 c 0,-0.481616 -0.103757,-0.758302 -0.392728,-1.047272 L 74.734546,98.72 h -9.185455 -9.185454 l -0.421819,0.421818 c -0.578282,0.578283 -0.574959,1.400822 0.0081,2.009422 L 56.379864,101.6 h 9.177339 9.177338 l 0.392726,-0.39273 z M 88.64,95.005714 c 0,-13.90726 0.03424,-16.4773 0.216928,-16.28 0.11931,0.128857 1.592325,1.896664 3.273365,3.928457 2.75503,3.329875 3.155705,3.747999 4.063072,4.24 L 97.2,87.44 l 3.88,0.0525 3.88,0.0525 v 10.792642 c 0,8.823958 -0.0403,10.886548 -0.22092,11.307498 -0.26924,0.62745 -1.1386,1.47473 -1.7495,1.70505 -0.29238,0.11023 -2.88879,0.16981 -7.399996,0.16981 H 88.64 Z M 46.636619,83.948619 C 45.979723,83.291723 45.80068,82.500813 46.137966,81.745866 46.272099,81.44564 47.339928,80.012 48.510922,78.56 L 50.64,75.92 67.32,75.879259 c 9.174,-0.02241 16.679475,0.0136 16.678834,0.08 -6.4e-4,0.06641 -1.466831,1.963778 -3.2582,4.216379 -2.130884,2.679533 -3.389045,4.130967 -3.638834,4.197815 -0.20999,0.0562 -7.031,0.103161 -15.1578,0.104363 L 47.168,84.48 Z m 50.778317,0.250539 C 97.038107,83.951678 90.4,76.115947 90.4,75.918611 90.4,75.875374 93.850136,75.84 98.06697,75.84 h 7.66697 l 2.3974,2.866699 c 1.47468,1.763362 2.43905,3.056349 2.50562,3.359447 0.14861,0.676633 -0.16333,1.523454 -0.73992,2.008617 l -0.48159,0.405237 -5.78773,-8e-4 c -5.235504,-8e-4 -5.828277,-0.02748 -6.212784,-0.28 z M 76.314322,72.44 C 75.629478,71.330512 74.096493,68.184026 73.698256,67.070464 73.049037,65.255106 73.190078,63.842269 74.168493,62.36 l 0.396048,-0.6 H 78.32 82.075459 l 0.413256,0.624472 c 0.85125,1.286323 1.057067,2.686328 0.615466,4.186488 -0.309127,1.05013 -1.744759,4.11305 -2.546306,5.432538 L 79.97683,72.96 H 78.306064 76.635296 Z M 63.04,57.693979 v -4.546021 l 0.524904,-1.013979 C 63.853602,51.576291 64.185286,51.12 64.301981,51.12 c 0.118547,0 0.576726,0.847246 1.038309,1.92 0.879246,2.043435 1.530398,3.265542 2.54444,4.775507 0.34554,0.51453 0.566833,0.993719 0.491763,1.064864 C 68.191198,59.055979 63.201382,62.24 63.111475,62.24 63.072163,62.24 63.04,60.194291 63.04,57.693979 Z m 27.723373,2.902157 c -1.428146,-0.899875 -2.598146,-1.682368 -2.6,-1.738874 -0.0019,-0.05651 0.391462,-0.731638 0.87404,-1.500294 0.991523,-1.579314 2.504611,-4.614541 2.810078,-5.636968 0.111738,-0.374 0.265351,-0.68 0.341359,-0.68 0.264844,0 1.078454,1.486318 1.171862,2.140779 0.05175,0.362571 0.07276,2.547482 0.04669,4.855357 L 93.36,62.232274 Z M 71.310061,57.64 C 69.380806,54.896502 67.838339,51.822179 67.057642,49.164416 65.121317,42.572488 66.157478,35.484534 70.040491,28.76 l 0.900807,-1.56 h 7.376107 7.376107 l 0.579251,1 c 2.343389,4.04555 3.535461,7.385989 4.068213,11.4 0.801088,6.035771 -0.936586,12.258699 -5.037442,18.04 l -0.879569,1.24 H 78.303003 72.18204 Z m 11.422246,-4.987693 c 0.617723,-0.617721 0.61889,-1.256608 0.0035,-1.915385 L 82.271613,50.24 h -3.948114 -3.948115 l -0.467691,0.467693 c -0.596239,0.596237 -0.614535,1.253243 -0.05347,1.92003 L 74.268446,53.12 h 3.998085 3.998085 z m 2.236555,-4.497049 c 0.36849,-0.19721 0.791138,-0.966296 0.791138,-1.43962 0,-0.187139 -0.210461,-0.550715 -0.467693,-0.807945 L 84.824616,45.44 h -6.558085 -6.558085 l -0.414224,0.492277 c -0.561064,0.666787 -0.542768,1.323793 0.05347,1.92003 L 71.815384,48.32 h 6.422827 c 4.099189,0 6.534191,-0.0596 6.730651,-0.164742 z M 80.079101,43.009963 C 82.48527,42.394944 84.603421,39.921051 84.86519,37.420054 85.27356,33.518413 82.223464,30.08 78.354088,30.08 c -1.939552,0 -3.570768,0.720654 -4.884245,2.157808 -2.431901,2.660886 -2.35351,6.5368 0.182703,9.03344 1.783064,1.755245 4.00742,2.357048 6.426555,1.738715 z m -3.019138,-2.925021 c -1.321544,-0.471062 -2.345254,-1.917227 -2.362214,-3.337024 -0.02518,-2.107744 1.529968,-3.693459 3.622251,-3.693459 2.08217,0 3.605165,1.533122 3.596486,3.620402 -0.0104,2.502689 -2.499307,4.250309 -4.856523,3.410081 z M 73.12,24.217744 c 0,-0.158109 1.65737,-2.008949 3.469955,-3.875013 l 1.639776,-1.688158 0.422259,0.392713 c 1.683255,1.56548 4.86801,4.977056 4.86801,5.214714 0,0.0319 -2.34,0.058 -5.2,0.058 -2.86,0 -5.2,-0.04601 -5.2,-0.102256 z"
       id="path1172"
       sodipodi:nodetypes="cscccssssscsccssscsscsssscccssccccssssscccsssscsssscssssscscsscsssccccssscccssscccsscsssssssscssssscsssscccssscccssscccsscccsssscccsscssssssssssssssscssss" />
  </g>
</svg>
