<?xml version="1.0" encoding="UTF-8" standalone="no"?>
<!-- Created with Inkscape (http://www.inkscape.org/) -->

<svg
   width="329.30682mm"
   height="62.011734mm"
   viewBox="0 0 329.30683 62.011734"
   version="1.1"
   id="svg237"
   xml:space="preserve"
   inkscape:version="1.2.2 (732a01da63, 2022-12-09)"
   sodipodi:docname="logomade.svg"
   xmlns:inkscape="http://www.inkscape.org/namespaces/inkscape"
   xmlns:sodipodi="http://sodipodi.sourceforge.net/DTD/sodipodi-0.dtd"
   xmlns="http://www.w3.org/2000/svg"
   xmlns:svg="http://www.w3.org/2000/svg"><sodipodi:namedview
     id="namedview239"
     pagecolor="#ffffff"
     bordercolor="#000000"
     borderopacity="0.25"
     inkscape:showpageshadow="2"
     inkscape:pageopacity="0.0"
     inkscape:pagecheckerboard="0"
     inkscape:deskcolor="#d1d1d1"
     inkscape:document-units="mm"
     showgrid="false"
     inkscape:zoom="0.66142459"
     inkscape:cx="825.49093"
     inkscape:cy="179.91469"
     inkscape:window-width="1366"
     inkscape:window-height="705"
     inkscape:window-x="-8"
     inkscape:window-y="-8"
     inkscape:window-maximized="1"
     inkscape:current-layer="layer1" /><defs
     id="defs234" /><g
     inkscape:label="Layer 1"
     inkscape:groupmode="layer"
     id="layer1"
     transform="translate(148.90835,-34.733142)"><g
       id="g12031"
       transform="matrix(0.49127473,-0.01471098,-0.17324736,0.37419729,124.46335,121.08295)"
       style="fill:#1a1a1a;fill-opacity:1"><g
         id="g12029"
         transform="translate(75.603857,18.000918)"
         style="fill:#1a1a1a;fill-opacity:1"><path
           d="m 32.666501,101.80151 c 2.54,-8.440212 7.80521,-15.636872 13.0175,-22.807082 v 0 c 1.37583,-1.87855 2.75166,-3.75709 4.07458,-5.66209 5.23875,-7.54063 8.30791,-16.668752 8.30791,-26.53771 0,-25.743958 -20.84916,-46.59312498 -46.566657,-46.59312498 -25.7175,0 -46.56667,20.84916698 -46.56667,46.56666698 0,9.868958 3.06917,19.023538 8.30792,26.537708 1.32292,1.905 2.69875,3.78355 4.07458,5.66209 v 0 c 5.23875,7.17021 10.50396,14.39333 13.0174999,22.807082 H 32.666501 Z m -21.166667,33.86666 c 11.694577,0 21.166667,-9.47209 21.166667,-21.16667 v -4.23332 H -9.6668361 v 4.23332 c 0,11.69458 9.47209,21.16667 21.1666701,21.16667 z m -21.1666701,-88.9 c 0,2.328333 -1.9049999,4.233333 -4.2333299,4.233333 -2.32833,0 -4.23333,-1.905 -4.23333,-4.233333 0,-16.377709 13.2556199,-29.633334 29.63333,-29.633334 2.32833,0 4.23333,1.905 4.23333,4.233334 0,2.328333 -1.905,4.233333 -4.23333,4.233333 -11.6945801,0 -21.1666701,9.472083 -21.1666701,21.166667 z"
           id="path12025"
           style="fill:#1a1a1a;fill-opacity:1;stroke-width:0.264583" /><path
           id="rect12027"
           style="font-variation-settings:'wght' 800;fill:#1a1a1a;fill-rule:evenodd;stroke:#b70000;stroke-width:0.055;stroke-linecap:round;stroke-linejoin:round"
           d="M -22.101883,15.532164 H 37.501156 V 60.334448 H -22.101883 Z" /></g></g><rect
       style="font-variation-settings:'wght' 800;fill:#1a1a1a;fill-opacity:1;fill-rule:evenodd;stroke-width:0;stroke-linecap:round;stroke-linejoin:round"
       id="rect1683"
       width="14.70857"
       height="35.074287"
       x="1.1314133"
       y="-59.965714" /><path
       style="font-variation-settings:'wght' 800;fill:#280b0b;fill-opacity:1;fill-rule:evenodd;stroke:#00b000;stroke-width:2;stroke-linecap:round;stroke-linejoin:round;stroke-dasharray:none;stroke-opacity:1"
       d="M -18.102869,-59.965714 8.4857029,-42.994286"
       id="path1788" /><path
       style="font-variation-settings:'wght' 800;fill:#280b0b;fill-opacity:1;fill-rule:evenodd;stroke:#b70000;stroke-width:2;stroke-linecap:round;stroke-linejoin:round;stroke-dasharray:none;stroke-opacity:1"
       d="M 9.0514169,-42.994286 35.639989,-59.965714"
       id="path1844" /><text
       xml:space="preserve"
       style="font-size:60.9362px;font-family:'Open Sans';-inkscape-font-specification:'Open Sans, @wght=800';font-variation-settings:'wght' 800;fill:#ff6600;fill-opacity:1;fill-rule:evenodd;stroke-width:0;stroke-linecap:round;stroke-linejoin:round"
       x="-135.73212"
       y="94.7164"
       id="text607"
       transform="scale(1.0833037,0.92310217)"><tspan
         sodipodi:role="line"
         id="tspan605"
         style="fill:#ff6600;fill-opacity:1;stroke-width:0"
         x="-135.73212"
         y="94.7164">clade</tspan></text><circle
       id="path5500"
       style="fill:#2b0000;stroke:#b70000;stroke-width:0.264583"
       cx="-42.994297"
       cy="204.22285"
       r="0" /><circle
       id="path5502"
       style="fill:#2b0000;stroke:#b70000;stroke-width:0.264583"
       cx="-49.217155"
       cy="112.01142"
       r="0" /><g
       id="g5610"
       transform="matrix(0.57226964,-0.01540724,-0.2018101,0.39190776,110.85813,118.42175)"
       style="fill:#808080"><g
         id="g5620"
         transform="translate(75.603857,18.000918)"
         style="fill:#808080"><path
           d="m 32.666501,101.80151 c 2.54,-8.440212 7.80521,-15.636872 13.0175,-22.807082 v 0 c 1.37583,-1.87855 2.75166,-3.75709 4.07458,-5.66209 5.23875,-7.54063 8.30791,-16.668752 8.30791,-26.53771 0,-25.743958 -20.84916,-46.59312498 -46.566657,-46.59312498 -25.7175,0 -46.56667,20.84916698 -46.56667,46.56666698 0,9.868958 3.06917,19.023538 8.30792,26.537708 1.32292,1.905 2.69875,3.78355 4.07458,5.66209 v 0 c 5.23875,7.17021 10.50396,14.39333 13.0174999,22.807082 H 32.666501 Z m -21.166667,33.86666 c 11.694577,0 21.166667,-9.47209 21.166667,-21.16667 v -4.23332 H -9.6668361 v 4.23332 c 0,11.69458 9.47209,21.16667 21.1666701,21.16667 z m -21.1666701,-88.9 c 0,2.328333 -1.9049999,4.233333 -4.2333299,4.233333 -2.32833,0 -4.23333,-1.905 -4.23333,-4.233333 0,-16.377709 13.2556199,-29.633334 29.63333,-29.633334 2.32833,0 4.23333,1.905 4.23333,4.233334 0,2.328333 -1.905,4.233333 -4.23333,4.233333 -11.6945801,0 -21.1666701,9.472083 -21.1666701,21.166667 z"
           id="path5543"
           style="fill:#808080;stroke-width:0.264583" /><path
           id="rect5604"
           style="font-variation-settings:'wght' 800;fill-rule:evenodd;stroke:#b70000;stroke-width:0.055;stroke-linecap:round;stroke-linejoin:round"
           d="M -22.101883,15.532164 H 37.501156 V 60.334448 H -22.101883 Z" /></g></g><path
       style="fill:#ffffff;stroke-width:0.0170308"
       d="m 152.87574,152.6522 c -3.7287,0.0921 -6.8005,0.15308 -7.01814,0.13987 -0.17324,-0.0107 -0.53953,-0.066 -0.59432,-0.0899 -0.0191,-0.009 -0.0532,-0.0116 -0.075,-0.007 l -0.04,0.008 0.028,-0.0174 0.028,-0.0174 -0.0488,0.0108 c -0.0267,0.005 -0.0396,0.006 -0.029,0.002 0.0114,-0.005 -0.0444,-0.039 -0.12252,-0.0761 -0.0783,-0.037 -0.17504,-0.094 -0.21524,-0.12654 -0.0401,-0.0325 -0.0824,-0.0574 -0.0941,-0.0552 -0.0114,0.003 -0.0128,-0.001 -0.003,-0.008 0.01,-0.006 0.006,-0.0254 -0.01,-0.0418 -0.0161,-0.0166 -0.0507,-0.0795 -0.0765,-0.14003 l -0.0471,-0.10999 0.0222,-0.0869 c 0.0585,-0.23042 0.30436,-0.40325 0.94928,-0.66795 0.16236,-0.0666 0.29489,-0.12622 0.29463,-0.13249 -3.4e-4,-0.006 0.007,-0.008 0.0159,-0.005 0.0495,0.0183 0.59386,-0.26722 0.78625,-0.41235 0.19285,-0.14546 0.20494,-0.15735 0.27622,-0.26999 l 0.0703,-0.11068 -0.01,-0.0841 c -0.0152,-0.13548 -0.16823,-0.29544 -0.32158,-0.33604 -0.0387,-0.0108 -0.0686,-0.0231 -0.0659,-0.0285 0.01,-0.0185 -0.44462,-0.1353 -0.68036,-0.17511 -0.18664,-0.0315 -0.30207,-0.0472 -0.3869,-0.0526 -0.0488,-0.004 -0.10757,-0.01 -0.13034,-0.0149 -0.0373,-0.008 -0.13561,-0.0148 -0.67865,-0.0444 -0.19949,-0.0108 -1.30262,0.0268 -1.55656,0.0525 -0.0936,0.01 -0.28458,0.0289 -0.42462,0.0429 -0.1403,0.0144 -0.34293,0.0362 -0.45093,0.0494 -0.10814,0.0135 -0.25706,0.0313 -0.33118,0.0401 -0.0743,0.009 -0.17441,0.0226 -0.2228,0.0307 -0.0487,0.008 -0.16103,0.0257 -0.25018,0.0392 -0.32471,0.0492 -0.93254,0.22908 -0.90708,0.26839 0.004,0.006 -0.008,0.0109 -0.0289,0.0114 -0.0199,5.7e-4 -0.0767,0.0236 -0.12607,0.0512 -0.0787,0.044 -0.12564,0.0775 -0.26515,0.18943 -0.0172,0.0141 -0.0501,0.0487 -0.0721,0.0765 -0.0226,0.0279 -0.0559,0.071 -0.0757,0.0958 -0.0363,0.0446 -0.0694,0.20981 -0.0581,0.28091 0.0233,0.14321 0.12195,0.33871 0.17041,0.3374 0.0114,-2.8e-4 0.0165,0.008 0.0114,0.0174 -0.004,0.01 3.4e-4,0.0252 0.0114,0.0339 0.0114,0.009 0.0315,0.0312 0.0443,0.0499 0.0128,0.019 0.0367,0.0299 0.0539,0.0246 0.0176,-0.005 0.0206,-0.003 0.007,0.005 -0.0128,0.008 0.0256,0.0678 0.0848,0.13333 0.24792,0.27414 0.2877,0.43011 0.16396,0.64267 l -0.0801,0.13619 -0.14942,0.0911 c -0.34753,0.21176 -1.02154,0.49514 -1.18702,0.49907 -0.007,2e-4 -0.0653,0.0124 -0.13091,0.0277 -0.0654,0.0151 -0.18786,0.0364 -0.27192,0.0473 l -0.15265,0.0197 -1.80737,0.0482 c -2.25215,0.0601 -8.15518,0.20299 -8.46624,0.20501 l -0.23071,0.001 -0.11261,-0.0274 c -0.21303,-0.0519 -0.27176,-0.13047 -0.23022,-0.30805 l 0.0233,-0.10008 0.21225,-0.37256 c 0.44436,-0.77981 2.35243,-4.47588 2.41269,-4.67239 0.11144,-0.36721 0.11375,-0.39517 0.045,-0.55966 -0.0642,-0.15402 -0.21193,-0.25572 -0.43541,-0.29989 l -0.0981,-0.0195 -0.18127,0.0262 c -0.0997,0.0145 -0.21652,0.0343 -0.25961,0.0443 -0.0435,0.0107 -0.15135,0.033 -0.24026,0.0508 l -0.16174,0.0325 0.0243,0.0111 0.0243,0.0112 -0.039,-0.006 c -0.0398,-0.006 -0.46096,0.0926 -0.64553,0.15172 -0.30567,0.098 -0.67809,0.2194 -0.69107,0.22535 -0.0515,0.0236 -0.50284,0.13013 -0.69377,0.16366 l -0.22765,0.0401 -0.31496,0.009 -0.31493,0.009 -0.12812,-0.0193 c -0.39881,-0.0601 -0.67564,-0.19421 -0.74876,-0.36277 -0.0463,-0.10695 -0.0577,-0.23548 -0.0282,-0.31876 0.009,-0.025 0.0287,-0.0904 0.0439,-0.14558 0.0152,-0.0551 0.0577,-0.17939 0.0944,-0.27613 0.0365,-0.0968 0.0788,-0.22099 0.0937,-0.2761 0.0718,-0.26421 0.81184,-1.66807 0.9873,-1.87316 0.0926,-0.10833 0.29632,-0.26843 0.46689,-0.36712 0.0527,-0.0305 0.0927,-0.0588 0.0891,-0.0631 -0.004,-0.005 -0.002,-0.006 0.003,-0.003 0.005,0.002 0.10622,-0.0394 0.22391,-0.0929 0.4188,-0.19018 0.76987,-0.2871 1.37588,-0.37982 0.11417,-0.0175 0.60911,-0.022 0.64225,-0.005 0.0122,0.005 0.0691,0.0198 0.12662,0.0309 0.15396,0.0296 0.40078,0.11915 0.50141,0.18173 0.0286,0.0177 0.064,0.0285 0.0788,0.0239 0.0143,-0.005 0.0181,-0.003 0.006,0.005 -0.0122,0.008 0.0287,0.0413 0.0899,0.0755 0.0612,0.0342 0.11501,0.0692 0.11977,0.0777 0.0357,0.0627 0.42548,0.22114 0.66138,0.2689 l 0.15623,0.0316 0.179,-0.007 0.179,-0.006 0.19388,-0.0477 c 0.20988,-0.0517 0.45976,-0.15213 0.54985,-0.22118 0.0291,-0.0223 0.0595,-0.0409 0.0676,-0.0411 0.0379,-0.001 0.25285,-0.21075 0.37372,-0.36447 l 0.0798,-0.1016 1.35258,-2.61685 c 0.74449,-1.43928 1.38235,-2.66521 1.41947,-2.72434 l 0.0653,-0.10747 0.0939,-0.0708 c 0.12197,-0.0922 0.28211,-0.16199 0.46303,-0.20188 l 0.14525,-0.0321 2.14706,-0.0602 c 1.18102,-0.0334 2.71696,-0.0716 3.41401,-0.0863 0.69659,-0.0139 1.96658,-0.0481 2.82215,-0.076 l 1.55599,-0.0514 0.32517,-0.0285 c 0.17873,-0.0154 0.34859,-0.0338 0.37727,-0.0403 0.0285,-0.006 0.10971,-0.0233 0.18013,-0.0373 0.21213,-0.042 0.57715,-0.1688 0.56039,-0.19466 -0.004,-0.007 0.004,-0.01 0.0198,-0.006 0.0985,0.02 0.57762,-0.36385 0.51228,-0.41037 -0.006,-0.005 -0.008,-0.0206 -0.006,-0.0356 0.0154,-0.0656 -0.14116,-0.22685 -0.20193,-0.20813 -0.0176,0.005 -0.0222,0.004 -0.01,-0.005 0.0508,-0.0316 -0.46606,-0.20282 -0.5418,-0.17948 -0.0159,0.005 -0.0199,0.003 -0.007,-0.005 0.0128,-0.008 -0.01,-0.022 -0.0484,-0.0322 -0.16476,-0.0435 -0.30811,-0.21794 -0.28457,-0.34602 0.004,-0.025 0.003,-0.0508 -0.003,-0.0576 -0.0418,-0.0487 0.18278,-0.38076 0.37131,-0.54774 0.247,-0.21938 0.81348,-0.52686 1.21178,-0.65775 0.062,-0.0203 0.10757,-0.0414 0.10131,-0.0466 -0.006,-0.005 -0.003,-0.005 0.01,-0.003 0.0277,0.009 0.202,-0.0517 0.18604,-0.0649 -0.007,-0.005 -3.4e-4,-0.006 0.0128,-0.001 0.0144,0.004 0.0808,-0.008 0.1525,-0.0281 0.0703,-0.0201 0.14432,-0.039 0.16476,-0.0419 0.0205,-0.003 0.10102,-0.0187 0.17894,-0.035 0.28228,-0.059 1.01668,-0.14854 1.80378,-0.2199 l 0.33779,-0.0306 0.71104,-0.0186 0.71109,-0.0186 0.25773,0.0131 c 0.376,0.0192 0.66946,0.0434 0.98343,0.081 0.16752,0.0201 0.45728,0.0777 0.56886,0.11311 0.0616,0.0196 0.12992,0.0413 0.15174,0.0481 0.20451,0.0643 0.55176,0.33511 0.51687,0.40286 -0.003,0.007 0.003,0.0134 0.0164,0.0131 0.0128,-3.7e-4 0.0196,0.007 0.0155,0.015 -0.004,0.008 -10e-4,0.0296 0.006,0.0465 0.0149,0.0336 0.0275,0.11053 0.032,0.19811 0.001,0.0335 -0.0258,0.1115 -0.0694,0.19461 l -0.0721,0.13874 -0.0672,0.0577 c -0.10145,0.0873 -0.16474,0.13402 -0.19644,0.14499 -0.0159,0.005 -0.0201,0.0101 -0.0114,0.01 0.0352,-4.8e-4 -0.2844,0.16644 -0.52927,0.27663 -0.13887,0.0625 -0.24687,0.11804 -0.24024,0.12354 0.007,0.005 0.004,0.007 -0.009,0.004 -0.0526,-0.0174 -0.79348,0.31791 -0.89112,0.40337 -0.0216,0.0194 -0.0484,0.0355 -0.058,0.0358 -0.0646,0.002 -0.23393,0.20943 -0.23835,0.29244 -0.004,0.0812 0.0683,0.17973 0.12066,0.1636 0.0114,-0.004 0.0114,0.003 -0.003,0.016 -0.0149,0.0127 -0.0183,0.0196 -0.009,0.015 0.0114,-0.005 0.0477,0.009 0.0814,0.0305 0.0337,0.0212 0.0946,0.0481 0.13532,0.0599 0.0407,0.0117 0.0773,0.0249 0.0812,0.0291 0.0128,0.0137 0.35634,0.10049 0.39362,0.0995 0.0196,-5.2e-4 0.0394,0.004 0.0428,0.0107 0.004,0.006 0.0602,0.0136 0.12493,0.0168 0.0647,0.003 0.1366,0.01 0.15965,0.014 0.0741,0.0146 1.48059,-0.0154 5.81407,-0.12451 2.47744,-0.0619 4.30639,-0.10363 4.39817,-0.0992 0.0861,0.005 0.17219,0.008 0.19074,0.009 0.1528,0.008 0.3231,0.12523 0.3554,0.24565 l 0.0128,0.0455 -0.97083,1.88528 c -0.53395,1.03691 -1.18048,2.28267 -1.43881,2.76839 l -0.46801,0.8831 -0.0787,0.0954 c -0.18723,0.22734 -0.54747,0.46728 -0.94028,0.62637 -0.0518,0.021 -0.0905,0.044 -0.0859,0.051 0.004,0.008 -0.001,0.01 -0.0152,0.004 -0.0142,-0.005 -0.0502,0.002 -0.0875,0.0178 -0.0741,0.0309 -0.40541,0.12135 -0.59347,0.16195 l -0.12934,0.028 -0.24468,0.006 -0.24468,0.006 -0.13574,-0.0351 c -0.21387,-0.0554 -0.29581,-0.0981 -0.61235,-0.31919 -0.16323,-0.11398 -0.30902,-0.20692 -0.32397,-0.20653 -0.0152,4.2e-4 -0.0282,-0.004 -0.0295,-0.01 -0.004,-0.0198 -0.19127,-0.092 -0.34207,-0.13225 -0.48019,-0.12787 -0.96176,-0.079 -1.45317,0.14756 l -0.20901,0.0963 -0.15601,0.1143 c -0.0858,0.0628 -0.17099,0.12585 -0.18926,0.14002 -0.0645,0.05 -0.20974,0.1895 -0.22181,0.21295 -0.006,0.0132 -0.0276,0.0339 -0.0457,0.0463 -0.0181,0.0123 -0.0625,0.0568 -0.0982,0.0989 -0.0349,0.042 -0.0891,0.10505 -0.11896,0.14 -0.24807,0.28973 -0.43659,0.5801 -0.73905,1.13913 l -0.25195,0.4669 -0.0367,0.12538 c -0.0807,0.2732 -0.0516,0.56373 0.0605,0.60588 0.0188,0.008 0.0314,0.0198 0.0273,0.0279 -0.0114,0.02 0.16622,0.11841 0.20675,0.11527 0.0178,-10e-4 0.0276,0.002 0.0211,0.0101 -0.0147,0.0162 0.21796,0.0849 0.36508,0.10794 l 0.11724,0.0183 0.25663,-0.007 c 0.51319,-0.0141 0.91604,-0.11406 1.94232,-0.48224 0.1815,-0.0651 0.33588,-0.11854 0.34308,-0.11873 0.007,-1.3e-4 0.0731,-0.0189 0.14693,-0.0415 0.84401,-0.25911 1.5436,-0.11809 1.74255,0.3512 0.0216,0.0508 0.0457,0.10686 0.0539,0.12481 0.009,0.018 0.009,0.0434 0.003,0.0566 -0.006,0.0132 -0.006,0.029 10e-4,0.0353 0.0165,0.0139 -7.6e-4,0.16048 -0.0364,0.30348 l -0.0262,0.10487 -1.33911,2.56828 c -1.26904,2.43557 -1.39773,2.67109 -1.50221,2.75844 -0.11825,0.099 -0.36145,0.20447 -0.52193,0.22654 -0.0396,0.006 -0.10074,0.0155 -0.13575,0.0222 -0.10828,0.0209 -0.3471,0.028 -3.53972,0.10713 z"
       id="path5532" /><path
       style="fill:#00008f;fill-opacity:1;stroke-width:0.0163062"
       d="m 152.33721,152.35768 c -3.53562,0.0871 -6.44823,0.14456 -6.65443,0.13169 -0.16416,-0.0103 -0.51081,-0.0641 -0.56254,-0.0873 -0.0181,-0.009 -0.0504,-0.0113 -0.071,-0.007 l -0.0381,0.008 0.0267,-0.0168 0.0267,-0.0168 -0.0464,0.0104 c -0.0255,0.005 -0.0377,0.006 -0.0275,10e-4 0.01,-0.005 -0.0416,-0.0377 -0.11539,-0.0737 -0.0738,-0.0358 -0.16505,-0.091 -0.20283,-0.12248 -0.0377,-0.0315 -0.0776,-0.0555 -0.0887,-0.0534 -0.0114,0.003 -0.0128,-4.9e-4 -0.003,-0.008 0.01,-0.006 0.006,-0.0246 -0.01,-0.0405 -0.0151,-0.0161 -0.0472,-0.0769 -0.0712,-0.13545 l -0.0435,-0.10639 0.0219,-0.0841 c 0.0578,-0.22279 0.29243,-0.38979 0.90636,-0.64543 0.15454,-0.0643 0.28077,-0.12191 0.2806,-0.12798 -1.6e-4,-0.006 0.007,-0.008 0.0152,-0.005 0.0467,0.0177 0.56555,-0.25811 0.74934,-0.39836 0.18422,-0.14056 0.1958,-0.15205 0.26446,-0.26094 l 0.0677,-0.10698 -0.008,-0.0813 c -0.0128,-0.13102 -0.15662,-0.28579 -0.30162,-0.32512 -0.0366,-0.0104 -0.0647,-0.0224 -0.062,-0.0276 0.008,-0.0179 -0.42017,-0.13108 -0.64326,-0.1697 -0.17661,-0.0306 -0.2859,-0.0458 -0.36628,-0.0511 -0.0461,-0.004 -0.10188,-0.01 -0.12337,-0.0145 -0.0353,-0.008 -0.12835,-0.0144 -0.6429,-0.0433 -0.18901,-0.0105 -1.23512,0.0252 -1.47614,0.05 -0.0889,0.01 -0.27008,0.0279 -0.40294,0.0413 -0.13319,0.0139 -0.32545,0.0348 -0.42793,0.0475 -0.10273,0.0131 -0.24399,0.0301 -0.31434,0.0386 -0.0706,0.009 -0.16558,0.0218 -0.21151,0.0296 -0.0464,0.008 -0.15291,0.0247 -0.23752,0.0377 -0.30828,0.0474 -0.88626,0.22106 -0.86248,0.25907 0.003,0.006 -0.008,0.0106 -0.0276,0.011 -0.0189,5.8e-4 -0.073,0.0228 -0.11996,0.0494 -0.075,0.0425 -0.11995,0.0749 -0.25319,0.18305 -0.0165,0.0137 -0.048,0.047 -0.0692,0.074 -0.0218,0.027 -0.0538,0.0686 -0.0727,0.0926 -0.0347,0.0431 -0.068,0.20284 -0.0578,0.27162 0.0206,0.1385 0.11241,0.3276 0.15829,0.32636 0.0114,-2.6e-4 0.0155,0.008 0.0114,0.0169 -0.004,0.009 1.1e-4,0.0244 0.0114,0.0328 0.0114,0.009 0.0294,0.0302 0.0416,0.0483 0.0128,0.0184 0.0344,0.0289 0.0508,0.0237 0.0169,-0.005 0.0196,-0.003 0.007,0.005 -0.0114,0.008 0.0236,0.0656 0.0791,0.12897 0.23236,0.26522 0.26857,0.41607 0.1492,0.62156 l -0.0773,0.13165 -0.14252,0.088 c -0.33151,0.20461 -0.97319,0.4783 -1.13011,0.48203 -0.007,1.2e-4 -0.062,0.012 -0.12436,0.0268 -0.0622,0.0145 -0.17843,0.0351 -0.25822,0.0456 l -0.14488,0.019 -1.71383,0.0457 c -2.1356,0.057 -7.73296,0.19218 -8.02783,0.19392 l -0.21864,0.001 -0.10649,-0.0266 c -0.20145,-0.0503 -0.25635,-0.12634 -0.21526,-0.29802 l 0.0231,-0.0968 0.20482,-0.36018 c 0.42879,-0.75386 2.27334,-4.32706 2.3323,-4.51706 0.10921,-0.35504 0.11165,-0.38207 0.0481,-0.54118 -0.0594,-0.14897 -0.19842,-0.2474 -0.40986,-0.29022 l -0.0928,-0.0189 -0.17208,0.0252 c -0.0947,0.014 -0.20562,0.0331 -0.24656,0.0428 -0.0413,0.0103 -0.1438,0.0318 -0.22826,0.049 l -0.15363,0.0313 0.0229,0.0108 0.0229,0.0107 -0.0367,-0.006 c -0.0376,-0.006 -0.43789,0.0893 -0.61342,0.14638 -0.29073,0.0946 -0.64494,0.21183 -0.65731,0.21758 -0.049,0.0228 -0.47794,0.12558 -0.65927,0.15791 l -0.21619,0.0386 -0.29866,0.008 -0.29863,0.008 -0.12126,-0.0187 c -0.37747,-0.0583 -0.63862,-0.18815 -0.70631,-0.35118 -0.0428,-0.10345 -0.0525,-0.22775 -0.0236,-0.30826 0.009,-0.0241 0.028,-0.0874 0.0431,-0.14076 0.0149,-0.0534 0.0564,-0.17345 0.0922,-0.26698 0.0356,-0.0936 0.0769,-0.21366 0.0915,-0.26695 0.0707,-0.25546 0.78574,-1.61263 0.95406,-1.81088 0.0888,-0.10471 0.28351,-0.25942 0.44616,-0.35477 0.0503,-0.0295 0.0884,-0.0568 0.085,-0.0609 -0.004,-0.005 -0.002,-0.006 0.003,-0.003 0.005,0.002 0.10108,-0.038 0.21317,-0.0898 0.39885,-0.1837 0.73259,-0.27724 1.30798,-0.3666 0.10841,-0.0168 0.57774,-0.0212 0.6089,-0.005 0.0114,0.005 0.0653,0.0191 0.11973,0.0299 0.14567,0.0287 0.37879,0.11543 0.47357,0.17601 0.0269,0.0171 0.0604,0.0275 0.0745,0.0231 0.0137,-0.005 0.0172,-0.003 0.005,0.005 -0.0118,0.008 0.0268,0.04 0.0845,0.073 0.0577,0.0331 0.10837,0.0669 0.11278,0.0752 0.0333,0.0606 0.40122,0.21405 0.62439,0.26037 l 0.14779,0.0307 0.16935,-0.005 0.16936,-0.005 0.18424,-0.046 c 0.19946,-0.0499 0.43732,-0.14689 0.52338,-0.21361 0.0278,-0.0216 0.0568,-0.0395 0.0645,-0.0397 0.0359,-9.9e-4 0.24175,-0.20368 0.35781,-0.35227 l 0.0767,-0.0982 1.30749,-2.52985 c 0.71964,-1.39143 1.33621,-2.57661 1.37196,-2.63377 l 0.0629,-0.10389 0.0897,-0.0685 c 0.11653,-0.0891 0.26901,-0.15651 0.4409,-0.19499 l 0.138,-0.0309 2.03599,-0.0572 c 1.11953,-0.031 2.57674,-0.0686 3.23717,-0.0815 0.66042,-0.0129 1.86468,-0.0454 2.6761,-0.072 l 1.47538,-0.0487 0.30854,-0.0274 c 0.1696,-0.0149 0.33079,-0.0325 0.35802,-0.0388 0.0272,-0.006 0.10416,-0.0224 0.17108,-0.0359 0.20152,-0.0405 0.54878,-0.16294 0.53313,-0.18796 -0.004,-0.007 0.004,-0.009 0.0189,-0.006 0.0932,0.0193 0.55109,-0.35156 0.48959,-0.39658 -0.006,-0.005 -0.008,-0.0199 -0.004,-0.0344 0.0152,-0.0634 -0.13162,-0.21943 -0.18942,-0.20136 -0.0169,0.005 -0.0212,0.004 -0.008,-0.005 0.0485,-0.0306 -0.43985,-0.19637 -0.51188,-0.17383 -0.0152,0.005 -0.0189,0.003 -0.007,-0.005 0.0114,-0.008 -0.008,-0.0212 -0.0457,-0.0311 -0.15575,-0.0422 -0.28997,-0.2109 -0.26642,-0.33475 0.004,-0.0241 0.004,-0.0492 -0.001,-0.0556 -0.0391,-0.0471 0.17698,-0.36811 0.35729,-0.52949 0.23629,-0.21202 0.77626,-0.50907 1.15511,-0.63544 0.059,-0.0196 0.10231,-0.0399 0.0965,-0.045 -0.006,-0.005 -0.001,-0.006 0.008,-0.003 0.0262,0.008 0.19195,-0.0498 0.17697,-0.0626 -0.007,-0.005 -1.4e-4,-0.006 0.0114,-0.001 0.0128,0.004 0.0768,-0.008 0.14483,-0.0271 0.0667,-0.0194 0.13717,-0.0377 0.15657,-0.0404 0.0195,-0.003 0.0961,-0.018 0.16996,-0.0337 0.26816,-0.057 0.96523,-0.14312 1.71207,-0.21173 l 0.32052,-0.0295 0.67425,-0.0176 0.67428,-0.0176 0.24417,0.0129 c 0.35626,0.0187 0.63424,0.0422 0.93147,0.0789 0.15862,0.0196 0.43277,0.0753 0.53821,0.10967 0.0583,0.0188 0.1228,0.0399 0.14337,0.0466 0.19321,0.0624 0.51981,0.32433 0.48607,0.38983 -0.003,0.007 0.003,0.013 0.0154,0.0126 0.0128,-3.7e-4 0.0185,0.007 0.0145,0.0146 -0.003,0.008 -0.001,0.0286 0.006,0.0449 0.0142,0.0325 0.0249,0.1069 0.0285,0.19159 0.001,0.0324 -0.0258,0.10781 -0.0674,0.18817 l -0.0696,0.13412 -0.0642,0.0558 c -0.097,0.0844 -0.15747,0.12951 -0.18762,0.14011 -0.0152,0.005 -0.0191,0.01 -0.0114,0.01 0.0333,-5.4e-4 -0.27119,0.16081 -0.50441,0.26724 -0.13219,0.0604 -0.23518,0.11403 -0.22893,0.11935 0.007,0.005 0.003,0.007 -0.009,0.003 -0.0497,-0.0169 -0.7553,0.30702 -0.84868,0.38962 -0.0206,0.0187 -0.0461,0.0342 -0.0553,0.0345 -0.0612,0.002 -0.22379,0.2024 -0.22878,0.28267 -0.006,0.0786 0.063,0.17384 0.11284,0.15826 0.0114,-0.004 0.0114,0.003 -0.004,0.0155 -0.0142,0.0123 -0.0177,0.0189 -0.007,0.0145 0.01,-0.005 0.0448,0.009 0.0768,0.0295 0.0319,0.0205 0.0892,0.0467 0.12764,0.058 0.0386,0.0115 0.073,0.0241 0.077,0.0282 0.0128,0.0133 0.33684,0.0973 0.37216,0.0964 0.0186,-4.6e-4 0.0371,0.004 0.0405,0.0103 0.004,0.006 0.0571,0.0131 0.11826,0.0163 0.0613,0.003 0.12948,0.009 0.15123,0.0137 0.07,0.0142 1.4037,-0.0141 5.51282,-0.11744 2.34909,-0.0584 4.08341,-0.098 4.17031,-0.0936 0.0814,0.005 0.16318,0.008 0.18074,0.009 0.14479,0.008 0.3051,0.12128 0.33455,0.23774 l 0.0114,0.0439 -0.93855,1.82261 c -0.51619,1.00243 -1.14246,2.20681 -1.39073,2.67636 l -0.45227,0.85374 -0.0756,0.0922 c -0.17967,0.21978 -0.52352,0.45159 -0.89742,0.60524 -0.0492,0.0203 -0.0862,0.0426 -0.0821,0.0493 0.004,0.008 -0.001,0.009 -0.0142,0.004 -0.0128,-0.005 -0.0477,0.002 -0.0832,0.0172 -0.0706,0.0298 -0.38551,0.11716 -0.56413,0.15632 l -0.12294,0.027 -0.23202,0.006 -0.23202,0.006 -0.12835,-0.034 c -0.20221,-0.0536 -0.27945,-0.095 -0.57742,-0.30897 -0.15365,-0.1103 -0.29096,-0.20025 -0.30513,-0.19988 -0.0142,3.8e-4 -0.0266,-0.004 -0.0276,-0.01 -0.004,-0.0192 -0.18044,-0.0891 -0.32298,-0.12806 -0.45397,-0.1239 -0.91099,-0.0769 -1.379,0.14195 l -0.19911,0.093 -0.14905,0.11046 c -0.082,0.0607 -0.16332,0.12161 -0.18075,0.13531 -0.0615,0.0483 -0.20065,0.18314 -0.21231,0.20582 -0.007,0.0126 -0.026,0.0327 -0.044,0.0447 -0.0171,0.0119 -0.0598,0.0549 -0.0941,0.0956 -0.0336,0.0406 -0.0855,0.10153 -0.11411,0.13533 -0.23792,0.28004 -0.41945,0.56073 -0.71159,1.10117 l -0.24353,0.45137 -0.0364,0.12133 c -0.079,0.26415 -0.0544,0.5451 0.0516,0.58593 0.0178,0.008 0.0297,0.0191 0.0256,0.027 -0.01,0.0194 0.15642,0.11459 0.1949,0.11157 0.0169,-0.001 0.026,0.002 0.0198,0.01 -0.0128,0.0157 0.20575,0.0823 0.34501,0.10458 l 0.11085,0.0177 0.24336,-0.007 c 0.48662,-0.0134 0.86952,-0.10984 1.84597,-0.46536 0.17267,-0.0628 0.31956,-0.11446 0.32639,-0.11464 0.006,-7e-5 0.0696,-0.0182 0.13973,-0.04 0.80261,-0.25013 1.46442,-0.11338 1.64853,0.3405 0.0198,0.0491 0.0423,0.10335 0.0499,0.12073 0.007,0.0174 0.009,0.0419 0.001,0.0547 -0.007,0.0126 -0.007,0.028 5.4e-4,0.0342 0.0155,0.0134 -0.001,0.15519 -0.0376,0.29345 l -0.0255,0.1014 -1.29435,2.48291 c -1.22665,2.3546 -1.35077,2.58227 -1.45072,2.66669 -0.11312,0.0956 -0.34463,0.19755 -0.49695,0.2188 -0.0378,0.006 -0.0953,0.0149 -0.12892,0.0214 -0.10288,0.0202 -0.32935,0.027 -3.35664,0.1018 z"
       id="path5626" /><g
       id="g5634"
       transform="matrix(0.55760088,0,0,0.48028845,-52.870071,115.0654)"><g
         id="g5632"
         transform="translate(75.603857,18.000918)"><path
           d="m 32.666501,101.80151 c 2.54,-8.440212 7.80521,-15.636872 13.0175,-22.807082 v 0 c 1.37583,-1.87855 2.75166,-3.75709 4.07458,-5.66209 5.23875,-7.54063 8.30791,-16.668752 8.30791,-26.53771 0,-25.743958 -20.84916,-46.59312498 -46.566657,-46.59312498 -25.7175,0 -46.56667,20.84916698 -46.56667,46.56666698 0,9.868958 3.06917,19.023538 8.30792,26.537708 1.32292,1.905 2.69875,3.78355 4.07458,5.66209 v 0 c 5.23875,7.17021 10.50396,14.39333 13.0174999,22.807082 H 32.666501 Z m -21.166667,33.86666 c 11.694577,0 21.166667,-9.47209 21.166667,-21.16667 v -4.23332 H -9.6668361 v 4.23332 c 0,11.69458 9.47209,21.16667 21.1666701,21.16667 z m -21.1666701,-88.9 c 0,2.328333 -1.9049999,4.233333 -4.2333299,4.233333 -2.32833,0 -4.23333,-1.905 -4.23333,-4.233333 0,-16.377709 13.2556199,-29.633334 29.63333,-29.633334 2.32833,0 4.23333,1.905 4.23333,4.233334 0,2.328333 -1.905,4.233333 -4.23333,4.233333 -11.6945801,0 -21.1666701,9.472083 -21.1666701,21.166667 z"
           id="path5628"
           style="stroke-width:0.264583" /><rect
           style="font-variation-settings:'wght' 800;fill:#000000;fill-opacity:1;fill-rule:evenodd;stroke:#b70000;stroke-width:0.055;stroke-linecap:round;stroke-linejoin:round;stroke-dasharray:none;stroke-opacity:1"
           id="rect5630"
           width="59.603039"
           height="44.802284"
           x="-22.101883"
           y="15.532164" /></g></g><path
       style="fill:#ffffff;stroke-width:0.0187408"
       d="m 6.0624594,159.01091 c -3.63733,-0.0103 -6.64145397,-0.0373 -6.86322297,-0.061 -0.176573,-0.019 -0.56667403,-0.10008 -0.63299503,-0.13167 -0.02341,-0.0118 -0.05852,-0.0162 -0.07788,-0.0118 l -0.03527,0.009 0.01887,-0.0207 0.01888,-0.0207 -0.04277,0.0118 c -0.02357,0.006 -0.0361,0.006 -0.02786,9.1e-4 0.0082,-0.006 -0.06363,-0.0499 -0.159817,-0.0987 -0.09622,-0.0486 -0.220798,-0.12271 -0.277057,-0.16445 -0.05621,-0.0417 -0.110645,-0.0741 -0.120972,-0.0717 -0.0098,0.003 -0.0131,-0.002 -0.0066,-0.0103 0.0066,-0.007 -0.0066,-0.0313 -0.03165,-0.0523 -0.02439,-0.0212 -0.09049,-0.10052 -0.146877,-0.17658 l -0.102445,-0.13828 -0.02234,-0.10728 c -0.05934,-0.28438 0.09556,-0.49095 0.598107,-0.79832 0.126545,-0.0773 0.227144,-0.147 0.223699,-0.1548 -0.0033,-0.007 0.0033,-0.0103 0.0131,-0.006 0.05819,0.0244 0.450811,-0.31222 0.567061,-0.48614 0.11654803,-0.17431 0.12244903,-0.18868 0.13556103,-0.32628 l 0.0131,-0.13519 -0.05201,-0.10478 c -0.08393,-0.16888 -0.31654303,-0.37279 -0.48872203,-0.42837 -0.04377,-0.0147 -0.07953,-0.031 -0.07953,-0.0376 0,-0.0226 -0.508156,-0.18303 -0.761328,-0.2404 -0.200457,-0.0454 -0.322493,-0.0688 -0.409057,-0.0783 -0.05003,-0.006 -0.111306,-0.0159 -0.136385,-0.0229 -0.04113,-0.0118 -0.141463,-0.0229 -0.693136,-0.0779 -0.202616,-0.0201 -1.273457,-0.0103 -1.511266,0.0132 -0.08754,0.009 -0.266474,0.0264 -0.397725,0.0391 -0.1313,0.0132 -0.320424,0.0335 -0.420418,0.0463 -0.09999,0.0132 -0.23806,0.0303 -0.306808,0.0388 -0.06868,0.009 -0.160806,0.0223 -0.204523,0.0307 -0.04377,0.009 -0.146053,0.0265 -0.227258,0.0403 -0.295794,0.0503 -0.804861,0.25348 -0.759702,0.30318 0.0066,0.007 -0.0033,0.0132 -0.02278,0.0132 -0.01934,0 -0.06377,0.0267 -0.09852,0.0594 -0.0554,0.052 -0.08475,0.0921 -0.165608,0.22654 -0.0098,0.017 -0.02475,0.0588 -0.03229,0.0927 -0.0082,0.0339 -0.01918,0.0864 -0.02606,0.11653 -0.01311,0.0542 0.03803,0.25842 0.08557,0.34716 0.09589,0.17876 0.292859,0.42501 0.340052,0.42501 0.01147,0 0.02032,0.0103 0.02032,0.022 0,0.0117 0.01311,0.0313 0.02869,0.0425 0.01639,0.0118 0.04688,0.0398 0.06917,0.0635 0.02279,0.0241 0.05147,0.0384 0.06574,0.0323 0.01475,-0.006 0.01885,-0.003 0.0098,0.006 -0.0082,0.009 0.05983,0.0851 0.151625,0.16853 0.384425,0.34897 0.503102,0.54414 0.488988,0.80416 l -0.0098,0.16657 -0.101303,0.10816 c -0.23565,0.25153 -0.757423,0.58115 -0.918933,0.5805 -0.0066,0 -0.05819,0.0132 -0.115236,0.0301 -0.05704,0.0166 -0.167116,0.0389 -0.2446,0.0497 l -0.140807,0.0194 -1.7612507,-5.3e-4 c -2.1947197,-7.2e-4 -7.9545777,-0.0206 -8.2608937,-0.0285 l -0.227258,-0.006 -0.125235,-0.0379 c -0.23688,-0.0716 -0.334904,-0.17123 -0.384211,-0.39052 l -0.02786,-0.12359 0.02016,-0.4559 c 0.04229,-0.95423 0.04704,-5.48366 0.0066,-5.72585 -0.07672,-0.45262 -0.08868,-0.48729 -0.24024,-0.69401 -0.141792,-0.19355 -0.339511,-0.32489 -0.5828,-0.38725 l -0.106876,-0.0275 -0.165772,0.0265 c -0.09114,0.0147 -0.196474,0.0354 -0.233963,0.0464 -0.03754,0.0118 -0.132774,0.0359 -0.211538,0.0551 l -0.143266,0.035 0.02967,0.0147 0.02967,0.0147 -0.04164,-0.009 c -0.04245,-0.009 -0.408373,0.0996 -0.560637,0.16694 -0.252174,0.11154 -0.558359,0.24998 -0.568162,0.25693 -0.03885,0.0276 -0.430634,0.1449 -0.602225,0.18018 l -0.204538,0.0422 -0.306808,1.7e-4 -0.306792,1.7e-4 -0.136382,-0.0282 c -0.424617,-0.088 -0.766389,-0.26396 -0.924407,-0.47588 -0.100155,-0.13446 -0.17687,-0.29458 -0.190017,-0.39708 -0.0033,-0.0307 -0.0177,-0.11139 -0.03065,-0.17945 -0.01311,-0.068 -0.03426,-0.221 -0.04721,-0.34 -0.01311,-0.11903 -0.03459,-0.272 -0.04787,-0.33999 -0.06344,-0.32594 -0.04655,-2.04581 0.02246,-2.29482 0.03639,-0.13153 0.156215,-0.32367 0.274532,-0.44061 0.03655,-0.0362 0.06163,-0.07 0.0559,-0.0754 -0.0066,-0.006 -0.005,-0.007 0.0016,-0.004 0.0066,0.003 0.08491,-0.0454 0.173951,-0.10801 0.317037,-0.22234 0.6146,-0.33104 1.166206,-0.42599 0.103925,-0.0179 0.590635,-0.007 0.631811,0.0147 0.01475,0.007 0.07836,0.0269 0.140808,0.0426 0.167215,0.042 0.456631,0.16149 0.587897,0.24263 0.03721,0.0229 0.0777,0.0375 0.08999,0.0323 0.01148,-0.006 0.01639,-0.003 0.0082,0.006 -0.0082,0.009 0.04934,0.0523 0.127203,0.0968 0.07786,0.0445 0.148838,0.0898 0.157854,0.10052 0.0672,0.0791 0.532919,0.28905 0.790305,0.3563 l 0.170444,0.0445 0.173591,-0.002 0.173591,-0.002 0.167296,-0.0528 c 0.181082,-0.0572 0.376867,-0.17368 0.430748,-0.25647 0.01738,-0.0267 0.03803,-0.0488 0.0459,-0.0488 0.03688,0 0.142609,-0.25345 0.183819,-0.44044 l 0.02722,-0.12359 0.005,-3.20681 c 0.0033,-1.76375 0.0098,-3.26592 0.01639,-3.33816 l 0.0098,-0.13138 0.05672,-0.0849 c 0.0736,-0.11051 0.196326,-0.19186 0.354788,-0.23539 l 0.127201,-0.035 2.090795,-0.003 c 1.14993,-0.002 2.648139,0.002 3.329356,0.007 0.681201,0.006 1.918646,0.006 2.7498327,3e-5 l 1.5112737,-0.0118 0.306808,-0.0245 c 0.168739,-0.0132 0.32725,-0.0303 0.352247,-0.0375 0.02491,-0.007 0.09655,-0.0253 0.159002,-0.0403 0.188229,-0.0451 0.484382,-0.19046 0.454663,-0.22316 -0.0082,-0.009 -2.29e-4,-0.0118 0.01639,-0.007 0.107531,0.0281 0.385605,-0.43285 0.297367,-0.49285 -0.0082,-0.006 -0.01918,-0.0259 -0.02327,-0.0444 -0.0182,-0.081 -0.254878,-0.28664 -0.305414,-0.2654 -0.01475,0.006 -0.02,0.004 -0.01148,-0.006 0.0341,-0.0376 -0.563688,-0.26765 -0.626649,-0.24118 -0.01312,0.006 -0.0182,0.003 -0.0098,-0.006 0.0082,-0.009 -0.02082,-0.0276 -0.06425,-0.0416 -0.184951,-0.0596 -0.415323,-0.28115 -0.457237,-0.43953 -0.0082,-0.0309 -0.02229,-0.063 -0.03131,-0.0716 -0.06606,-0.0619 -0.01311,-0.46707 0.08819,-0.66828 0.132447,-0.26437 0.535706,-0.62754 0.86266,-0.77687 0.05098,-0.0232 0.08524,-0.0478 0.07639,-0.0545 -0.0082,-0.007 -0.005,-0.007 0.0082,-0.003 0.03181,0.0118 0.17328,-0.0575 0.150806,-0.0744 -0.0098,-0.007 -0.0033,-0.007 0.01147,-0.001 0.01639,0.006 0.0759,-0.007 0.136382,-0.0298 0.05917,-0.0226 0.122775,-0.0436 0.141463,-0.0466 0.01868,-0.003 0.09032,-0.0199 0.159001,-0.0375 0.248879,-0.0639 0.928966,-0.15058 1.670357,-0.21293 l 0.318175,-0.0267 0.693127,7.2e-4 0.693152,7.2e-4 0.261356,0.025 c 0.381257,0.0364 0.683526,0.0763 1.012893,0.13358 0.175756,0.0306 0.491351,0.11183 0.619635,0.1596 0.0708,0.0263 0.149325,0.0556 0.174388,0.0648 0.2348,0.0868 0.71566403,0.43491 0.71566403,0.51794 0,0.009 0.0098,0.0168 0.02275,0.0168 0.0131,0 0.02286,0.009 0.02297,0.0192 0,0.0103 0.0131,0.0367 0.02933,0.0579 0.03184,0.0422 0.08327,0.13828 0.132447,0.24728 0.0189,0.0417 0.03117,0.13769 0.03067,0.23954 l -5.58e-4,0.17 -0.03691,0.0695 c -0.05588,0.10507 -0.09459,0.16104 -0.120325,0.17362 -0.0131,0.006 -0.01478,0.0118 -0.0066,0.0118 0.03446,5.3e-4 -0.196316,0.19733 -0.382202,0.32607 -0.10540403,0.073 -0.18388303,0.13843 -0.17452803,0.14549 0.0098,0.007 0.0066,0.009 -0.0066,0.004 -0.06082,-0.0234 -0.622256,0.36853 -0.675251,0.47147 -0.01146,0.0234 -0.02967,0.0425 -0.03915,0.0425 -0.06297,0 -0.124575,0.25244 -0.08671,0.35545 0.03709,0.10081 0.159,0.22565 0.202476,0.20735 0.0098,-0.004 0.0131,0.004 0.005,0.0198 -0.0082,0.0153 -0.0082,0.0237 8.36e-4,0.0184 0.0082,-0.006 0.05167,0.0132 0.09589,0.0406 0.0441,0.0275 0.118023,0.063 0.164152,0.0789 0.04624,0.016 0.089,0.0335 0.09523,0.0389 0.02003,0.0175 0.40322203,0.13682 0.43955203,0.13682 0.0192,0 0.0408,0.006 0.04772,0.0147 0.0066,0.007 0.06643,0.019 0.131959,0.0251 0.06552,0.006 0.139822,0.0163 0.164886,0.0228 0.08069,0.0207 1.455082,0.0304 5.68133697,0.0398 2.41639,0.006 4.20228,0.0153 4.29522,0.0239 0.0875,0.009 0.1744,0.0162 0.19317,0.0179 0.1549,0.0147 0.38297,0.16644 0.4761496,0.31717 l 0.0353,0.0569 v 2.31044 c 0,1.27075 -0.005,2.79727 -0.0131,3.39226 l -0.0131,1.08181 -0.0292,0.11595 c -0.0693,0.27627 -0.3031696,0.56239 -0.6103596,0.74695 -0.0405,0.0244 -0.067,0.0517 -0.059,0.0605 0.008,0.0103 0.003,0.0118 -0.0131,0.004 -0.0164,-0.007 -0.0487,0.001 -0.0774,0.0192 -0.0574,0.0359 -0.33882,0.13725 -0.50397,0.18141 l -0.11359,0.0304 -0.23862,-5.3e-4 -0.23863,-5.3e-4 -0.15195,-0.0482 c -0.23948,-0.076 -0.34218,-0.13182 -0.76745,-0.41716 -0.21927,-0.1471 -0.4106,-0.26749 -0.42518,-0.2675 -0.0148,-1e-5 -0.03,-0.006 -0.0341,-0.0132 -0.0148,-0.0248 -0.23581,-0.12079 -0.40528,-0.1758 -0.5395,-0.17494 -0.99047,-0.13034 -1.36073,0.13476 l -0.15753,0.11271 -0.096,0.13682 c -0.0528,0.0752 -0.10491,0.15068 -0.11573,0.16768 -0.0381,0.06 -0.11081,0.22849 -0.11081,0.25723 0,0.016 -0.01,0.0412 -0.0216,0.056 -0.0115,0.0147 -0.0329,0.0685 -0.0467,0.11962 -0.0131,0.051 -0.0346,0.12756 -0.0464,0.17 -0.0977,0.35176 -0.13622,0.7063 -0.15065,1.39091 l -0.0114,0.57181 0.0272,0.15455 c 0.0593,0.33682 0.23592,0.69884 0.36811,0.75497 0.0226,0.0103 0.0412,0.0256 0.0412,0.0356 0,0.0246 0.2245,0.15273 0.26295,0.15017 0.0169,-0.001 0.0285,0.004 0.0259,0.0132 -0.007,0.0195 0.25856,0.11286 0.41564,0.14636 l 0.12507,0.0266 0.24999,-1.6e-4 c 0.49989,-3.5e-4 0.84709,-0.1111 1.67378,-0.53432 0.14622,-0.0748 0.27157,-0.13608 0.27858,-0.13608 0.007,0 0.0628,-0.021 0.12409,-0.0466 0.70209,-0.29376 1.46508,-0.0951 1.90045,0.49476 0.0471,0.0638 0.0995,0.13432 0.11672,0.15692 0.0172,0.0226 0.0312,0.0542 0.0312,0.0704 0,0.0161 0.008,0.0358 0.0192,0.0439 0.0233,0.0178 0.0805,0.1994 0.1183396,0.37594 l 0.0277,0.12946 -0.0164,3.14691 c -0.0147,2.98433 -0.022,3.27271 -0.0808,3.37777 -0.0665,0.11903 -0.2531096,0.24201 -0.4004396,0.26406 -0.0362,0.006 -0.0915,0.0159 -0.12278,0.0231 -0.0964,0.0223 -0.32871,0.0232 -3.44298,0.0147 z"
       id="path5636" /><path
       style="fill:#1a1a1a;stroke-width:0.0179434"
       d="m 5.3805094,158.62688 c -3.44909,-0.01 -6.29773597,-0.0361 -6.508026,-0.059 -0.167435,-0.0183 -0.537341,-0.0968 -0.600232,-0.12729 -0.02223,-0.0114 -0.0555,-0.0156 -0.07384,-0.0114 l -0.03342,0.009 0.01788,-0.02 0.01787,-0.02 -0.04057,0.0114 c -0.02238,0.006 -0.0342,0.006 -0.02642,8.6e-4 0.0078,-0.006 -0.06031,-0.0483 -0.15155,-0.0955 -0.09124,-0.047 -0.209374,-0.11863 -0.262719,-0.15899 -0.05331,-0.0404 -0.104919,-0.0716 -0.11471,-0.0693 -0.0093,0.003 -0.01244,-0.001 -0.0062,-0.01 0.0062,-0.007 -0.0062,-0.0303 -0.03,-0.0506 -0.02317,-0.0205 -0.0858,-0.0972 -0.13927,-0.17071 l -0.09715,-0.13367 -0.02113,-0.10371 c -0.05627,-0.27493 0.09062,-0.47463 0.567155,-0.77178 0.119997,-0.0747 0.215388,-0.14211 0.212125,-0.14966 -0.0031,-0.007 0.0031,-0.01 0.01243,-0.006 0.05518,0.0236 0.42748,-0.30184 0.537715,-0.46998 0.110516,-0.16852 0.116111,-0.18241 0.128546,-0.31543 l 0.01243,-0.1307 -0.04927,-0.1013 c -0.07958,-0.16326 -0.300162,-0.3604 -0.463432,-0.41413 -0.0415,-0.0142 -0.07539,-0.03 -0.07539,-0.0364 0,-0.0219 -0.481852,-0.17695 -0.721923,-0.23241 -0.190083,-0.0439 -0.305804,-0.0665 -0.38789,-0.0757 -0.04741,-0.006 -0.105542,-0.0154 -0.129324,-0.0222 -0.03902,-0.0114 -0.134141,-0.0222 -0.657261,-0.0753 -0.192134,-0.0195 -1.207552,-0.01 -1.433057,0.0128 -0.083,0.009 -0.252677,0.0256 -0.377135,0.0378 -0.124504,0.0128 -0.303846,0.0324 -0.398663,0.0447 -0.09481,0.0128 -0.225739,0.0293 -0.290929,0.0375 -0.06513,0.009 -0.152483,0.0216 -0.193938,0.0297 -0.04151,0.009 -0.138494,0.0256 -0.215496,0.0389 -0.280485,0.0486 -0.763207,0.24506 -0.720385,0.2931 0.0062,0.007 -0.0031,0.0128 -0.02161,0.0128 -0.01835,0 -0.06046,0.0259 -0.09342,0.0574 -0.05254,0.0503 -0.08036,0.0891 -0.157039,0.21901 -0.0093,0.0165 -0.02347,0.0568 -0.03062,0.0896 -0.0078,0.0328 -0.01818,0.0835 -0.02472,0.11266 -0.01243,0.0524 0.03605,0.24982 0.08114,0.33562 0.09093,0.17281 0.277702,0.41088 0.322451,0.41088 0.01088,0 0.01927,0.01 0.01927,0.0213 0,0.0114 0.01243,0.0303 0.0272,0.0411 0.01554,0.0114 0.04445,0.0385 0.0656,0.0614 0.02161,0.0233 0.04881,0.0371 0.06233,0.0312 0.01398,-0.006 0.01786,-0.003 0.0093,0.006 -0.0078,0.009 0.05674,0.0823 0.143778,0.16292 0.36453,0.33737 0.477065,0.52605 0.463682,0.77743 l -0.0093,0.16103 -0.09606,0.10456 c -0.223454,0.24318 -0.718222,0.56184 -0.871374,0.56122 -0.0062,0 -0.05518,0.0128 -0.109271,0.0291 -0.05409,0.016 -0.158467,0.0376 -0.231942,0.048 l -0.13352,0.0187 -1.6700977,-4.8e-4 c -2.0811337,-6.8e-4 -7.5428927,-0.0199 -7.8333547,-0.0276 l -0.215498,-0.006 -0.118752,-0.0366 c -0.224614,-0.0692 -0.317564,-0.16558 -0.364319,-0.37757 l -0.02642,-0.11948 0.01911,-0.44075 c 0.04011,-0.92251 0.04461,-5.30137 0.0062,-5.53552 -0.07274,-0.43757 -0.08409,-0.47108 -0.227807,-0.67093 -0.134452,-0.18712 -0.321938,-0.3141 -0.552637,-0.37438 l -0.101343,-0.0266 -0.157193,0.0256 c -0.08642,0.0142 -0.186307,0.0343 -0.221854,0.0449 -0.03559,0.0114 -0.125904,0.0347 -0.20059,0.0533 l -0.13585,0.0338 0.02813,0.0142 0.02814,0.0142 -0.03948,-0.009 c -0.04026,-0.009 -0.387238,0.0963 -0.531622,0.16139 -0.239122,0.10783 -0.529461,0.24167 -0.538757,0.2484 -0.03685,0.0267 -0.408346,0.14007 -0.571056,0.17418 l -0.193953,0.0408 -0.29093,1.7e-4 -0.290915,1.5e-4 -0.129321,-0.0273 c -0.402644,-0.0851 -0.726727,-0.25518 -0.876567,-0.46006 -0.09497,-0.12999 -0.167715,-0.28479 -0.180182,-0.38388 -0.0031,-0.0297 -0.01679,-0.10769 -0.02906,-0.17348 -0.01243,-0.0658 -0.03249,-0.21366 -0.04476,-0.3287 -0.01243,-0.11508 -0.0328,-0.26296 -0.04538,-0.32869 -0.06015,-0.31511 -0.04414,-1.9778 0.02131,-2.21854 0.0345,-0.12715 0.14813,-0.3129 0.260323,-0.42596 0.03466,-0.035 0.05845,-0.0676 0.053,-0.0729 -0.0062,-0.006 -0.0047,-0.007 0.0015,-0.004 0.0062,0.003 0.08052,-0.0439 0.164949,-0.10443 0.300629,-0.21495 0.582791,-0.32003 1.10585,-0.41182 0.09855,-0.0173 0.560066,-0.007 0.599112,0.0142 0.01398,0.007 0.0743,0.026 0.13352,0.0412 0.15856,0.0406 0.432998,0.15612 0.557471,0.23457 0.03528,0.0222 0.07368,0.0362 0.08533,0.0312 0.01089,-0.006 0.01555,-0.003 0.0078,0.006 -0.0078,0.009 0.04678,0.0506 0.120618,0.0936 0.07383,0.0431 0.141136,0.0868 0.149684,0.0972 0.06373,0.0764 0.505338,0.27944 0.749404,0.34446 l 0.161622,0.043 0.164607,-0.001 0.164608,-10e-4 0.158637,-0.051 c 0.17171,-0.0553 0.357363,-0.16791 0.408455,-0.24795 0.01648,-0.0259 0.03606,-0.0472 0.04351,-0.0472 0.03497,0 0.13523,-0.24503 0.174306,-0.42581 l 0.02581,-0.11948 0.0047,-3.10021 c 0.0031,-1.70511 0.0093,-3.15735 0.01554,-3.22719 l 0.0093,-0.12701 0.05378,-0.0821 c 0.06979,-0.10684 0.186165,-0.18549 0.336425,-0.22757 l 0.120619,-0.0338 1.982586,-0.003 c 1.090417,-10e-4 2.511087,0.001 3.157048,0.007 0.645945,0.006 1.819347,0.006 2.6075177,3e-5 l 1.4330567,-0.0114 0.29093,-0.0237 c 0.160006,-0.0128 0.310313,-0.0293 0.334017,-0.0362 0.02363,-0.007 0.09155,-0.0244 0.150773,-0.0389 0.178487,-0.0436 0.459313,-0.18413 0.431132,-0.21574 -0.0078,-0.009 -2.17e-4,-0.0114 0.01555,-0.007 0.101966,0.0271 0.365647,-0.41846 0.281976,-0.47647 -0.0078,-0.006 -0.01818,-0.025 -0.02207,-0.0429 -0.01725,-0.0783 -0.241687,-0.2771 -0.289608,-0.25657 -0.01399,0.006 -0.01896,0.004 -0.01089,-0.006 0.03233,-0.0364 -0.534513,-0.25875 -0.594215,-0.23316 -0.01243,0.006 -0.01725,0.003 -0.0093,-0.006 0.0078,-0.009 -0.01974,-0.0267 -0.06093,-0.0402 -0.175379,-0.0577 -0.393829,-0.2718 -0.433573,-0.42492 -0.0078,-0.0298 -0.02114,-0.061 -0.02969,-0.0692 -0.06264,-0.0598 -0.01243,-0.45155 0.08363,-0.64607 0.125591,-0.25558 0.50798,-0.60667 0.818012,-0.75104 0.04834,-0.0224 0.08083,-0.0462 0.07243,-0.0527 -0.0078,-0.007 -0.0047,-0.007 0.0078,-0.003 0.03016,0.0114 0.164311,-0.0555 0.143001,-0.0719 -0.0093,-0.007 -0.0031,-0.007 0.01088,-0.001 0.01554,0.006 0.07197,-0.007 0.129324,-0.0288 0.05611,-0.0219 0.11642,-0.0422 0.13414,-0.045 0.01772,-0.003 0.08565,-0.0192 0.150774,-0.0362 0.235998,-0.0618 0.880887,-0.14557 1.583908,-0.20585 l 0.301701,-0.0259 0.657263,7.2e-4 0.657276,6.7e-4 0.247827,0.0242 c 0.361528,0.0352 0.648154,0.0737 0.96047,0.12915 0.16666,0.0296 0.465921,0.10811 0.587564,0.15429 0.06715,0.0254 0.141603,0.0537 0.165369,0.0627 0.222646,0.084 0.67861903,0.42045 0.67861903,0.50072 0,0.009 0.0093,0.0162 0.02161,0.0162 0.01243,0 0.02161,0.009 0.02176,0.0186 0,0.01 0.01243,0.0355 0.02783,0.056 0.03016,0.0408 0.07896,0.13369 0.125592,0.23906 0.01788,0.0403 0.02954,0.13312 0.02906,0.23159 l -6.13e-4,0.16434 -0.03497,0.0672 c -0.05299,0.10157 -0.08969,0.15569 -0.114089,0.16785 -0.01243,0.006 -0.01399,0.0114 -0.0062,0.0114 0.03264,4.8e-4 -0.18615103,0.19077 -0.36241603,0.31524 -0.09995,0.0706 -0.174368,0.13383 -0.165492,0.14065 0.0093,0.007 0.0062,0.009 -0.0062,0.004 -0.05767,-0.0226 -0.590051,0.35628 -0.640303,0.4558 -0.01087,0.0226 -0.02813,0.041 -0.03715,0.041 -0.05969,0 -0.118132,0.24404 -0.08222,0.34363 0.03513,0.0975 0.150773,0.21815 0.191994,0.20046 0.0093,-0.004 0.01243,0.004 0.0047,0.0192 -0.0078,0.0148 -0.0078,0.0229 8.37e-4,0.0178 0.0078,-0.006 0.04896,0.0128 0.09093,0.0392 0.04182,0.0266 0.111914,0.061 0.155653,0.0763 0.04383,0.0155 0.0844,0.0324 0.09031,0.0376 0.01896,0.0169 0.382356,0.13226 0.416801,0.13226 0.01818,0 0.03871,0.006 0.04524,0.0142 0.0062,0.007 0.06295,0.0183 0.125126,0.0243 0.06217,0.006 0.13258703,0.0158 0.15635303,0.022 0.07647,0.02 1.379775,0.0294 5.38731097,0.0385 2.29132,0.006 3.98478,0.0148 4.07291,0.0232 0.083,0.009 0.16539,0.0156 0.18317,0.0173 0.14689,0.0142 0.36317,0.16091 0.45152,0.30663 l 0.0334,0.055 v 2.23364 c 0,1.2285 -0.006,2.70428 -0.0124,3.2795 l -0.0125,1.04585 -0.0277,0.11209 c -0.0658,0.26709 -0.28749,0.54369 -0.57877,0.72212 -0.0384,0.0236 -0.0636,0.05 -0.056,0.0585 0.008,0.01 0.003,0.0114 -0.0124,0.004 -0.0156,-0.007 -0.0461,0.001 -0.0734,0.0186 -0.0544,0.0347 -0.32129,0.1327 -0.47788,0.17539 l -0.10772,0.0294 -0.22627,-4.8e-4 -0.22627,-4.8e-4 -0.14409,-0.0466 c -0.22709,-0.0734 -0.32447,-0.12744 -0.72773,-0.40329 -0.20793,-0.14221 -0.38936,-0.25859 -0.40318,-0.25861 -0.014,-1e-5 -0.0284,-0.006 -0.0322,-0.0128 -0.014,-0.024 -0.22362,-0.11678 -0.3843,-0.16996 -0.51158,-0.16913 -0.93921,-0.12601 -1.29031,0.13028 l -0.14937,0.10896 -0.0911,0.13227 c -0.0501,0.0727 -0.0995,0.14567 -0.10973,0.16211 -0.0362,0.058 -0.10508,0.22089 -0.10508,0.24868 0,0.0155 -0.009,0.0398 -0.0206,0.0541 -0.0109,0.0142 -0.0312,0.0662 -0.0443,0.11564 -0.0125,0.0493 -0.0328,0.12331 -0.044,0.16435 -0.0926,0.34006 -0.12915,0.68282 -0.14283,1.34467 l -0.0109,0.5528 0.0258,0.14941 c 0.0563,0.32562 0.22371,0.67561 0.34905,0.72988 0.0214,0.01 0.039,0.0247 0.039,0.0344 0,0.0237 0.21287,0.14765 0.24934,0.14518 0.016,-0.001 0.027,0.004 0.0245,0.0128 -0.006,0.0189 0.24516,0.10911 0.39412,0.1415 l 0.1186,0.0257 0.23705,-1.5e-4 c 0.47402,-3.4e-4 0.80325,-0.10741 1.58716,-0.51656 0.13865,-0.0723 0.25751,-0.13156 0.26416,-0.13156 0.006,0 0.0595,-0.0203 0.11767,-0.045 0.66575,-0.28399 1.38925,-0.0919 1.80209,0.47831 0.0446,0.0617 0.0944,0.12985 0.11067,0.1517 0.0163,0.0219 0.0296,0.0524 0.0296,0.068 0,0.0156 0.008,0.0347 0.0182,0.0425 0.0221,0.0172 0.0763,0.19277 0.11223,0.36344 l 0.0263,0.12516 -0.0156,3.04231 c -0.014,2.88512 -0.0208,3.16391 -0.0766,3.26548 -0.0631,0.11507 -0.24001,0.23397 -0.37971,0.25528 -0.0344,0.006 -0.0867,0.0153 -0.11642,0.0223 -0.0914,0.0216 -0.3117,0.0225 -3.2648,0.0142 z"
       id="path5638" /><text
       xml:space="preserve"
       style="font-style:normal;font-variant:normal;font-weight:normal;font-stretch:normal;font-size:60.0464px;font-family:Rockwell;-inkscape-font-specification:'Rockwell, Normal';font-variant-ligatures:normal;font-variant-caps:normal;font-variant-numeric:normal;font-variant-east-asian:normal;fill:#00008f;fill-opacity:1;fill-rule:evenodd;stroke:#b70000;stroke-width:0;stroke-linecap:round;stroke-linejoin:round;stroke-dasharray:none;stroke-opacity:1"
       x="27.772863"
       y="90.963501"
       id="text5744"
       transform="scale(1.04093,0.96067938)"><tspan
         sodipodi:role="line"
         id="tspan5742"
         style="font-style:normal;font-variant:normal;font-weight:normal;font-stretch:normal;font-size:60.0464px;font-family:Rockwell;-inkscape-font-specification:'Rockwell, Normal';font-variant-ligatures:normal;font-variant-caps:normal;font-variant-numeric:normal;font-variant-east-asian:normal;fill:#00008f;stroke-width:0;stroke-dasharray:none;fill-opacity:1"
         x="27.772863"
         y="90.963501">IT</tspan></text><rect
       style="font-variation-settings:'wght' 800;fill:#1a1a1a;fill-opacity:1;fill-rule:evenodd;stroke:#b70000;stroke-width:0;stroke-linecap:round;stroke-linejoin:round;stroke-dasharray:none;stroke-opacity:1"
       id="rect21421"
       width="7.3084812"
       height="18.552298"
       x="87.903725"
       y="30.959972" /><rect
       style="font-variation-settings:'wght' 800;fill:#1a1a1a;fill-opacity:1;fill-rule:evenodd;stroke:#b70000;stroke-width:0;stroke-linecap:round;stroke-linejoin:round;stroke-dasharray:none;stroke-opacity:1"
       id="rect21423"
       width="7.3084812"
       height="18.552298"
       x="90.515259"
       y="-80.104263"
       transform="rotate(60)" /><rect
       style="font-variation-settings:'wght' 800;fill:#1a1a1a;fill-opacity:1;fill-rule:evenodd;stroke:#b70000;stroke-width:0;stroke-linecap:round;stroke-linejoin:round;stroke-dasharray:none;stroke-opacity:1"
       id="rect21425"
       width="7.3084812"
       height="18.552298"
       x="58.226227"
       y="-119.10532"
       transform="rotate(90)" /></g></svg>
