<?xml version="1.0" encoding="UTF-8" standalone="no"?>
<!-- Created with Inkscape (http://www.inkscape.org/) -->

<svg
   version="1.1"
   id="svg6624"
   width="225"
   height="225"
   viewBox="0 0 225 225"
   sodipodi:docname="mantain.svg"
   inkscape:version="1.2.2 (732a01da63, 2022-12-09)"
   xmlns:inkscape="http://www.inkscape.org/namespaces/inkscape"
   xmlns:sodipodi="http://sodipodi.sourceforge.net/DTD/sodipodi-0.dtd"
   xmlns="http://www.w3.org/2000/svg"
   xmlns:svg="http://www.w3.org/2000/svg">
  <defs
     id="defs6628" />
  <sodipodi:namedview
     id="namedview6626"
     pagecolor="#ffffff"
     bordercolor="#000000"
     borderopacity="0.25"
     inkscape:showpageshadow="2"
     inkscape:pageopacity="0.0"
     inkscape:pagecheckerboard="0"
     inkscape:deskcolor="#d1d1d1"
     showgrid="false"
     inkscape:zoom="2.3333333"
     inkscape:cx="84.642857"
     inkscape:cy="112.71429"
     inkscape:window-width="1366"
     inkscape:window-height="705"
     inkscape:window-x="-8"
     inkscape:window-y="-8"
     inkscape:window-maximized="1"
     inkscape:current-layer="g6630" />
  <g
     inkscape:groupmode="layer"
     inkscape:label="Image"
     id="g6630">
    <path
       style="fill:#666666"
       d="m 98.5,223.80505 c -3.274252,-1.85671 -3.468715,-2.75445 -3.484687,-16.08717 -0.02183,-18.22477 -1.320572,-20.66401 -13.428827,-25.22155 -9.140443,-3.44045 -10.889967,-2.76071 -22.11019,8.59046 -9.621454,9.73375 -12.180039,11.36083 -15.726296,10.00082 -3.121326,-1.19704 -18.58818,-16.53179 -19.746155,-19.5775 -0.521257,-1.37101 -0.668375,-3.28415 -0.326928,-4.25143 0.341447,-0.96727 5.020335,-6.27191 10.39753,-11.78809 5.377195,-5.51617 10.077992,-11.22977 10.446215,-12.69689 0.744854,-2.96774 -0.627502,-7.94574 -4.103342,-14.88421 -3.43938,-6.8657 -6.352957,-7.8862 -22.568449,-7.9048 -7.341879,-0.008 -13.8440042,-0.34592 -14.449167,-0.75 C 0.785126,127.48889 0,123.62419 0,112.5 0,101.37581 0.785126,97.511113 3.399704,95.765313 4.0048668,95.361235 10.575,95.023036 18,95.013759 35.218084,94.992247 37.176925,94.165515 41.726389,85 c 1.939464,-3.907313 3.235807,-8.05539 3.25,-10.399443 0.02186,-3.610156 -0.744361,-4.685863 -10.328268,-14.5 C 28.954588,54.270251 24.009059,48.687346 23.658056,47.694103 22.56192,44.592329 25.556297,39.766181 33.206628,32.30432 c 7.592519,-7.405473 11.471521,-9.708144 14.534688,-8.628146 0.967276,0.341037 6.587848,5.336468 12.490159,11.100956 L 70.96295,45.258019 75.731475,44.78399 c 6.082432,-0.604641 14.056986,-4.47195 16.709313,-8.103283 1.802554,-2.467899 2.092886,-4.524445 2.329386,-16.5 0.32806,-16.6119074 0.509616,-17.5315272 3.752902,-19.0092675 3.384084,-1.54189077 24.569764,-1.54189077 27.953844,0 3.24329,1.4777403 3.42485,2.3973601 3.75291,19.0092675 0.2365,11.975555 0.52683,14.032101 2.32938,16.5 2.65233,3.631333 10.62688,7.498642 16.70932,8.103283 l 4.76852,0.474029 10.95537,-10.795676 c 14.29949,-14.091045 13.88475,-14.072349 26.75117,-1.205933 12.8521,12.852105 12.86758,12.469463 -1.07692,26.620249 -9.91186,10.058479 -10.665,11.100394 -10.64306,14.723898 0.0142,2.344053 1.31054,6.49213 3.25,10.399443 4.54947,9.165515 6.50831,9.992247 23.72639,10.013759 7.425,0.0093 13.99513,0.347476 14.6003,0.751554 2.61457,1.7458 3.3997,5.610497 3.3997,16.734687 0,11.12419 -0.78513,14.98889 -3.3997,16.73469 -0.60517,0.40408 -7.07725,0.74158 -14.38242,0.75 -16.67509,0.0192 -19.10338,0.88244 -22.75531,8.08918 l -2.64578,5.22118 -5.40658,-5.40658 -5.40658,-5.40658 1.48082,-6.99094 C 178.80503,95.651517 161.24578,64.851037 132.19044,54.811711 126.53537,52.857745 123.48821,52.5 112.5,52.5 c -10.98821,0 -14.035369,0.357745 -19.690443,2.311711 -14.716282,5.084835 -28.048573,16.781479 -34.844028,30.569257 -8.859052,17.974752 -9.075606,36.330512 -0.638138,54.090342 6.67984,14.06024 20.303626,26.39358 34.814583,31.51694 8.426646,2.97518 26.787876,3.83834 34.858026,1.63867 l 5.5,-1.49913 5.25,5.15194 c 2.8875,2.83357 5.25,5.40397 5.25,5.71199 0,0.30802 -1.89079,1.44839 -4.20175,2.53416 -7.3393,3.44825 -8.25843,5.67842 -8.56961,20.79342 -0.33121,16.08783 -0.52392,17.03858 -3.75172,18.50926 -3.34203,1.52273 -25.28269,1.5043 -27.97692,-0.0235 z m 93,-13.97961 c -2.58055,-1.43704 -11.26166,-9.60293 -36.1844,-34.03689 -22.18018,-21.74519 -21.05029,-21.08438 -31.07033,-18.17147 -3.86212,1.12274 -8.04988,1.48652 -13.6993,1.19 -10.566416,-0.5546 -19.226851,-4.45339 -27.570389,-12.41178 -6.815968,-6.50133 -10.076418,-11.5969 -12.366459,-19.3268 -1.874585,-6.32756 -2.21431,-22.57644 -0.494244,-23.6395 0.648376,-0.40072 5.14653,3.49968 10.75,9.32145 10.172372,10.56865 13.378828,12.78517 20.035042,13.84954 C 113.2083,128.56818 127,116.5629 127,103.88062 127,96.982948 123.18566,90.619385 113.0271,80.569271 108.06219,75.65737 104,71.32612 104,70.944271 c 0,-2.311445 15.58438,-2.547168 23.0685,-0.348925 23.18217,6.809092 36.62029,30.982984 30.4315,54.743344 -0.825,3.16739 -1.5,6.53991 -1.5,7.4945 0,0.95569 12.32339,13.74323 27.42449,28.45738 28.8969,28.15646 30.464,30.15981 29.13478,37.24517 -0.74874,3.99115 -4.6211,8.92775 -8.62873,11.00018 -3.33056,1.7223 -9.5956,1.86822 -12.43054,0.28952 z m 9.55588,-9.66961 c 2.81084,-2.27608 3.03622,-7.29159 0.4558,-10.14292 -2.42031,-2.67442 -7.26018,-2.59781 -10.19723,0.1614 -6.56462,6.16715 2.71266,15.67308 9.74143,9.98152 z"
       id="path6751" />
  </g>
</svg>
