<?xml version="1.0" encoding="UTF-8" standalone="no"?>
<!-- Created with Inkscape (http://www.inkscape.org/) -->

<svg
   version="1.1"
   id="svg3045"
   width="1031"
   height="1030"
   viewBox="0 0 1031 1030"
   sodipodi:docname="point.svg"
   inkscape:version="1.2.2 (732a01da63, 2022-12-09)"
   xmlns:inkscape="http://www.inkscape.org/namespaces/inkscape"
   xmlns:sodipodi="http://sodipodi.sourceforge.net/DTD/sodipodi-0.dtd"
   xmlns="http://www.w3.org/2000/svg"
   xmlns:svg="http://www.w3.org/2000/svg">
  <defs
     id="defs3049" />
  <sodipodi:namedview
     id="namedview3047"
     pagecolor="#ffffff"
     bordercolor="#000000"
     borderopacity="0.25"
     inkscape:showpageshadow="2"
     inkscape:pageopacity="0.0"
     inkscape:pagecheckerboard="0"
     inkscape:deskcolor="#d1d1d1"
     showgrid="false"
     inkscape:zoom="0.50970874"
     inkscape:cx="389.4381"
     inkscape:cy="223.65714"
     inkscape:window-width="1366"
     inkscape:window-height="705"
     inkscape:window-x="-8"
     inkscape:window-y="-8"
     inkscape:window-maximized="1"
     inkscape:current-layer="g3051" />
  <g
     inkscape:groupmode="layer"
     inkscape:label="Image"
     id="g3051">
    <path
       style="fill:#808080;stroke-width:0.414684"
       d="m 501.09535,723.2344 c -6.35337,-0.41306 -10.95146,-0.9609 -18.9662,-2.25975 -3.47714,-0.56342 -6.89105,-1.10965 -7.58648,-1.21377 -0.69543,-0.10412 -4.48867,-0.93616 -8.42942,-1.84897 -11.95328,-2.76885 -28.00933,-7.9299 -33.57198,-10.79142 -0.61529,-0.31651 -1.35284,-0.57547 -1.639,-0.57547 -0.78126,0 -19.18316,-8.90993 -21.44465,-10.38319 -1.08056,-0.70393 -2.573,-1.52381 -3.31653,-1.82195 -0.74353,-0.29814 -1.35188,-0.70341 -1.35188,-0.90059 0,-0.19717 -0.20607,-0.3585 -0.45794,-0.3585 -0.25187,0 -1.34242,-0.58289 -2.42346,-1.2953 -3.82036,-2.51766 -4.25198,-2.78477 -4.49971,-2.78477 -0.13763,0 -1.61519,-0.96754 -3.28347,-2.15009 -1.66828,-1.18255 -3.52819,-2.45512 -4.13314,-2.82795 -0.60495,-0.37281 -1.36871,-0.92001 -1.69726,-1.21596 -0.32854,-0.29596 -1.25605,-0.98894 -2.06112,-1.53995 -1.61023,-1.10207 -1.51183,-1.02921 -4.20334,-3.11235 -7.82381,-6.05538 -10.64839,-8.52437 -18.86519,-16.49017 -5.02444,-4.87096 -10.95803,-11.18858 -14.02629,-14.93406 -0.57031,-0.69621 -2.08854,-2.53224 -3.37383,-4.08008 -10.22146,-12.30937 -22.24075,-32.1764 -28.73143,-47.491 -3.28882,-7.75989 -8.60045,-22.84563 -9.33775,-26.52046 -0.11256,-0.56101 -0.77943,-3.22326 -1.48194,-5.9161 -1.31214,-5.02965 -3.85181,-18.77274 -4.67469,-25.29644 -1.47979,-11.73156 -1.48695,-34.85436 -0.0143,-46.24224 1.9109,-14.77704 4.23502,-25.66383 8.21084,-38.46183 3.32627,-10.70711 8.6474,-23.63961 13.24468,-32.18994 3.94203,-7.33163 5.84412,-10.72868 7.46722,-13.33612 3.07822,-4.94506 4.92374,-7.66983 5.29131,-7.81224 0.19308,-0.0748 0.35104,-0.30075 0.35104,-0.50213 0,-0.50776 4.00641,-6.23471 4.81747,-6.88634 0.36391,-0.29237 0.66166,-0.71017 0.66166,-0.92845 0,-0.35905 4.54404,-6.27779 6.35332,-8.27536 0.40651,-0.44881 2.58875,-2.92745 4.84944,-5.5081 4.454,-5.08437 15.8725,-16.27209 20.6183,-20.20157 1.62267,-1.34355 3.13996,-2.65186 3.37177,-2.90736 1.64059,-1.80823 16.92105,-12.85511 22.23755,-16.07645 15.92678,-9.65023 27.99061,-15.51399 42.03679,-20.43244 3.82485,-1.33932 7.6655,-2.70097 8.53479,-3.02589 0.86928,-0.32492 1.58052,-0.47797 1.58052,-0.34011 0,0.13787 0.23707,0.0647 0.52684,-0.16267 0.43532,-0.34154 7.34106,-2.31953 9.58846,-2.74639 0.34771,-0.0661 1.67535,-0.4092 2.9503,-0.76258 7.17428,-1.98846 21.04514,-4.23873 32.87474,-5.33329 23.9305,-2.21421 51.3847,-0.10165 74.09441,5.70146 4.09634,1.04675 4.62934,1.19608 8.93539,2.5033 1.27495,0.38705 2.50775,0.7518 2.73956,0.81055 1.24392,0.3153 9.36097,3.10295 12.64413,4.3424 6.56272,2.47754 9.64648,3.80475 17.15036,7.3813 8.90168,4.24278 11.05237,5.41425 21.62498,11.77897 6.68877,4.02664 18.31613,12.56505 25.91972,19.03384 7.77389,6.61367 20.75836,19.84426 26.06301,26.55704 0.97531,1.23422 2.07454,2.61124 2.44272,3.06005 3.48045,4.2426 9.00595,11.8424 9.00595,12.38681 0,0.21857 0.147,0.4586 0.32667,0.53341 1.09651,0.4565 8.81024,13.48694 13.28846,22.44758 6.54234,13.09076 9.65463,20.84324 13.56508,33.78939 6.76436,22.39457 9.74193,47.89981 8.21654,70.38121 -0.65779,9.69453 -2.02492,20.21605 -3.63157,27.94848 -0.81597,3.92706 -1.57137,7.59913 -1.67871,8.16014 -0.10731,0.56101 -0.31834,1.38722 -0.46894,1.83603 -0.15059,0.44881 -0.3091,0.99962 -0.35222,1.22402 -0.6306,3.28097 -5.28546,17.60608 -7.55701,23.2564 -3.33943,8.3065 -4.52928,10.96443 -8.03648,17.95231 -2.29028,4.56325 -6.73927,12.66617 -7.67069,13.9706 -0.28184,0.39471 -1.68777,2.55368 -3.12429,4.79772 -1.43653,2.24403 -2.76632,4.14127 -2.95509,4.21607 -0.18877,0.0748 -0.34323,0.31237 -0.34323,0.52794 0,0.66914 -6.70862,9.72158 -10.63076,14.34486 -2.05328,2.42035 -4.0575,4.79126 -4.45382,5.26869 -6.79875,8.19018 -21.53037,21.98857 -30.85576,28.9011 -1.04314,0.77323 -2.36884,1.82088 -2.94599,2.3281 -0.57715,0.50721 -1.27896,0.92221 -1.55957,0.92221 -0.28061,0 -0.66188,0.24721 -0.84726,0.54937 -0.18537,0.30215 -1.38018,1.25107 -2.65513,2.10869 -1.27495,0.85764 -3.30572,2.26285 -4.51282,3.1227 -1.2071,0.85985 -2.31031,1.56337 -2.45158,1.56337 -0.14127,0 -0.8785,0.459 -1.6383,1.02002 -0.75979,0.561 -1.51843,1.02001 -1.68588,1.02001 -0.16744,0 -0.90818,0.41357 -1.6461,0.91904 -1.82293,1.24872 -2.83472,1.85267 -4.08122,2.43616 -0.57952,0.27129 -1.62267,0.88964 -2.31809,1.37414 -2.54702,1.77448 -14.66454,7.62391 -23.18091,11.19001 -8.02601,3.36078 -8.91245,3.67319 -20.23061,7.13025 -16.32057,4.98496 -33.29597,8.11563 -49.73359,9.17201 -7.27607,0.46764 -23.37002,0.45299 -30.76738,-0.028 z m 26.07096,-69.32989 c 3.67582,-0.22699 8.60703,-0.68922 10.95825,-1.02718 10.91121,-1.56834 26.49204,-5.76002 34.39209,-9.25243 1.05307,-0.46554 3.05263,-1.33092 4.44348,-1.92308 1.39087,-0.59216 3.9513,-1.79597 5.68987,-2.67513 1.73856,-0.87916 3.25586,-1.61629 3.37176,-1.63807 0.11591,-0.0218 0.87456,-0.44328 1.68589,-0.93668 0.81133,-0.4934 1.69642,-0.89778 1.96686,-0.89861 0.27045,-10e-4 0.55493,-0.14332 0.63221,-0.31663 0.0773,-0.1733 1.65778,-1.22097 3.51226,-2.32815 4.98464,-2.97599 11.66591,-7.6792 16.43737,-11.57092 4.49756,-3.66833 13.09857,-11.90994 16.22664,-15.5486 1.04314,-1.21341 2.47594,-2.86222 3.18401,-3.66401 2.13359,-2.41604 7.85695,-10.19481 10.37874,-14.10604 1.97204,-3.05857 7.5108,-12.72053 7.5108,-13.10203 0,-0.0622 0.69221,-1.54608 1.53824,-3.29765 0.84602,-1.75156 1.59491,-3.36826 1.66418,-3.59266 0.0693,-0.22441 0.80522,-2.15224 1.63546,-4.28408 5.09246,-13.07606 8.10165,-26.67699 9.11739,-41.2087 1.66689,-23.8473 -3.76482,-49.74877 -14.8424,-70.7771 -2.38554,-4.52842 -4.52938,-8.37601 -5.64567,-10.13237 -0.46362,-0.72946 -1.22227,-1.92965 -1.68589,-2.6671 -0.46362,-0.73745 -1.93836,-2.79796 -3.27722,-4.57891 -1.33885,-1.78095 -2.28717,-3.24393 -2.10736,-3.25107 0.17982,-0.007 0.0358,-0.23664 -0.31998,-0.51001 -0.3558,-0.27336 -1.52039,-1.59865 -2.588,-2.94507 -6.25629,-7.89022 -16.4666,-17.70977 -26.33203,-25.32427 -0.89206,-0.68852 -2.23832,-1.60022 -2.9917,-2.02601 -0.75338,-0.42577 -1.36978,-0.91816 -1.36978,-1.09418 0,-0.17602 -0.17351,-0.32004 -0.38557,-0.32004 -0.21206,0 -1.91925,-0.99944 -3.79376,-2.22098 -3.80161,-2.47736 -11.44907,-6.71556 -15.62981,-8.662 -15.92611,-7.41475 -31.14045,-11.58496 -49.73358,-13.63185 -5.71597,-0.62927 -22.60057,-0.63483 -28.02783,-0.009 -27.53257,3.17362 -50.00008,11.46448 -71.43362,26.3601 -7.62253,5.29741 -18.26177,14.91378 -24.4838,22.12989 -1.69517,1.96601 -3.99341,4.61578 -5.1072,5.88838 -1.11378,1.2726 -2.02505,2.46791 -2.02505,2.65622 0,0.18831 -0.47416,0.8374 -1.05368,1.44243 -0.57952,0.60502 -1.05368,1.20121 -1.05368,1.32485 0,0.12366 -0.99573,1.65405 -2.21272,3.40087 -2.46271,3.53487 -2.59274,3.74873 -6.12746,10.07817 -7.92583,14.19231 -13.14125,29.38304 -15.89918,46.3088 -1.43087,8.78141 -1.68606,23.80461 -0.59604,35.0886 1.06704,11.04601 4.5556,24.94928 8.89945,35.46768 0.70162,1.69894 1.32214,3.27258 1.37892,3.49699 0.93614,3.69936 10.44236,20.27983 15.26143,26.61851 1.23524,1.62476 2.24589,3.12419 2.24589,3.33205 0,0.20788 0.14336,0.43916 0.31856,0.51396 0.1752,0.0748 1.82305,1.97203 3.66189,4.21607 3.37145,4.11437 14.87636,15.51679 18.32123,18.15801 1.02317,0.78448 2.54047,1.98696 3.37176,2.67217 2.94797,2.42992 12.6005,8.92893 15.63073,10.52409 0.81133,0.4271 1.57012,0.89124 1.68621,1.03142 0.49003,0.59177 12.75223,6.56676 16.01558,7.80388 1.27495,0.48335 2.88707,1.13153 3.5825,1.44042 6.65631,2.95659 21.8274,6.94731 32.45328,8.53676 8.80445,1.317 20.64723,1.70382 31.55008,1.03053 z M 509.7355,585.49214 c -15.55483,-1.60502 -30.68965,-7.97699 -41.69668,-17.55488 -13.43134,-11.68742 -21.39087,-25.69593 -24.32469,-42.81063 -1.33265,-7.77418 -0.76003,-22.18114 1.1166,-28.09321 0.21369,-0.67321 0.87679,-2.77137 1.47355,-4.66257 1.11335,-3.52834 1.51076,-4.50381 3.62381,-8.89508 0.67262,-1.3978 1.22294,-2.63356 1.22294,-2.74613 0,-0.46791 5.51984,-8.67017 6.6009,-9.80867 0.42616,-0.44881 1.29354,-1.55629 1.9275,-2.46105 1.27864,-1.82484 9.38432,-9.57201 11.18599,-10.69126 0.63163,-0.39238 1.51044,-1.03109 1.9529,-1.41935 0.93221,-0.81801 8.93621,-5.55565 11.41818,-6.75852 5.24974,-2.54424 14.01324,-5.21102 21.28429,-6.47691 4.8333,-0.84147 16.76628,-0.95385 21.49502,-0.20243 8.40846,1.33615 18.24839,4.43037 24.44533,7.68697 3.41955,1.79705 9.17777,5.44718 10.41378,6.6013 0.51188,0.47797 1.09015,0.86903 1.28506,0.86903 0.19491,0 2.12034,1.60428 4.27874,3.56506 17.1424,15.5729 26.04496,39.11284 23.03174,60.90005 -1.14795,8.30033 -4.72946,19.65553 -7.57658,24.02157 -0.59776,0.91666 -1.08683,1.83381 -1.08683,2.03812 0,0.63886 -5.05465,7.90018 -7.13714,10.25293 -1.09245,1.23422 -2.35169,2.68169 -2.79831,3.21658 -2.04662,2.4511 -7.68772,7.37846 -11.61859,10.14856 -12.65286,8.91651 -28.20224,13.6974 -43.90093,13.49803 -2.82778,-0.0359 -5.80525,-0.13379 -6.61658,-0.21751 z"
       id="path3535" />
  </g>
</svg>
