<?xml version="1.0" encoding="UTF-8" standalone="no"?>
<!-- Created with Inkscape (http://www.inkscape.org/) -->

<svg
   version="1.1"
   id="svg2"
   width="573.71429"
   height="370.28574"
   viewBox="0 0 573.71429 370.28573"
   sodipodi:docname="safe_sever.svg"
   inkscape:version="1.2.2 (732a01da63, 2022-12-09)"
   xmlns:inkscape="http://www.inkscape.org/namespaces/inkscape"
   xmlns:sodipodi="http://sodipodi.sourceforge.net/DTD/sodipodi-0.dtd"
   xmlns="http://www.w3.org/2000/svg"
   xmlns:svg="http://www.w3.org/2000/svg">
  <defs
     id="defs6" />
  <sodipodi:namedview
     id="namedview4"
     pagecolor="#ffffff"
     bordercolor="#000000"
     borderopacity="0.25"
     inkscape:showpageshadow="2"
     inkscape:pageopacity="0.0"
     inkscape:pagecheckerboard="0"
     inkscape:deskcolor="#d1d1d1"
     showgrid="false"
     inkscape:zoom="0.875"
     inkscape:cx="300"
     inkscape:cy="220.57143"
     inkscape:window-width="1366"
     inkscape:window-height="705"
     inkscape:window-x="-8"
     inkscape:window-y="-8"
     inkscape:window-maximized="1"
     inkscape:current-layer="g8" />
  <g
     inkscape:groupmode="layer"
     inkscape:label="Image"
     id="g8"
     transform="translate(0,-51.428571)">
    <path
       style="fill:#4d4d4d"
       d="m 187.5,406.01249 c -5.99364,-3.94448 -6.5004,-6.24546 -6.49626,-29.49689 0.003,-19.0666 0.18444,-21.31197 1.95226,-24.21127 1.07168,-1.75761 3.18752,-4.00761 4.70186,-5 2.59811,-1.70261 8.25256,-1.82124 100.29774,-2.10436 66.74497,-0.20529 98.69917,0.0354 101.20166,0.76236 2.01149,0.58431 5.04899,2.64748 6.75,4.58482 L 399,354.06959 398.996,376.2848 c -0.003,20.26937 -0.17472,22.49562 -1.95578,25.41665 -4.07183,6.67803 2.38441,6.29924 -107.24082,6.29196 -97.18392,-0.006 -99.36358,-0.0487 -102.29966,-1.98092 z m 201.04545,-8.46704 C 390.9729,395.11801 391,394.88862 391,376.76796 c 0,-14.96523 -0.28527,-18.73023 -1.5567,-20.54545 L 387.88659,354 h -97.25216 c -82.41321,0 -97.54835,0.21657 -99.1933,1.41939 -1.8076,1.32175 -1.94113,2.77237 -1.94113,21.08835 0,19.46443 0.0246,19.68885 2.36078,21.58061 2.28775,1.85251 5.32873,1.91165 98.29546,1.91165 h 95.93467 z m -174.04584,-9.89784 c -3.69848,-1.6532 -5.32313,-3.54548 -6.46631,-7.5315 C 206.01897,373.09256 211.69009,365 218.62639,365 c 9.59057,0 15.51493,9.87359 10.75712,17.92791 -2.96212,5.01448 -9.55054,7.10367 -14.8839,4.7197 z M 221.5,376.9863 c 0,-1.77243 -0.60948,-2.57326 -2.12272,-2.78917 -2.54167,-0.36265 -3.93569,2.4251 -2.23649,4.47251 1.79296,2.16039 4.35921,1.16942 4.35921,-1.68334 z m 103.91639,5.53659 c -1.10799,-4.41458 0.89867,-5.52464 9.95605,-5.50758 4.47016,0.008 8.72609,0.39475 9.45764,0.85851 0.75546,0.47892 1.18747,2.09236 1,3.73469 L 345.5,384.5 l -9.72194,0.28587 c -9.68475,0.28478 -9.7244,0.27612 -10.36167,-2.26298 z m 26.81803,1.31153 C 351.55549,383.15549 351,381.8451 351,380.92244 c 0,-3.21539 2.503,-4.01301 11.65111,-3.71282 L 371.5,377.5 v 3.5 3.5 l -9.01558,0.28442 c -6.15705,0.19425 -9.40697,-0.10697 -10.25,-0.95 z M 190.64255,337.97179 c -1.5716,-0.47096 -3.75517,-1.66872 -4.85238,-2.66168 C 181.37572,331.31509 181,329.12992 181,307.45079 c 0,-23.08684 0.59739,-25.80278 6.4745,-29.43503 3.2129,-1.98568 4.74454,-2.0157 102.64353,-2.01202 96.80453,0.004 99.465,0.0544 102.58342,1.95578 6.05635,3.69277 6.43849,5.6049 6.10134,30.52936 l -0.30279,22.38403 -2.94315,3.06988 c -1.61874,1.68842 -4.54374,3.51451 -6.5,4.05796 -4.4329,1.23146 -194.30079,1.20375 -198.4143,-0.029 z M 389.4433,327.77749 C 390.71754,325.95826 391,322.16101 391,306.85007 v -18.70491 l -2.63486,-2.07258 C 385.74119,284.00858 385.33383,284 289.97593,284 c -92.78919,0 -95.82747,0.0592 -98.11515,1.91165 -2.33623,1.89176 -2.36078,2.11618 -2.36078,21.58061 0,18.31598 0.13353,19.7666 1.94113,21.08835 1.64495,1.20282 16.78009,1.41939 99.1933,1.41939 h 97.25216 z M 212.10598,316.43572 c -8.4687,-7.12594 -3.96983,-20.89027 6.82799,-20.89027 7.0226,0 12.06603,4.7686 12.06603,11.4085 0,9.98502 -11.46073,15.73647 -18.89402,9.48177 z m 9.71416,-9.19019 c 0.3975,-2.79927 -2.39694,-4.0973 -4.43443,-2.05982 -2.0009,2.00091 -0.70637,5.00211 1.99157,4.61716 1.32111,-0.1885 2.24361,-1.15423 2.44286,-2.55734 z M 326.75,314.9199 c -2.17414,-1.26632 -2.25858,-4.26846 -0.17857,-6.34847 1.15747,-1.15747 3.60736,-1.57143 9.3,-1.57143 8.15581,0 10.12857,0.87647 10.12857,4.5 0,1.155 -0.54,2.64 -1.2,3.3 -1.47673,1.47673 -15.55985,1.57028 -18.05,0.1199 z m 25.82143,-0.49133 C 351.70714,313.56429 351,312.24643 351,311.5 351,308.25059 354.02128,307 361.87143,307 370.32237,307 372,307.84357 372,312.09301 372,315.49102 370.63078,316 361.48964,316 c -5.34556,0 -7.77483,-0.42805 -8.91821,-1.57143 z M 130.53892,335.88765 C 102.43735,331.79357 78.766168,312.86307 68.158123,286 c -6.942644,-17.58107 -6.793601,-41.63176 0.367204,-59.25461 5.973811,-14.70164 18.802933,-29.69682 32.228553,-37.67001 8.56945,-5.08921 21.47314,-9.76752 29.4395,-10.67345 l 5.69338,-0.64745 0.62378,-5.62724 c 3.22888,-29.1286 13.03626,-51.76526 30.58682,-70.59818 12.66975,-13.595491 32.42274,-25.665501 49.85239,-30.462171 23.93825,-6.58784 50.48321,-4.4158 72.77771,5.95504 17.60193,8.18798 33.75373,21.99767 44.73364,38.247001 3.25892,4.82292 6.17586,8.64468 6.4821,8.49282 0.30624,-0.15186 3.27266,-1.69308 6.59204,-3.42492 11.65856,-6.08269 19.4193,-7.84039 34.46476,-7.80577 12.50932,0.0288 14.14293,0.25881 22.26121,3.13473 12.36982,4.38204 18.97437,8.58268 28.82633,18.33421 11.48083,11.36379 17.96622,22.74629 21.76473,38.19926 l 1.73364,7.05273 5.45705,1.6907 c 11.96515,3.70703 21.9177,9.93177 32.00014,20.01421 10.16512,10.16512 15.3892,18.54324 19.98012,32.0431 3.41535,10.04307 3.9635,31.66098 1.09084,43.02081 -3.89856,15.4167 -11.17181,28.01091 -22.24689,38.52226 -7.79016,7.39364 -10.53097,9.33968 -19.47802,13.8299 -12.52799,6.28736 -19.646,7.75711 -40.44133,8.35047 -16.55937,0.47249 -18.73455,0.34698 -20.25,-1.16847 -1.91284,-1.91285 -2.10153,-3.36632 -0.72114,-5.55497 0.76616,-1.21475 4.70915,-1.61715 20.73469,-2.11607 16.78534,-0.52256 20.77512,-0.9538 26.28863,-2.84145 23.94773,-8.19892 41.10145,-26.21857 47.63771,-50.04248 2.76923,-10.0935 2.53904,-28.33265 -0.47957,-38 -4.05711,-12.99319 -8.69421,-20.59804 -18.62638,-30.54726 -7.34559,-7.3582 -10.61865,-9.82251 -17.53176,-13.19976 -4.675,-2.28387 -10.75,-4.68406 -13.5,-5.33374 -6.50367,-1.53648 -7.28207,-2.37303 -8.54004,-9.17803 -6.75968,-36.56644 -40.55932,-62.64516 -74.86028,-57.75979 -9.71086,1.38308 -20.07346,5.05405 -26.71514,9.46387 -8.03674,5.3361 -9.28014,4.98007 -14.65177,-4.19529 C 318.57491,103.77483 297.25002,87.167109 271.5,79.341019 c -8.29226,-2.52023 -10.33683,-2.73533 -26,-2.73533 -15.66677,0 -17.70583,0.21464 -26,2.73689 -22.61804,6.87812 -39.92337,18.80036 -53.56284,36.901301 -12.86227,17.06952 -19.82959,36.03636 -21.53464,58.62278 -0.3818,5.05756 -0.97876,9.37144 -1.32659,9.58641 -0.34782,0.21497 -4.40555,0.90747 -9.01716,1.53888 -32.87175,4.50077 -57.062479,28.47366 -62.059881,61.50103 -4.37659,28.92447 11.982953,59.96579 38.501111,73.0537 11.69083,5.76996 20.43719,7.45332 38.7257,7.45332 9.05191,0 16.73926,0.44607 17.84004,1.03518 2.16212,1.15713 2.57138,4.9277 0.73426,6.76482 -1.41209,1.41209 -27.74503,1.47403 -37.26108,0.0876 z m 57.86764,-68.4595 c -1.7014,-0.83947 -4.0639,-3.25299 -5.25,-5.36339 C 181.1384,258.47394 181,256.8822 181,237.26173 c 0,-20.13243 0.0902,-21.10105 2.26993,-24.36385 4.90525,-7.34271 -2.02565,-6.89459 106.66435,-6.89633 95.04348,-0.002 97.53457,0.047 101.52184,1.97721 7.19946,3.4852 7.54439,4.84272 7.54014,29.67553 -0.003,19.9029 -0.17734,22.13043 -1.95578,25.04716 -4.07163,6.6777 2.33677,6.30092 -106.74082,6.27578 -86.52997,-0.0199 -99.18383,-0.21232 -101.8931,-1.54908 z m 200.13889,-8.8827 C 390.9729,256.11801 391,255.88862 391,237.76796 c 0,-14.96523 -0.28527,-18.73023 -1.5567,-20.54545 L 387.88659,215 h -97.82085 c -89.69696,0 -97.93483,0.13708 -99.1933,1.65057 -1.01999,1.2267 -1.45221,6.1767 -1.68306,19.27545 -0.33189,18.83147 0.29043,22.52862 4.04608,24.03744 1.30074,0.52256 42.82284,0.93674 97.55999,0.97315 l 95.29546,0.0634 2.45454,-2.45455 z M 211.65896,246.94638 c -3.77764,-2.97149 -5.11303,-8.77108 -3.14953,-13.67835 C 210.39938,228.5446 214.42382,226 220.00429,226 c 3.43826,0 4.80951,0.6138 7.59571,3.4 2.90213,2.90213 3.4,4.08824 3.4,8.1 0,4.01176 -0.49787,5.19787 -3.4,8.1 -2.95363,2.95363 -4.05184,3.4 -8.36514,3.4 -3.49416,0 -5.73861,-0.60841 -7.5759,-2.05362 z m 9.18943,-6.83152 c 2.02414,-1.28275 0.94985,-4.5694 -1.61308,-4.935 -2.68733,-0.38334 -4.00654,2.18594 -2.22474,4.33287 1.41425,1.70408 1.96311,1.79019 3.83782,0.60213 z m 105.38603,4.71956 C 325.55549,244.15549 325,242.8451 325,241.92244 c 0,-3.21539 2.503,-4.01301 11.65111,-3.71282 L 345.5,238.5 v 3.5 3.5 l -9.01558,0.28442 c -6.15705,0.19425 -9.40697,-0.10697 -10.25,-0.95 z m 26,0 C 351.55549,244.15549 351,242.8451 351,241.92244 c 0,-3.21539 2.503,-4.01301 11.65111,-3.71282 L 371.5,238.5 v 3.5 3.5 l -9.01558,0.28442 c -6.15705,0.19425 -9.40697,-0.10697 -10.25,-0.95 z"
       id="path293"
       sodipodi:nodetypes="ccsssssccscccssscssssscssssssssssscsscssssscccsssssscsscsssssscsssssscsssssssssssssssssssssssssscssssssssssscsssssssssssssssssssssssssscssssssssssccscsssssscsssssccsssssssssssssssscccssssscccss" />
  </g>
</svg>
