<?xml version="1.0" encoding="UTF-8" standalone="no"?>
<!-- Created with Inkscape (http://www.inkscape.org/) -->

<svg
   version="1.1"
   id="svg502"
   width="1333.3333"
   height="666.66669"
   viewBox="0 0 1333.3333 666.66669"
   sodipodi:docname="SEO (1).svg"
   inkscape:version="1.2.2 (732a01da63, 2022-12-09)"
   xmlns:inkscape="http://www.inkscape.org/namespaces/inkscape"
   xmlns:sodipodi="http://sodipodi.sourceforge.net/DTD/sodipodi-0.dtd"
   xmlns="http://www.w3.org/2000/svg"
   xmlns:svg="http://www.w3.org/2000/svg">
  <defs
     id="defs506" />
  <sodipodi:namedview
     id="namedview504"
     pagecolor="#ffffff"
     bordercolor="#000000"
     borderopacity="0.25"
     inkscape:showpageshadow="2"
     inkscape:pageopacity="0.0"
     inkscape:pagecheckerboard="0"
     inkscape:deskcolor="#d1d1d1"
     showgrid="false"
     inkscape:zoom="0.78749998"
     inkscape:cx="733.96828"
     inkscape:cy="179.04762"
     inkscape:window-width="1366"
     inkscape:window-height="705"
     inkscape:window-x="-8"
     inkscape:window-y="-8"
     inkscape:window-maximized="1"
     inkscape:current-layer="g508" />
  <g
     inkscape:groupmode="layer"
     inkscape:label="Image"
     id="g508">
    <path
       style="fill:#b3b3b3;fill-opacity:0.67164177;stroke-width:1.33333"
       d="m 1040.6224,532.17083 -45.09849,-45.226 0.58267,-5.774 c 0.32047,-3.17569 1.05408,-6.83744 1.63025,-8.13721 0.82156,-1.85335 -1.77244,-5.23355 -12.02278,-15.66667 -7.18871,-7.31689 -13.85667,-13.30344 -14.81771,-13.30344 -0.96104,0 -4.62871,2.07007 -8.1504,4.60015 -9.18016,6.59529 -27.21359,14.90739 -39.60311,18.25415 -15.52713,4.1943 -43.30129,4.21897 -59.99999,0.0533 -43.60531,-10.87788 -76.1739,-43.1952 -89.59884,-88.90756 -3.35955,-11.43939 -3.29312,-48.33155 0.1092,-60.66667 11.80614,-42.80267 42.8587,-74.49505 85.78048,-87.54793 10.54353,-3.20637 13.83274,-3.56664 33.04245,-3.6191 17.96556,-0.0491 22.9717,0.4 31.7117,2.84468 12.37187,3.46056 29.90566,11.58698 38.45656,17.82354 l 6.16827,4.4988 -9.76519,16.66667 c -5.37085,9.16667 -10.26005,16.56218 -10.86489,16.43446 -0.60484,-0.12774 -4.86897,-2.74923 -9.47587,-5.82559 -24.58468,-16.41703 -59.11207,-17.66507 -85.39562,-3.08676 -13.30219,7.37812 -26.75563,21.67459 -33.26481,35.34923 -6.64983,13.97013 -8.68578,22.76424 -8.59578,37.12866 0.14155,22.59246 7.95544,41.04721 24.30027,57.39203 16.86849,16.86848 34.12085,23.95455 58.25115,23.92548 15.1827,-0.0183 24.06454,-2.05977 37.14087,-8.53686 18.10782,-8.96931 34.73519,-28.23126 40.81575,-47.28291 3.22496,-10.10448 4.78604,-32.51811 2.84668,-40.87216 -1.21204,-5.22108 -0.90165,-5.97039 10.87829,-26.26112 6.66927,-11.48768 12.5374,-20.46919 13.04028,-19.95891 2.11631,2.14736 9.00361,17.59319 11.57551,25.95964 10.4419,33.96789 4.1312,75.20359 -15.99891,104.54172 -2.10334,3.06546 -3.82426,6.42483 -3.82426,7.46527 0,1.04044 6.02413,7.73727 13.38697,14.88184 10.0887,9.78963 13.9486,12.75356 15.6667,12.02993 4.2892,-1.80661 8.2308,-2.25197 11.9217,-1.34704 2.435,0.597 18.3264,15.50101 46.6913,43.78993 40.2531,40.1453 43,43.18608 43,47.59986 0,4.24402 -1.5669,6.27783 -15.6867,20.36082 -8.6276,8.60513 -16.5976,15.64576 -17.711,15.64576 -1.1134,0 -22.3186,-20.35171 -47.1227,-45.22602 z M 435.75017,466.74757 c -33.66448,-3.2174 -59.02392,-16.53633 -73.65508,-38.68406 -2.66448,-4.03333 -5.76008,-9.54331 -6.87911,-12.2444 l -2.0346,-4.91105 17.21879,-8.75562 c 9.47032,-4.81557 17.71268,-8.7556 18.31634,-8.7556 0.60367,0 2.54956,2.73702 4.32422,6.08227 6.55253,12.35164 23.49934,23.71395 40.76878,27.33416 10.30172,2.15957 31.19279,2.10737 40.97251,-0.1024 11.8278,-2.67251 22.3348,-9.11017 26.92272,-16.4956 7.96357,-12.81943 5.44062,-28.45351 -5.91969,-36.68288 -8.73424,-6.32705 -18.87954,-9.41639 -42.22992,-12.85935 -44.68791,-6.58915 -61.29602,-12.99045 -76.30182,-29.40917 -9.10693,-9.96446 -12.30972,-18.89566 -13.1012,-36.53371 -0.90934,-20.26449 3.01918,-31.19939 16.19788,-45.08619 25.26047,-26.61773 86.87732,-33.48868 127.04823,-14.16724 11.17957,5.37716 24.15365,16.75221 30.63128,26.85604 2.44568,3.81478 4.44668,7.13322 4.44668,7.3743 0,0.24109 -7.73227,4.26793 -17.18282,8.94854 l -17.18281,8.5102 -4.18736,-4.76913 c -13.02858,-14.83875 -37.65452,-22.71664 -61.66921,-19.72812 -22.93669,2.85436 -35.78792,13.38951 -35.76901,29.32264 0.0107,8.51183 2.5392,13.29665 9.47376,17.92347 9.05232,6.03982 13.51181,7.1497 54.5031,13.56476 55.19601,8.63808 78.68101,29.84124 78.68101,71.03624 0,43.59105 -32.43446,69.79544 -89.99999,72.71262 -6.6,0.33446 -17.12671,0.11813 -23.39268,-0.48072 z M 582.47618,346.73017 V 232.0635 h 85.99999 86 v 20.66667 20.66667 h -64.66666 -64.66667 v 26.66667 26.66666 h 62 62 v 20 20.00001 h -62 -62 v 26 26 h 64.66667 64.66666 v 21.33333 21.33334 h -86 -85.99999 z m 252.37499,53.00001 -2.75651,-3 20.60947,-42.64094 c 11.33521,-23.45252 20.80309,-42.83456 21.03973,-43.07121 0.23666,-0.23664 12.76942,5.7306 27.85059,13.26053 15.08117,7.52993 27.69718,13.41197 28.03558,13.0712 1.36888,-1.37848 63.51183,-109.25571 63.49959,-110.23227 -0.007,-0.57969 -2.80571,-2.98492 -6.21875,-5.34495 l -6.20553,-4.29094 8.55208,-3.90006 c 4.70364,-2.14502 15.68548,-7.28066 24.40418,-11.41252 8.7186,-4.13185 16.0913,-7.27322 16.3837,-6.9808 0.5812,0.58112 -3.6012,51.91967 -4.2908,52.67047 -0.2334,0.25403 -3.1196,-1.39257 -6.4139,-3.65911 l -5.9896,-4.12097 -2.6261,4.32577 c -1.4444,2.37919 -18.06265,31.02579 -36.92943,63.65913 -18.86676,32.63333 -34.56064,59.61215 -34.87529,59.95292 -0.31464,0.34077 -12.84705,-5.50923 -27.8498,-13 -15.00273,-7.49078 -27.53409,-13.61959 -27.84745,-13.61959 -0.31335,0 -10.26232,13.8 -22.10883,30.66667 -11.84649,16.86667 -21.98174,30.66667 -22.52276,30.66667 -0.54101,0 -2.22409,-1.35 -3.74017,-3 z"
       id="path7259" />
    <path
       style="fill:#0088ff;stroke-width:1.33333;fill-opacity:1"
       d="m 1010.1462,506.774 -45.09848,-45.226 0.58267,-5.774 c 0.32047,-3.17569 1.05408,-6.83744 1.63025,-8.13721 0.82156,-1.85335 -1.77244,-5.23355 -12.02278,-15.66667 -7.18871,-7.31689 -13.85667,-13.30344 -14.81771,-13.30344 -0.96104,0 -4.62871,2.07007 -8.1504,4.60015 -9.18016,6.59529 -27.21359,14.90739 -39.60311,18.25415 -15.52713,4.1943 -43.30129,4.21897 -59.99999,0.0533 -43.60531,-10.87788 -76.1739,-43.1952 -89.59884,-88.90756 -3.35955,-11.43939 -3.29312,-48.33155 0.1092,-60.66667 11.80614,-42.80267 42.8587,-74.49505 85.78048,-87.54793 10.54353,-3.20637 13.83274,-3.56664 33.04245,-3.6191 17.96556,-0.0491 22.9717,0.4 31.7117,2.84468 12.37187,3.46056 29.90566,11.58698 38.45656,17.82354 l 6.16827,4.4988 -9.76519,16.66667 c -5.37085,9.16667 -10.26005,16.56218 -10.86489,16.43446 -0.60484,-0.12774 -4.86897,-2.74923 -9.47587,-5.82559 -24.58468,-16.41703 -59.11207,-17.66507 -85.39562,-3.08676 -13.30219,7.37812 -26.75563,21.67459 -33.26481,35.34923 -6.64983,13.97013 -8.68578,22.76424 -8.59578,37.12866 0.14155,22.59246 7.95544,41.04721 24.30027,57.39203 16.86849,16.86848 34.12085,23.95455 58.25115,23.92548 15.1827,-0.0183 24.06454,-2.05977 37.14087,-8.53686 18.10782,-8.96931 34.73519,-28.23126 40.81575,-47.28291 3.22496,-10.10448 4.78604,-32.51811 2.84668,-40.87216 -1.21204,-5.22108 -0.90165,-5.97039 10.87829,-26.26112 6.66927,-11.48768 12.5374,-20.46919 13.04028,-19.95891 2.11626,2.14736 9.00359,17.59319 11.57548,25.95964 10.44191,33.96789 4.13127,75.20359 -15.99888,104.54172 -2.10334,3.06546 -3.82426,6.42483 -3.82426,7.46527 0,1.04044 6.02413,7.73727 13.38696,14.88184 10.08868,9.78963 13.94864,12.75356 15.66666,12.02993 4.28926,-1.80661 8.23083,-2.25197 11.92174,-1.34704 2.435,0.597 18.3264,15.50101 46.6913,43.78993 40.2531,40.1453 43,43.18608 43,47.59986 0,4.24402 -1.5669,6.27783 -15.6867,20.36082 -8.6276,8.60513 -16.5976,15.64576 -17.711,15.64576 -1.1134,0 -22.3186,-20.35171 -47.1227,-45.22602 z M 405.27398,441.35074 c -33.66448,-3.2174 -59.02392,-16.53633 -73.65508,-38.68406 -2.66448,-4.03333 -5.76008,-9.54331 -6.87911,-12.2444 l -2.0346,-4.91105 17.21879,-8.75562 c 9.47032,-4.81557 17.71268,-8.7556 18.31634,-8.7556 0.60367,0 2.54956,2.73702 4.32422,6.08227 6.55253,12.35164 23.49934,23.71395 40.76878,27.33416 10.30172,2.15957 31.19279,2.10737 40.97251,-0.1024 11.8278,-2.67251 22.3348,-9.11017 26.92272,-16.4956 7.96357,-12.81943 5.44062,-28.45351 -5.91969,-36.68288 -8.73424,-6.32705 -18.87954,-9.41639 -42.22992,-12.85935 -44.68791,-6.58915 -61.29602,-12.99045 -76.30182,-29.40917 -9.10693,-9.96446 -12.30972,-18.89566 -13.1012,-36.53371 -0.90934,-20.26449 3.01918,-31.19939 16.19788,-45.08619 25.26047,-26.61773 86.87732,-33.48868 127.04823,-14.16724 11.17957,5.37716 24.15365,16.75221 30.63128,26.85604 2.44568,3.81478 4.44668,7.13322 4.44668,7.3743 0,0.24109 -7.73227,4.26793 -17.18282,8.94854 l -17.18281,8.5102 -4.18736,-4.76913 c -13.02858,-14.83875 -37.65452,-22.71664 -61.66921,-19.72812 -22.93669,2.85436 -35.78792,13.38951 -35.76901,29.32264 0.0107,8.51183 2.5392,13.29665 9.47376,17.92347 9.05232,6.03982 13.51181,7.1497 54.5031,13.56476 55.19601,8.63808 78.68101,29.84124 78.68101,71.03624 0,43.59105 -32.43446,69.79544 -89.99999,72.71262 -6.6,0.33446 -17.12671,0.11813 -23.39268,-0.48072 z M 551.99999,321.33334 V 206.66667 h 85.99999 86 v 20.66667 20.66667 h -64.66666 -64.66667 v 26.66667 26.66666 h 62 62 v 20 20.00001 h -62 -62 v 26 26 h 64.66667 64.66666 v 21.33333 21.33334 h -86 -85.99999 z m 252.37499,53.00001 -2.75651,-3 20.60947,-42.64094 c 11.33521,-23.45252 20.80309,-42.83456 21.03973,-43.07121 0.23666,-0.23664 12.76942,5.7306 27.85059,13.26053 15.08117,7.52993 27.69718,13.41197 28.03558,13.0712 1.36888,-1.37848 63.51183,-109.25571 63.49959,-110.23227 -0.007,-0.57969 -2.80571,-2.98492 -6.21875,-5.34495 l -6.20553,-4.29094 8.55208,-3.90006 c 4.70364,-2.14502 15.68552,-7.28066 24.40416,-11.41252 8.71864,-4.13185 16.09133,-7.27322 16.38375,-6.9808 0.58116,0.58112 -3.60124,51.91967 -4.29087,52.67047 -0.23332,0.25403 -3.11956,-1.39257 -6.41385,-3.65911 l -5.98962,-4.12097 -2.62614,4.32577 c -1.44439,2.37919 -18.0626,31.02579 -36.92938,63.65913 -18.86676,32.63333 -34.56064,59.61215 -34.87529,59.95292 -0.31464,0.34077 -12.84705,-5.50923 -27.8498,-13 -15.00273,-7.49078 -27.53409,-13.61959 -27.84745,-13.61959 -0.31335,0 -10.26232,13.8 -22.10883,30.66667 -11.84649,16.86667 -21.98174,30.66667 -22.52276,30.66667 -0.54101,0 -2.22409,-1.35 -3.74017,-3 z"
       id="path629" />
    <path
       style="fill:#00805d;fill-opacity:1;fill-rule:evenodd;stroke:#efede6;stroke-width:1.333;stroke-linecap:round;stroke-linejoin:round;stroke-dasharray:none"
       d="m 801.26987,369.52382 7.61904,8.88889 43.17461,-62.22222 55.87302,26.66666 74.92063,-126.98413 12.69842,7.61905 5.07941,-54.60318 -49.52386,22.85715 11.42857,10.15873 -63.49206,111.74603 -53.33334,-26.66666 -1.26984,-2.53969 z"
       id="path10421" />
  </g>
</svg>
