<?xml version="1.0" encoding="UTF-8" standalone="no"?>
<!-- Created with Inkscape (http://www.inkscape.org/) -->

<svg
   version="1.1"
   id="svg1170"
   width="512"
   height="512"
   viewBox="0 0 512 512"
   sodipodi:docname="socials.svg"
   inkscape:version="1.2.2 (732a01da63, 2022-12-09)"
   xml:space="preserve"
   xmlns:inkscape="http://www.inkscape.org/namespaces/inkscape"
   xmlns:sodipodi="http://sodipodi.sourceforge.net/DTD/sodipodi-0.dtd"
   xmlns="http://www.w3.org/2000/svg"
   xmlns:svg="http://www.w3.org/2000/svg"><defs
     id="defs1174" /><sodipodi:namedview
     id="namedview1172"
     pagecolor="#ffffff"
     bordercolor="#000000"
     borderopacity="0.25"
     inkscape:showpageshadow="2"
     inkscape:pageopacity="0.0"
     inkscape:pagecheckerboard="0"
     inkscape:deskcolor="#d1d1d1"
     showgrid="false"
     inkscape:zoom="1.0253906"
     inkscape:cx="324.26667"
     inkscape:cy="272.09143"
     inkscape:window-width="1366"
     inkscape:window-height="705"
     inkscape:window-x="-8"
     inkscape:window-y="-8"
     inkscape:window-maximized="1"
     inkscape:current-layer="g1176" /><g
     inkscape:groupmode="layer"
     inkscape:label="Image"
     id="g1176"><g
       id="g1358"
       transform="matrix(0.47809524,0,0,0.46387837,2.4380948,1.9504517)"><ellipse
         style="fill:#ffffff;fill-opacity:1;fill-rule:evenodd;stroke:#cccc53;stroke-width:0;stroke-linecap:round;stroke-linejoin:round;stroke-opacity:0.457627"
         id="path2470"
         cx="249.17336"
         cy="264.28955"
         rx="225.76762"
         ry="248.68573" /><path
         d="M 512,256 C 512,114.6 397.4,0 256,0 114.6,0 0,114.6 0,256 0,376 82.7,476.8 194.2,504.5 V 334.2 H 141.4 V 256 h 52.8 v -33.7 c 0,-87.1 39.4,-127.5 125,-127.5 16.2,0 44.2,3.2 55.7,6.4 V 172 c -6,-0.6 -16.5,-1 -29.6,-1 -42,0 -58.2,15.9 -58.2,57.2 V 256 h 83.6 l -14.4,78.2 H 287 V 510.1 C 413.8,494.8 512,386.9 512,256 Z"
         id="path3394"
         style="fill:#000080" /></g><g
       inkscape:label="Image"
       id="g8"
       transform="matrix(0.2276651,0,0,0.2120365,123.10974,301.9189)"><rect
         style="fill:#efede6;fill-opacity:1;fill-rule:evenodd;stroke:#efede6;stroke-width:2.02999;stroke-linecap:round;stroke-linejoin:round;stroke-dasharray:none;stroke-opacity:1"
         id="rect921"
         width="1321.9358"
         height="999.17511"
         x="5.8130898"
         y="3.8803911"
         ry="145.99472" /><path
         style="fill:#e0574b;fill-opacity:1;stroke:#000000;stroke-width:1.75936;stroke-opacity:1"
         d="M 90.476694,935.10399 C 59.928329,928.70462 37.540431,905.98853 32.69971,876.47998 31.39742,868.54129 30.937385,752.87343 31.278937,519.2496 l 0.50509,-345.49039 5.312878,-13.41711 C 69.75466,77.868594 129.77159,50.324404 209.33276,81.296164 c 16.57844,6.45369 73.78947,42.415076 157.40574,98.941186 25.89898,17.50818 58.30121,39.39732 72.00493,48.64252 13.70375,9.2452 70.17976,47.45003 125.50225,84.89962 55.32247,37.44958 101.61008,68.65994 102.86135,69.35632 1.45013,0.80712 51.7329,-32.96771 138.68401,-93.15382 C 880.816,238.051 958.5608,184.24936 978.55712,170.42283 1039.0674,128.58292 1104.384,87.428894 1120.2158,81.167744 c 29.6803,-11.73783 62.5563,-15.47889 86.0635,-9.79338 38.33,9.27059 69.0726,40.950386 87.0457,89.698986 l 5.4779,14.85777 v 348.09544 c 0,249.48741 -0.5828,350.61311 -2.0571,356.98299 -5.1175,22.10942 -19.9205,39.39945 -41.7935,48.81492 l -12.4409,5.35533 -114.8832,0.45624 -114.8831,0.45622 -0.4682,-222.19123 -0.4681,-222.19123 -173.31971,116.44409 -173.31967,116.44407 -6.75863,-4.56161 C 654.69355,717.52746 589.13543,671.70145 512.72609,618.20074 436.31672,564.70004 361.0048,512.02787 345.36622,501.15146 l -28.43375,-19.77527 v 227.32109 227.32109 l -103.81618,0.13618 c -57.0989,0.075 -106.05774,0.28687 -108.79743,0.47093 -2.73969,0.18406 -8.968665,-0.50062 -13.842166,-1.52156 z"
         id="path293" /><path
         style="fill:#b1b0a8;fill-opacity:1;fill-rule:evenodd;stroke:#580000;stroke-width:2;stroke-linecap:round;stroke-linejoin:round;stroke-dasharray:none;stroke-opacity:1"
         d="M 662.91557,720.89652 1014.6667,941.22415 1010.8013,494.7708 Z"
         id="path4786"
         sodipodi:nodetypes="cccc" /><path
         style="fill:#efede6;fill-opacity:1;fill-rule:evenodd;stroke:#b1b0a8;stroke-width:2;stroke-linecap:round;stroke-linejoin:round;stroke-dasharray:none;stroke-opacity:1"
         d="M 318.89524,939.29145 660.98287,720.89652 315.02985,483.17461 Z"
         id="path4938" /><path
         style="fill:#efede6;fill-opacity:1;fill-rule:evenodd;stroke:#efede6;stroke-width:2;stroke-linecap:round;stroke-linejoin:round;stroke-dasharray:none;stroke-opacity:1"
         d="m 139.15429,65.711747 1018.53211,1.932699 c -21.8342,6.778776 -42.4442,11.925429 -79.2407,38.653974 L 670.64636,380.74159 C 157.42229,41.118593 382.03006,195.20254 237.72191,102.43302 204.86604,69.599756 172.01016,75.538756 139.15429,65.711747 Z"
         id="path9888"
         sodipodi:nodetypes="cccccc" /></g><path
       d="m 511.21524,122.24461 c 0,67.77219 -42.29106,116.00301 -104.74565,116.00301 -59.87962,0 -108.2372,-53.06826 -108.2372,-118.78096 0,-65.712681 48.35758,-118.78094529 108.2372,-118.78094529 29.15421,0 53.68215,11.73440929 72.58,31.08421229 l -29.4597,31.084202 C 411.0522,22.047132 339.3887,52.700273 339.3887,119.46666 c 0,41.42966 30.15803,75.00443 67.08089,75.00443 42.85842,0 58.91942,-33.71846 61.45079,-51.20034 h -61.45079 v -40.85489 h 103.04354 c 1.00381,6.08273 1.70211,11.92598 1.70211,19.82875 z"
       id="path1375"
       style="fill:#e75500;fill-opacity:1;stroke-width:0.457204" /></g></svg>
