<?xml version="1.0" encoding="UTF-8" standalone="no"?>
<svg
   data-name="Layer 1"
   width="1424.3572"
   height="587.67633"
   viewBox="0 0 1424.3572 587.67633"
   version="1.1"
   id="svg2102"
   sodipodi:docname="startup.svg"
   xml:space="preserve"
   inkscape:version="1.2.2 (732a01da63, 2022-12-09)"
   xmlns:inkscape="http://www.inkscape.org/namespaces/inkscape"
   xmlns:sodipodi="http://sodipodi.sourceforge.net/DTD/sodipodi-0.dtd"
   xmlns="http://www.w3.org/2000/svg"
   xmlns:svg="http://www.w3.org/2000/svg"><defs
     id="defs2106" /><sodipodi:namedview
     id="namedview2104"
     pagecolor="#ffffff"
     bordercolor="#000000"
     borderopacity="0.25"
     inkscape:showpageshadow="2"
     inkscape:pageopacity="0.0"
     inkscape:pagecheckerboard="0"
     inkscape:deskcolor="#d1d1d1"
     showgrid="false"
     inkscape:zoom="0.21003996"
     inkscape:cx="1214.0547"
     inkscape:cy="266.61593"
     inkscape:window-width="1366"
     inkscape:window-height="705"
     inkscape:window-x="-8"
     inkscape:window-y="-8"
     inkscape:window-maximized="1"
     inkscape:current-layer="svg2102" /><polygon
     points="106.065,519.775 85.754,519.776 85.757,572.858 99.518,572.857 "
     fill="#ffb6b6"
     id="polygon1942"
     transform="translate(664.87986,3.1660946)" /><path
     d="m 750.15192,590.38006 42.31934,-0.002 v -0.5352 a 16.47278,16.47278 0 0 0 -16.47186,-16.4712 h -0.001 l -7.73017,-5.86451 -14.42279,5.86541 -3.6942,1.2e-4 z"
     fill="#2f2e41"
     id="path1944" /><g
     id="g19556"
     transform="translate(813.42473,88.484599)"><path
       d="m 15.17983,488.38062 c 0,0.66 0.53,1.19 1.19,1.19 h 593.26001 c 0.65997,0 1.19,-0.53 1.19,-1.19 0,-0.66 -0.53003,-1.19 -1.19,-1.19 H 16.36983 c -0.66,0 -1.19,0.53 -1.19,1.19 z"
       fill="#2f2e43"
       stroke-width="0"
       id="path19469" /><path
       d="m 322.81828,370.94498 c -1.62896,9.87394 -10.22129,17.43042 -20.54927,17.43042 -10.32798,0 -18.9203,-7.55648 -20.54927,-17.43042 H 229.14627 V 484.88042 H 375.39175 V 370.94498 Z"
       fill="#b6b3c5"
       stroke-width="0"
       id="path19471" /><rect
       x="231.69705"
       y="484.45538"
       width="14.4545"
       height="2.5507901"
       fill="#b6b3c5"
       stroke-width="0"
       id="rect19473" /><rect
       x="359.66187"
       y="484.88052"
       width="14.4545"
       height="2.5507901"
       fill="#b6b3c5"
       stroke-width="0"
       id="rect19475" /><rect
       x="229.5712"
       y="475.854"
       width="146.24591"
       height="3.9661901"
       fill="#2f2e41"
       stroke-width="0"
       id="rect19477" /><path
       d="M 596.38474,373.92091 H 8.15307 C 3.65742,373.92091 0,370.26328 0,365.76784 V 30.0645 c 0,-4.49544 3.65742,-8.15307 8.15307,-8.15307 h 588.23167 c 4.49565,0 8.15328,3.65763 8.15328,8.15307 v 335.70334 c 0,4.49544 -3.65763,8.15307 -8.15328,8.15307 z"
       fill="#2f2e41"
       stroke-width="0"
       id="path19479" /><rect
       x="14.87962"
       y="36.36602"
       width="575.62903"
       height="324.80103"
       fill="#ffffff"
       stroke-width="0"
       id="rect19481" /><path
       d="m 522.12121,161.10268 h -31.40942 c -2.72925,0 -4.94971,-2.22021 -4.94971,-4.94971 0,-2.7295 2.22046,-4.94971 4.94971,-4.94971 h 31.40942 c 2.72925,0 4.94971,2.22021 4.94971,4.94971 0,2.7295 -2.22046,4.94971 -4.94971,4.94971 z"
       fill="#d1d1d2"
       stroke-width="0"
       id="path19483" /><path
       d="m 558.2423,161.10268 h -14.65771 c -2.72925,0 -4.94971,-2.22021 -4.94971,-4.94971 0,-2.7295 2.22046,-4.94971 4.94971,-4.94971 h 14.65771 c 2.72925,0 4.94971,2.22021 4.94971,4.94971 0,2.7295 -2.22046,4.94971 -4.94971,4.94971 z"
       fill="#d1d1d2"
       stroke-width="0"
       id="path19485" /><path
       d="m 207.6466,164.88296 h -95.60376 c -4.88037,0 -8.85083,-3.9707 -8.85083,-8.85107 0,-4.88037 3.97046,-8.85107 8.85083,-8.85107 h 95.60376 c 4.88062,0 8.85107,3.9707 8.85107,8.85107 0,4.88037 -3.97046,8.85107 -8.85107,8.85107 z"
       fill="#00b0ff"
       stroke-width="0"
       id="path19487" /><path
       d="m 155.81335,188.49575 h -46.07422 c -2.97485,0 -5.39526,-2.42041 -5.39526,-5.39502 0,-2.9751 2.42041,-5.39551 5.39526,-5.39551 h 46.07422 c 2.97485,0 5.39526,2.42041 5.39526,5.39551 0,2.97461 -2.42041,5.39502 -5.39526,5.39502 z"
       fill="#d1d1d2"
       stroke-width="0"
       id="path19489" /><path
       d="M 409.79675,209.80532 H 108.58727 c -2.97485,0 -5.39526,-2.42041 -5.39526,-5.39551 0,-2.9751 2.42041,-5.39551 5.39526,-5.39551 h 301.20947 c 2.97485,0 5.39526,2.42041 5.39526,5.39551 0,2.9751 -2.42041,5.39551 -5.39526,5.39551 z"
       fill="#d1d1d2"
       stroke-width="0"
       id="path19491" /><path
       d="M 383.88,224.20327 H 108.58727 c -2.97485,0 -5.39526,-2.42041 -5.39526,-5.39551 0,-2.97461 2.42041,-5.39502 5.39526,-5.39502 h 275.29272 c 2.97485,0 5.39526,2.42041 5.39526,5.39502 0,2.9751 -2.42041,5.39551 -5.39526,5.39551 z"
       fill="#d1d1d2"
       stroke-width="0"
       id="path19493" /><polygon
       points="557.3418,432.03741 543.52488,446.54549 528.79946,432.9325 542.61638,418.42443 "
       fill="#ed9da0"
       stroke-width="0"
       id="polygon19495" /><path
       d="m 568.37828,446.89654 -29.36998,30.83913 c -2.51029,2.63586 -5.64561,4.71841 -9.06708,6.0225 l -8.18831,3.12104 c -1.69302,0.64532 -3.64239,0.27152 -4.96618,-0.95226 -1.55248,-1.4352 -1.9454,-3.73444 -0.9555,-5.59137 l 7.87618,-14.77439 8.40469,-29.96186 0.0914,0.0563 c 2.28636,1.40797 5.75424,3.52058 6.00144,3.61003 4.35229,0.15413 7.46798,-0.94048 9.26147,-3.25263 3.12825,-4.03295 1.1436,-10.47122 1.12319,-10.53582 l -0.0156,-0.0494 0.0397,-0.034 c 0.91186,-0.77861 1.87235,-1.09015 2.85488,-0.92602 2.08576,0.34851 3.57774,2.69144 3.79609,3.05188 1.95729,-0.0824 7.96683,4.62411 8.45043,5.00551 2.95043,-0.008 5.11335,0.69168 6.42839,2.07965 1.14975,1.21342 1.65035,2.93583 1.48814,5.11937 -0.1951,2.62712 -1.35051,5.1743 -3.25335,7.17233 z"
       fill="#090814"
       stroke-width="0"
       id="path19497" /><rect
       x="521.19769"
       y="448.74103"
       width="20.192711"
       height="19.894661"
       fill="#ed9da0"
       stroke-width="0"
       id="rect19499" /><path
       d="m 537.9439,486.73258 h -42.92269 c -3.66865,0 -7.35544,-0.82768 -10.66185,-2.3936 l -7.91297,-3.74756 c -1.6361,-0.77484 -2.69329,-2.4312 -2.69329,-4.21969 0,-2.09747 1.43298,-3.95303 3.48476,-4.51242 l 16.32485,-4.45054 27.92779,-14.46289 0.0209,0.1042 c 0.52231,2.60611 1.33153,6.54329 1.43447,6.7821 2.86399,3.2325 5.8061,4.72207 8.74468,4.42857 5.12558,-0.51197 8.533,-6.34331 8.56684,-6.40218 l 0.0259,-0.045 0.0523,0.005 c 1.20024,0.12238 2.08806,0.59931 2.63887,1.41755 1.16923,1.73705 0.45596,4.41216 0.33857,4.81568 1.40031,1.34986 2.0287,8.88807 2.0773,9.49651 2.0247,2.11441 2.98687,4.14713 2.85936,6.04168 -0.11142,1.65636 -1.04376,3.19459 -2.77094,4.57215 -2.07801,1.65744 -4.75395,2.57022 -7.53486,2.57022 z"
       fill="#090814"
       stroke-width="0"
       id="path19501" /><polygon
       points="543.78764,410.78988 487.24072,347.00736 543.78764,198.18147 472.23504,198.21632 448.38417,347.00736 519.93677,432.05072 "
       fill="#090814"
       stroke-width="0"
       id="polygon19503" /><polygon
       points="501.49583,220.11469 543.78764,198.18147 543.78764,453.31156 519.93677,453.96652 "
       fill="#090814"
       stroke-width="0"
       id="polygon19505" /><path
       d="m 459.13337,257.84794 0.50385,-23.22496 -13.56028,-0.29418 -0.50385,23.22496 c -2.53,2.34865 -4.20012,5.99798 -4.28988,10.13548 -0.15706,7.23954 4.57252,13.21364 10.56385,13.34362 5.99133,0.12998 10.97555,-5.63338 11.1326,-12.87293 0.0898,-4.1375 -1.42063,-7.85583 -3.84629,-10.31199 z"
       fill="#ed9da0"
       stroke-width="0"
       id="path19507" /><path
       d="m 523.43608,31.03003 c 0,0 19.46513,-0.04207 12.19353,-18.79784 C 528.35801,-6.52358 514.81787,1.8744 514.81787,1.8744 c 0,0 -5.70536,3.01366 -4.5291,9.73748"
       fill="#090814"
       stroke-width="0"
       id="path19509" /><path
       d="m 525.3842,40.02662 c 0,-14.38025 -11.65746,-26.03763 -26.03754,-26.03763 -14.38008,0 -26.03772,11.65737 -26.03772,26.03763 0,11.6623 7.66783,21.53259 18.23664,24.84743 l 5.03369,33.26563 25.66039,-21.3836 c 0,0 -5.54354,-7.06083 -8.51633,-15.02245 7.02635,-4.66298 11.66087,-12.64233 11.66087,-21.70702 z"
       fill="#ed9da0"
       stroke-width="0"
       id="path19511" /><path
       d="m 511.85627,62.02208 c 0,0 3.45773,-13.25664 -2.19606,-19.35213 -5.6409,-6.0816 -6.36957,3.38112 -6.36957,3.38112 l -4.07028,-0.88484 c 0,0 0.70788,-9.20238 -7.25572,-10.7951 l 5.1321,-10.97207 c 0,0 -19.64839,3.81501 -20.18995,1.912 -4.26122,-14.97371 36.39041,-27.76478 47.62013,-4.92047 17.46591,35.53044 -12.67063,41.6315 -12.67063,41.6315 z"
       fill="#090814"
       stroke-width="0"
       id="path19513" /><path
       d="m 488.85799,85.21825 h -3e-5 c -18.90326,3.69375 -33.0921,19.43311 -34.81262,38.61688 L 442.279,255.02985 h 20.64802 L 488.85799,85.21826 Z"
       fill="#00b0ff"
       stroke-width="0"
       id="path19515" /><polyline
       points="469.33436 189.7459 466.11864 226.78903 553.4084 201.11558 542.77225 174.34183 562.57749 128.86313 522.14834 70.91446 489.87313 73.11504 477.40316 89.25265"
       fill="#00b0ff"
       stroke-width="0"
       id="polyline19517" /><path
       d="m 540.5188,224.92529 12.17487,-19.78447 -11.55149,-7.1085 -12.17487,19.78447 c -3.37019,0.74757 -6.65594,3.05208 -8.82488,6.57666 -3.79508,6.16709 -2.73415,13.7125 2.36964,16.85325 5.10379,3.14075 12.31767,0.68745 16.11275,-5.47964 2.16894,-3.52458 2.74533,-7.49636 1.89399,-10.84176 z"
       fill="#ed9da0"
       stroke-width="0"
       id="path19519" /><path
       d="m 515.54659,71.64799 7.03843,-0.29198 12.03331,9.09431 c 14.25886,2.43159 18.39403,3.11332 22.76287,12.53204 1.83579,3.95777 3.05281,8.17407 3.73324,12.48349 l 10.18023,64.47481 -25.58831,61.6163 -16.95628,-19.07171 18.12649,-48.17314 -3.01123,-11.52302"
       fill="#00b0ff"
       stroke-width="0"
       id="path19521" /></g><polygon
     points="156.702,479.371 140.712,466.846 107.98,508.635 118.814,517.121 "
     fill="#ffb6b6"
     id="polygon1946"
     transform="translate(664.87986,3.1660946)" /><path
     d="m 763.6249,522.80379 33.31553,26.096 0.33005,-0.42131 a 16.47278,16.47278 0 0 0 -2.80933,-23.12453 l -8e-4,-6.3e-4 -2.46884,-9.38365 -14.97097,-4.27682 -2.90822,-2.278 z"
     fill="#2f2e41"
     id="path1948" /><path
     d="m 837.65054,269.94079 c 0,0 18.26473,18.94117 10.14703,62.91176 l 6.815,75.288 1.7588,3.4852 a 11.05057,11.05057 0 0 1 -2.0515,12.7927 v 0 l -1.4488,4.49294 -1.353,8.79411 -50.39702,75.76471 -19.27941,-20.29412 31.11765,-71.02941 -8.45585,-18.26472 -19.61765,-63.58823 -13.52941,116.35294 2.70588,100.11765 h -25.895 l -16.04618,-111.61765 -16.91176,-156.94118 8.79678,-18.2647 z"
     fill="#2f2e41"
     id="path1950" /><path
     d="m 719.42684,302.48663 -0.18455,-0.25887 c -9.85645,-13.79924 4.96766,-46.95846 7.20349,-51.76534 v 0 a 12.068,12.068 0 0 1 -8.26034,-12.88863 l 0.96382,-8.193 1.00466,-8.03624 -7.19742,-7.19743 -0.0202,-0.17949 -4.142,-36.24246 -6.02235,-24.07187 a 52.84836,52.84836 0 0 1 15.00007,-51.21624 l 13.92059,-2.21044 16.91786,-16.300565 h 27.282 l 9.35438,8.93736 c 17.46254,3.06264 20.46254,2.06264 35.46254,20.062635 l -6.81593,55.96246 -1.70034,7.69872 0.005,10.442 4.3228,4.80417 a 14.9496,14.9496 0 0 1 3.54622,12.93155 l -0.56848,2.84229 v 0 c 4.45834,1.91063 8.7126,35.86551 9.729,40.60831 l 1.51828,7.08466 c 1.29892,1.714 9.87263,13.146 9.87263,16.27119 0,0.46921 -0.3463,0.92275 -1.0896,1.4259 -5.84288,3.95643 -29.1375,32.0225 -43.43072,26.303 -15.22507,-6.0876 -75.74715,3.04481 -76.35692,3.13784 z"
     fill="#3f3d56"
     id="path1952"
     style="fill:#1e3f66;fill-opacity:1" /><path
     d="m 715.76144,237.41147 c 0,0 7.006,-39.59457 -0.0521,-54.48539 l -28,2 4.2612,56.48653 24.47719,62.71748 a 11.15409,11.15409 0 1 0 18.07814,-6.46292 z"
     fill="#ffb6b6"
     id="path1954" /><path
     d="m 687.70932,161.92608 1.73291,-18.87121 A 54.10668,54.10668 0 0 1 708.845,106.30302 v 0 a 23.68674,23.68674 0 0 1 24.78746,-3.27207 v 0 a 23.63086,23.63086 0 0 1 12.2047,29.86636 c -6.47152,16.97245 -4.13467,34.92127 -16.75349,37.10949 l 1.37095,6.52243 -12.40737,40.49039 -35.338,-4.09353 z"
     fill="#3f3d56"
     id="path1956"
     style="fill:#1e3f66;fill-opacity:1" /><path
     d="m 874.08627,218.64498 c 0,0 -20.5094,-34.58577 -35.57098,-41.27186 l -19.92275,19.77581 40.06693,40.04408 59.4562,31.5844 a 11.15409,11.15409 0 1 0 9.4905,-16.68887 z"
     fill="#ffb6b6"
     id="path1958" /><path
     d="m 803.59354,179.71243 -10.99271,-15.43651 a 54.1067,54.1067 0 0 1 -9.25751,-40.515 v 0 a 23.68675,23.68675 0 0 1 16.65778,-18.6452 v 0 a 23.63089,23.63089 0 0 1 28.72919,14.68292 c 6.16209,17.08723 28.63858,45.17047 20.49918,55.05846 l 5.2928,4.05067 7.9988,22.78731 -29.45953,19.94153 z"
     fill="#3f3d56"
     id="path1960"
     style="fill:#1e3f66;fill-opacity:1" /><circle
     cx="760.41071"
     cy="45.752815"
     r="30.29866"
     fill="#ffb6b6"
     id="circle1962" /><path
     d="m 738.42218,67.108825 c -0.26447,-0.23195 -0.51409,-0.47962 -0.77257,-0.718 -0.009,0.0245 -0.0107,0.0495 -0.0206,0.0739 z"
     fill="#2f2e41"
     id="path1964"
     style="fill:#1e3f66;fill-opacity:1" /><path
     d="m 785.24028,13.757365 a 17.18191,17.18191 0 0 0 -6.06724,-5.8497304 25.38007,25.38007 0 0 0 -5.30373,-1.8792 l -4.795,-1.30828 a 38.01279,38.01279 0 0 0 -7.54406,-1.519 19.41849,19.41849 0 0 0 -17.73713,9.6226304 c -1.44868,2.56955 -2.61073,5.77154 -5.40672,6.71164 -2.2545,0.75806 -4.71428,-0.31122 -7.08371,-0.10378 a 8.52953,8.52953 0 0 0 -6.47573,4.77 18.38025,18.38025 0 0 0 -1.6989,8.14123 45.619,45.619 0 0 0 14.52158,34.048 c 0.782,-2.0613 -0.506,-4.28678 -1.52419,-6.25861 -1.03025,-1.99521 -1.66692,-4.77683 0.0586,-6.21382 1.92,-1.599 4.99614,-0.0484 7.26683,-1.09117 a 5.07328,5.07328 0 0 0 2.5361,-4.0766 c 0.21979,-1.65672 -0.01,-3.34077 0.0943,-5.00877 a 12.54224,12.54224 0 0 1 13.41165,-11.73009 c 5.16845,0.36919 10.18434,3.90094 15.15812,2.448 2.33471,-0.682 4.326,-2.41847 6.74066,-2.71055 2.6742,-0.32351 5.18987,1.1857 7.46056,2.63484 a 26.59618,26.59618 0 0 0 -3.61198,-20.62674 z"
     fill="#2f2e41"
     id="path1966" /><path
     d="m 890.27927,573.35741 -7.71,-12.39 -1.54,7.08008 c -0.27,1.24 -0.54,2.5 -0.79,3.75 -2.19,-1.87011 -4.52,-3.60009 -6.7999,-5.26 q -10.5,-7.62012 -20.9902,-15.26 l 2.19,12.69995 c 1.3501,7.82007 2.7602,15.80005 6.1001,22.95 0.3701,0.81005 0.77,1.6101 1.2001,2.39013 h 32.54 a 10.48736,10.48736 0 0 0 0.54,-2.24011 0.77479,0.77479 0 0 0 0.01,-0.15 c 0.5104,-4.85008 -2.1698,-9.42003 -4.7499,-13.57005 z"
     fill="#f0f0f0"
     id="path1968" /><path
     d="m 2297.0589,1145.5793 -13.985,-22.474 -2.7934,12.8424 c -0.4898,2.2492 -0.9796,4.5347 -1.433,6.802 -3.9723,-3.3922 -8.1988,-6.5302 -12.334,-9.541 q -19.0457,-13.822 -38.0737,-27.6798 l 3.9722,23.0361 c 2.449,14.1847 5.0068,28.6594 11.0649,41.6285 0.6713,1.4693 1.3967,2.9205 2.177,4.3354 h 59.0236 a 19.0236,19.0236 0 0 0 0.9796,-4.0633 1.40483,1.40483 0 0 0 0.018,-0.2721 c 0.9256,-8.7973 -3.936,-17.0866 -8.6159,-24.6142 z"
     fill="#f0f0f0"
     id="path1970" /><path
     d="m 1492.8206,590.53509 -826.75006,0.30734 a 1.19069,1.19069 0 0 1 0,-2.38137 l 826.75006,-0.30734 a 1.19069,1.19069 0 0 1 0,2.38137 z"
     fill="#cacaca"
     id="path1972" /><path
     d="m 1766.9745,827.06636 v 287.02394 a 13.80575,13.80575 0 0 0 13.7948,13.7948 h 425.3401 a 13.80568,13.80568 0 0 0 13.7948,-13.7948 V 827.06636 a 13.81238,13.81238 0 0 0 -13.7948,-13.77956 h -425.3401 a 13.81244,13.81244 0 0 0 -13.7948,13.77956 z"
     fill="#3f3d56"
     id="path1974" /><path
     d="m 1776.9528,830.63761 v 279.91199 a 7.38533,7.38533 0 0 0 7.3725,7.3726 h 418.2434 a 7.38528,7.38528 0 0 0 7.3726,-7.3726 V 830.63761 a 7.38861,7.38861 0 0 0 -7.3726,-7.3879 h -418.2434 a 7.38866,7.38866 0 0 0 -7.3725,7.3879 z"
     fill="#ffffff"
     id="path1976" /><path
     d="m 1758.0789,1170.0676 a 8.27165,8.27165 0 0 0 6.5087,3.114 h 455.4392 a 8.3806,8.3806 0 0 0 8.192,-10.0996 l -7.0699,-33.5813 a 8.39574,8.39574 0 0 0 -5.2181,-6.088 8.12058,8.12058 0 0 0 -2.9738,-0.561 h -441.3276 a 8.11987,8.11987 0 0 0 -2.9738,0.561 8.395,8.395 0 0 0 -5.2181,6.088 l -7.0698,33.5813 a 8.37419,8.37419 0 0 0 1.7112,6.9856 z"
     fill="#2f2e41"
     id="path1978" /><rect
     x="-2209.7222"
     y="-1137.316"
     width="14.02732"
     height="8.4163904"
     rx="0.48819"
     transform="scale(-1)"
     fill="#3f3d56"
     id="rect1980" /><rect
     x="-2181.6675"
     y="-1137.316"
     width="14.02732"
     height="8.4163904"
     rx="0.48819"
     transform="scale(-1)"
     fill="#3f3d56"
     id="rect1982" /><rect
     x="-2153.613"
     y="-1137.316"
     width="14.02732"
     height="8.4163904"
     rx="0.48819"
     transform="scale(-1)"
     fill="#3f3d56"
     id="rect1984" /><rect
     x="-2125.5583"
     y="-1137.316"
     width="14.02732"
     height="8.4163904"
     rx="0.48819"
     transform="scale(-1)"
     fill="#3f3d56"
     id="rect1986" /><rect
     x="-2097.5037"
     y="-1137.316"
     width="14.02732"
     height="8.4163904"
     rx="0.48819"
     transform="scale(-1)"
     fill="#3f3d56"
     id="rect1988" /><rect
     x="-2069.449"
     y="-1137.316"
     width="14.02732"
     height="8.4163904"
     rx="0.48819"
     transform="scale(-1)"
     fill="#3f3d56"
     id="rect1990" /><rect
     x="-2041.3944"
     y="-1137.316"
     width="14.02732"
     height="8.4163904"
     rx="0.48819"
     transform="scale(-1)"
     fill="#3f3d56"
     id="rect1992" /><rect
     x="-2013.3397"
     y="-1137.316"
     width="14.02732"
     height="8.4163904"
     rx="0.48819"
     transform="scale(-1)"
     fill="#3f3d56"
     id="rect1994" /><rect
     x="-1985.2852"
     y="-1137.316"
     width="14.02732"
     height="8.4163904"
     rx="0.48819"
     transform="scale(-1)"
     fill="#3f3d56"
     id="rect1996" /><rect
     x="-1957.2305"
     y="-1137.316"
     width="14.02732"
     height="8.4163904"
     rx="0.48819"
     transform="scale(-1)"
     fill="#3f3d56"
     id="rect1998" /><rect
     x="-1929.1759"
     y="-1137.316"
     width="14.02732"
     height="8.4163904"
     rx="0.48819"
     transform="scale(-1)"
     fill="#3f3d56"
     id="rect2000" /><rect
     x="-1901.1212"
     y="-1137.316"
     width="14.02732"
     height="8.4163904"
     rx="0.48819"
     transform="scale(-1)"
     fill="#3f3d56"
     id="rect2002" /><rect
     x="-1873.0665"
     y="-1137.316"
     width="14.02732"
     height="8.4163904"
     rx="0.48819"
     transform="scale(-1)"
     fill="#3f3d56"
     id="rect2004" /><rect
     x="-1845.0118"
     y="-1137.316"
     width="14.02732"
     height="8.4163904"
     rx="0.48819"
     transform="scale(-1)"
     fill="#3f3d56"
     id="rect2006" /><rect
     x="-1816.9573"
     y="-1137.316"
     width="14.02732"
     height="8.4163904"
     rx="0.48819"
     transform="scale(-1)"
     fill="#3f3d56"
     id="rect2008" /><rect
     x="-1788.9026"
     y="-1137.316"
     width="14.02732"
     height="8.4163904"
     rx="0.48819"
     transform="scale(-1)"
     fill="#3f3d56"
     id="rect2010" /><rect
     x="-2210.0537"
     y="-1151.3433"
     width="14.02732"
     height="8.4163904"
     rx="0.48819"
     transform="scale(-1)"
     fill="#3f3d56"
     id="rect2012" /><rect
     x="-2181.999"
     y="-1151.3433"
     width="14.02732"
     height="8.4163904"
     rx="0.48819"
     transform="scale(-1)"
     fill="#3f3d56"
     id="rect2014" /><rect
     x="-2153.9443"
     y="-1151.3433"
     width="14.02732"
     height="8.4163904"
     rx="0.48819"
     transform="scale(-1)"
     fill="#3f3d56"
     id="rect2016" /><rect
     x="-2125.8899"
     y="-1151.3433"
     width="14.02732"
     height="8.4163904"
     rx="0.48819"
     transform="scale(-1)"
     fill="#3f3d56"
     id="rect2018" /><rect
     x="-2097.8352"
     y="-1151.3433"
     width="14.02732"
     height="8.4163904"
     rx="0.48819"
     transform="scale(-1)"
     fill="#3f3d56"
     id="rect2020" /><rect
     x="-2069.7805"
     y="-1151.3433"
     width="14.02732"
     height="8.4163904"
     rx="0.48819"
     transform="scale(-1)"
     fill="#3f3d56"
     id="rect2022" /><rect
     x="-2041.726"
     y="-1151.3433"
     width="14.02732"
     height="8.4163904"
     rx="0.48819"
     transform="scale(-1)"
     fill="#3f3d56"
     id="rect2024" /><rect
     x="-2013.6713"
     y="-1151.3433"
     width="14.02732"
     height="8.4163904"
     rx="0.48819"
     transform="scale(-1)"
     fill="#3f3d56"
     id="rect2026" /><rect
     x="-1985.6167"
     y="-1151.3433"
     width="14.02732"
     height="8.4163904"
     rx="0.48819"
     transform="scale(-1)"
     fill="#3f3d56"
     id="rect2028" /><rect
     x="-1957.562"
     y="-1151.3433"
     width="14.02732"
     height="8.4163904"
     rx="0.48819"
     transform="scale(-1)"
     fill="#3f3d56"
     id="rect2030" /><rect
     x="-1929.5073"
     y="-1151.3433"
     width="14.02732"
     height="8.4163904"
     rx="0.48819"
     transform="scale(-1)"
     fill="#3f3d56"
     id="rect2032" /><rect
     x="-1901.4526"
     y="-1151.3433"
     width="14.02732"
     height="8.4163904"
     rx="0.48819"
     transform="scale(-1)"
     fill="#3f3d56"
     id="rect2034" /><rect
     x="-1873.3981"
     y="-1151.3433"
     width="14.02732"
     height="8.4163904"
     rx="0.48819"
     transform="scale(-1)"
     fill="#3f3d56"
     id="rect2036" /><rect
     x="-1845.3434"
     y="-1151.3433"
     width="14.02732"
     height="8.4163904"
     rx="0.48819"
     transform="scale(-1)"
     fill="#3f3d56"
     id="rect2038" /><rect
     x="-1817.2888"
     y="-1151.3433"
     width="14.02732"
     height="8.4163904"
     rx="0.48819"
     transform="scale(-1)"
     fill="#3f3d56"
     id="rect2040" /><rect
     x="-1789.2341"
     y="-1151.3433"
     width="14.02732"
     height="8.4163904"
     rx="0.48819"
     transform="scale(-1)"
     fill="#3f3d56"
     id="rect2042" /><rect
     x="-2044.3915"
     y="-1168.1761"
     width="112.21856"
     height="8.4163904"
     rx="0.48819"
     transform="scale(-1)"
     fill="#3f3d56"
     id="rect2044" /><path
     d="m 2088.7271,526.23108 a 94.6422,94.6422 0 1 1 -5.992,-33.32682 c 0.2064,0.55577 0.4076,1.11153 0.6034,1.67265 v 0.005 q 1.3102,3.7 2.3079,7.5377 a 95.28577,95.28577 0 0 1 3.0807,24.11117 z"
     fill="#3f3d56"
     id="path2046" /><path
     d="m 1983.0227,461.94681 a 31.96838,31.96838 0 0 0 -28.0652,-1.14823 c -3.924,1.70774 -8.0558,4.77121 -9.3649,10.30328 5.2943,-3.1245 12.1477,1.8122 13.51,9.73171 l -0.318,0.0877 c -0.7195,5.48535 0.8868,11.45743 3.9967,14.85876 a 10.45064,10.45064 0 0 1 5.0162,-7.43955 c 2.2849,-1.502 4.8126,-2.59313 6.5566,-5.17495 2.0675,-3.06077 2.5926,-7.53407 3.4139,-11.6148 0.8213,-4.08073 2.3796,-8.46681 5.2547,-9.6039 z"
     fill="#6c63ff"
     id="path2048" /><path
     d="m 1953.3871,508.62544 c -1.4663,2.202 -3.4248,3.5836 -5.1821,5.30394 a 11.92961,11.92961 0 0 0 -3.7689,7.04539 c -0.2223,1.91619 0.1217,3.8641 0.074,5.80154 -0.048,1.93731 -0.6934,4.11816 -2.0114,4.59988 -2.0803,0.75161 -3.6683,-3.11249 -5.8068,-3.38245 -1.6992,-0.21175 -3.2289,2.46141 -2.7367,4.77989 0.4923,2.31848 2.8055,3.34536 4.1341,1.83148 1.2016,2.01672 0.3547,5.6745 -1.4503,6.29378 -0.1906,1.27041 -0.3811,2.53553 -0.5664,3.80588 -4.5629,-3.1919 -9.1734,-6.43665 -13.0534,-11.11071 a 33.725,33.725 0 0 1 -7.6859,-18.16669 c -0.5028,-5.37275 0.2435,-11.51831 -2.2232,-15.65237 -1.9744,-3.30833 -5.3622,-4.03888 -8.4112,-3.83237 -0.5557,0.037 -1.1168,0.10055 -1.6726,0.16936 a 94.237,94.237 0 0 1 6.8231,-15.61534 6.68485,6.68485 0 0 0 1.7097,-1.064 c 2.8373,-2.40843 4.0971,-7.28364 6.3997,-10.65549 q 0.2223,-0.32556 0.4605,-0.63517 c 2.3556,-3.07546 5.5104,-4.65816 8.5593,-6.12973 6.749,-3.27654 13.6938,-6.59547 20.8187,-6.14025 l -2.0273,0.19585 q -3.5492,9.9409 -7.1037,19.8818 -0.54,1.52442 -1.0904,3.05426 c -1.3445,3.76879 -2.7314,7.78118 -2.5249,12 0.1217,2.49844 0.9898,5.1663 2.6413,6.02382 1.5404,0.794 3.2237,-0.18 4.711,-1.14338 0.63,-0.4023 1.2546,-0.8046 1.8845,-1.21219 2.2603,-1.45567 4.764,-2.94836 7.1513,-1.97441 2.1862,0.88931 3.8006,3.85886 4.1076,7.06136 a 14.11737,14.11737 0 0 1 -2.1597,8.86632 z"
     fill="#6c63ff"
     id="path2050" /><path
     d="m 1966.8299,553.87135 q -9.9019,-6.09673 -19.8039,-12.19347 l 0.112,-0.28861 c -4.1044,1.56328 -5.8084,8.85905 -5.1301,14.82542 0.6783,5.96637 2.9783,11.3 4.1402,17.11348 a 45.42467,45.42467 0 0 1 -1.7126,23.83542 195.2048,195.2048 0 0 0 22.9309,-31.59788 16.905,16.905 0 0 0 2.0742,-4.59929 7.31677,7.31677 0 0 0 -0.485,-5.204 5.7936,5.7936 0 0 0 -2.1257,-1.89107 z"
     fill="#6c63ff"
     id="path2052" /><path
     d="m 1940.7768,479.92597 a 7.29941,7.29941 0 0 0 -0.3345,5.30833 5.884,5.884 0 0 0 3.2874,3.04476 l 3.6476,1.808 c 1.2134,0.60148 2.5214,1.209 3.7584,0.71411 1.492,-0.59688 2.5265,-2.936 2.2589,-5.10748 -0.2848,-2.31078 -1.7414,-3.90028 -3.0885,-5.25387 q -2.8277,-2.84131 -5.6555,-5.68264 l -1.0624,1.30127 a 14.18913,14.18913 0 0 0 -2.8114,3.86752 z"
     fill="#6c63ff"
     id="path2054" /><path
     d="m 2069.1735,504.62895 q 2.4615,0.5796 4.9228,1.15921 c -0.2858,5.54217 -3.0331,10.67144 -6.7172,12.52935 -1.5351,0.77287 -3.2448,1.05866 -4.5152,2.5038 -1.1486,1.31273 -1.731,3.35589 -2.2656,5.30916 q -1.4054,5.11341 -2.8108,10.2267 c -1.0057,3.67361 -2.2972,7.75481 -4.9121,9.07815 -2.2444,1.138 -4.8117,-0.25414 -6.5373,-2.58852 -1.7256,-2.33431 -2.779,-5.47329 -3.8006,-8.53279 0.063,3.33477 -1.4874,6.60607 -3.6842,7.76528 -2.202,1.15921 -4.8805,0.11114 -6.352,-2.47724 -1.0587,-1.858 -1.498,-4.30885 -2.5355,-6.19324 -1.0375,-1.88439 -3.213,-2.96426 -4.3458,-1.1963 -0.7464,1.17517 -0.6512,2.97485 -1.0217,4.46761 a 4.85129,4.85129 0 0 1 -4.0546,3.90118 6.7615,6.7615 0 0 1 -4.854,-2.21794 21.98809,21.98809 0 0 1 -6.0291,-12.15877 14.50451,14.50451 0 0 1 0.1694,-6.64846 c 0.6511,-2.059 2.2232,-3.647 3.7847,-3.25535 1.0269,-2.17032 -1.0004,-5.04986 -2.8266,-4.79579 -1.8316,0.25407 -3.266,2.21787 -4.7693,3.72652 -1.498,1.50859 -3.5942,2.60428 -5.1028,1.10629 a 2.0699,2.0699 0 0 1 -2.1015,2.19675 7.50624,7.50624 0 0 1 -2.7366,-1.45037 c -3.4565,-2.15442 -7.8447,-0.72518 -10.3009,3.35066 1.5351,-6.532 3.7848,-14.02734 8.5011,-15.56242 1.9269,-0.62987 4.0283,-0.11114 5.8492,-1.2016 3.2237,-1.932 3.8747,-9.23154 1.0904,-12.24342 0.3546,2.84776 0.2859,6.172 -1.2175,8.12 -1.5033,1.948 -4.6581,0.6775 -4.4675,-2.202 a 1.92912,1.92912 0 0 1 -3.5889,0.7622 c -1.0005,-1.52441 -0.9157,-4.01755 -0.2065,-5.83849 a 13.75243,13.75243 0 0 1 3.086,-4.3829 c 2.5144,-2.69429 5.0658,-5.42037 7.9771,-7.11428 2.9167,-1.69384 6.2832,-2.2655 9.2051,-0.58219 1.5404,0.88925 2.8955,2.37141 4.4676,3.15481 a 3.31073,3.31073 0 0 0 4.6105,-1.154 c 1.1698,-2.05381 0.6193,-5.10278 1.0534,-7.67 0.7781,-4.53636 5.3145,-6.659 7.8288,-3.663 -1.8791,-0.48165 -3.8218,1.74152 -4.0547,4.43588 -0.2382,2.69429 1.1222,5.41507 2.9431,6.23026 3.0596,1.35506 6.0556,-2.05388 8.3688,-5.20868 q 3.6206,-4.95456 7.2519,-9.90381 a 11.96908,11.96908 0 0 1 1.2968,-1.57741 4.1729,4.1729 0 0 1 5.7009,-0.11643 c 2.4455,1.99553 3.5942,6.08733 5.6004,8.90336 2.9113,4.09173 7.2678,5.08688 11.3224,5.88088 q 4.5337,0.88134 9.0729,1.77326 a 94.00511,94.00511 0 0 1 5.2668,11.6295 31.8751,31.8751 0 0 0 -13.5616,11.72459 z"
     fill="#6c63ff"
     id="path2056" /><path
     d="m 2085.6464,502.11991 a 19.07933,19.07933 0 0 0 -1.0058,5.66914 c -2.5937,-3.1654 -3.0066,-9.09921 -1.3022,-13.20684 q 1.3103,3.70002 2.308,7.5377 z"
     fill="#6c63ff"
     id="path2058" /><path
     d="m 2078.945,568.31839 a 94.89528,94.89528 0 0 1 -7.8871,13.19625 c -1.9055,-0.81519 -3.9541,0.64047 -5.738,2.00619 -1.8632,1.42918 -4.1023,2.82133 -6.0132,1.51919 -1.9532,-1.33393 -2.5831,-5.06569 -1.9638,-8.02471 a 21.38162,21.38162 0 0 1 3.663,-7.53771 c 1.588,-2.3714 3.2871,-4.83282 5.4945,-5.75385 2.2126,-0.921 5.055,0.3811 5.7009,3.52538 l 1.5668,-0.053 c -0.8787,-1.20683 -0.4181,-3.70533 0.7623,-4.14466 1.3603,-0.51343 2.5408,1.35507 3.3453,3.00665 0.36,0.74632 0.7252,1.498 1.0693,2.26027 z"
     fill="#6c63ff"
     id="path2060" /><path
     d="m 2018.9368,545.95977 c -3.3678,0.21179 -6.0355,-3.93417 -7.8081,-8.0128 -1.7727,-4.07863 -3.3902,-8.74292 -6.429,-10.81895 -1.7363,-1.18627 -3.7158,-1.349 -5.5992,-1.92387 a 6.933,6.933 0 0 1 -4.755,-4.18646 l -2.1363,-0.863 a 32.08362,32.08362 0 0 0 -8.1111,5.78345 18.12816,18.12816 0 0 0 -4.8331,10.56615 c -0.4081,4.27615 1.0989,9.04425 3.9147,10.65059 2.2249,1.26929 4.8153,0.46924 7.069,1.63125 2.8157,1.45174 4.4874,5.669 5.1203,9.833 0.6328,4.164 0.4724,8.49135 0.9252,12.70259 0.4527,4.21124 1.7005,8.59321 4.2828,10.7513 3.2314,2.7006 7.973,0.45652 9.4228,-4.45951 0.7111,-2.4114 0.6866,-5.13239 1.2185,-7.63552 0.9367,-4.40816 3.4642,-7.67863 5.4689,-11.29463 2.0048,-3.616 3.5829,-8.52713 2.2496,-12.72359 z"
     fill="#6c63ff"
     id="path2062" /><path
     d="m 1985.6579,502.64363 a 8.98853,8.98853 0 0 1 0.877,0.931 3.05876,3.05876 0 0 1 -0.054,3.15866 2.93857,2.93857 0 0 0 2.1045,-1.06958 13.52846,13.52846 0 0 0 1.6135,-2.27287 2.47728,2.47728 0 0 0 0.4757,-1.98266 c -0.1591,-0.45405 -0.5353,-0.64773 -0.799,-0.98921 a 6.722,6.722 0 0 1 -0.7381,-2.14373 3.86638,3.86638 0 0 0 -2.802,-2.95294 l 0.1688,0.0323 a 1.60089,1.60089 0 0 0 -0.7499,1.70532 c 0.1023,0.66055 0.5267,1.20894 0.4845,1.88263 -0.061,0.96873 -1.0289,1.42333 -1.0887,2.39219 a 1.84937,1.84937 0 0 0 0.5076,1.30889 z"
     fill="#6c63ff"
     id="path2064" /><path
     d="m 1979.8878,486.18123 0.015,-0.003 a 2.69667,2.69667 0 0 0 0.2873,-0.30608 z"
     fill="#6c63ff"
     id="path2066" /><path
     d="m 1980.8978,490.72841 a 2.937,2.937 0 0 0 0.9143,-2.91143 c -0.2447,-1.10152 -1.1106,-1.84212 -1.9093,-1.63868 a 1.946,1.946 0 0 1 -1.8094,0.53269 c -0.4937,-0.12712 -1.0359,-0.4545 -1.4641,-0.0825 a 2.2167,2.2167 0 0 0 -0.4987,0.97379 q -0.2378,0.72994 -0.4756,1.45973 a 0.92111,0.92111 0 0 0 -0.056,0.55318 0.46863,0.46863 0 0 0 0.3594,0.28569 q 1.4266,0.42059 2.8532,0.84114 a 2.45818,2.45818 0 0 0 2.0864,-0.0136 z"
     fill="#6c63ff"
     id="path2068" /><path
     d="m 2052.6975,553.50684 q -0.6595,-1.07964 -1.3189,-2.15937 a 7.2143,7.2143 0 0 0 -1.738,-2.18223 1.54,1.54 0 0 0 -2.1924,0.21963 l 0.053,0.41113 a 9.28528,9.28528 0 0 1 2.3165,4.51983 c 0.1002,0.73559 0.065,1.4969 0.1533,2.23569 a 2.60718,2.60718 0 0 0 0.8145,1.82346 c 0.6923,0.46249 1.5051,-0.21941 1.9978,-1.05147 a 3.62028,3.62028 0 0 0 0.561,-2.30457 4.04118,4.04118 0 0 0 -0.6473,-1.5121 z"
     fill="#6c63ff"
     id="path2070" /><path
     d="m 2059.5942,554.44355 a 4.98377,4.98377 0 0 0 -0.1609,-2.00962 4.41143,4.41143 0 0 1 0.6713,-2.501 8.13046,8.13046 0 0 0 1.046,-2.29325 1.91833,1.91833 0 0 0 -0.05,-1.12305 c -0.1455,-0.32692 -0.498,-0.476 -0.7002,-0.21717 l 0.4327,0.27866 a 3.94014,3.94014 0 0 0 -1.7559,0.085 2.17318,2.17318 0 0 0 -1.3307,1.50014 9.28173,9.28173 0 0 1 -0.349,1.55644 c -0.2581,0.5305 -0.7577,0.70694 -1.0717,1.17258 a 2.80356,2.80356 0 0 0 0.044,2.66342 3.10885,3.10885 0 0 0 1.7585,1.38287 c 0.5285,0.18966 1.2242,0.19966 1.466,-0.49502 z"
     fill="#6c63ff"
     id="path2072" /><path
     d="m 2071.8759,558.14909 a 6.0421,6.0421 0 0 0 0.761,1.39674 c 0.588,0.59227 1.3871,0.2283 2.1005,0.0843 a 3.63157,3.63157 0 0 1 3.4547,1.3857 8.79343,8.79343 0 0 0 -5.0575,-6.30967 14.8567,14.8567 0 0 0 -5.2012,-0.81336 l -0.3021,0.0774 c 0.7697,2.24052 3.1867,2.19039 4.2446,4.17884 z"
     fill="#6c63ff"
     id="path2074" /><path
     d="m 2019.8581,562.73173 v 0.01 l 0.088,-0.16923 z"
     fill="#6c63ff"
     id="path2076" /><path
     d="m 2017.9949,566.33815 a 16.55493,16.55493 0 0 0 -1.0453,2.29622 19.98625,19.98625 0 0 0 -0.7576,3.929 c -0.095,0.75721 -0.1238,1.7243 0.3505,2.09328 a 0.67292,0.67292 0 0 0 0.8804,-0.11956 3.4822,3.4822 0 0 0 0.6381,-0.94856 21.85209,21.85209 0 0 0 2.1543,-5.113 8.89727,8.89727 0 0 0 -0.3528,-5.734 q -0.9338,1.79831 -1.8676,3.59662 z"
     fill="#6c63ff"
     id="path2078" /><path
     d="m 2000.0205,470.25574 a 2.12122,2.12122 0 0 0 2.2861,0.44616 7.54833,7.54833 0 0 0 2.151,-1.42082 5.06056,5.06056 0 0 0 1.3039,-1.42246 2.88489,2.88489 0 0 0 0.2667,-2.19764 2.23225,2.23225 0 0 0 -1.7014,-1.34588 q -1.5835,-0.46959 -3.167,-0.93912 l 0.7637,-0.68829 c -0.7857,-0.42167 -1.6549,0.36091 -2.146,1.32977 a 7.15885,7.15885 0 0 0 -0.6515,2.00533 5.14759,5.14759 0 0 0 0.8945,4.23295 z"
     fill="#6c63ff"
     id="path2080" /><path
     d="m 2018.6581,463.9989 a 1.74391,1.74391 0 0 0 2.3769,0.19336 2.657,2.657 0 0 0 1.0512,-1.89349 c 0.075,-0.83037 -0.3358,-1.7533 -0.9222,-1.825 l 0.1342,-0.77746 c -1.1296,-0.204 -2.5197,-0.24486 -3.125,1.12692 a 3.22068,3.22068 0 0 0 0.4849,3.17567 z"
     fill="#6c63ff"
     id="path2082" /><path
     d="m 2187.1088,873.92327 h -387.3235 a 1.01559,1.01559 0 0 1 0,-2.03069 h 387.3235 a 1.01559,1.01559 0 0 1 0,2.03069 z"
     fill="#cacaca"
     id="path2084" /><ellipse
     cx="1822.1405"
     cy="848.53961"
     rx="10.92534"
     ry="11.16881"
     fill="#3f3d56"
     id="ellipse2086" /><ellipse
     cx="1859.8826"
     cy="848.53961"
     rx="10.92534"
     ry="11.16881"
     fill="#3f3d56"
     id="ellipse2088" /><ellipse
     cx="1897.6246"
     cy="848.53961"
     rx="10.92534"
     ry="11.16881"
     fill="#3f3d56"
     id="ellipse2090" /><path
     d="m 2164.4917,840.1391 h -26.81 a 2.0304,2.0304 0 0 0 0,4.06 h 26.81 a 2.0304,2.0304 0 0 0 0,-4.06 z"
     fill="#3f3d56"
     id="path2092" /><path
     d="m 2164.4917,847.7591 h -26.81 a 2.0304,2.0304 0 0 0 0,4.06 h 26.81 a 2.0304,2.0304 0 0 0 0,-4.06 z"
     fill="#3f3d56"
     id="path2094" /><path
     d="m 2164.4917,855.3691 h -26.81 a 2.0304,2.0304 0 0 0 0,4.06 h 26.81 a 2.0304,2.0304 0 0 0 0,-4.06 z"
     fill="#3f3d56"
     id="path2096" /><g
     opacity="0.35"
     id="g2100"
     transform="translate(1507.5766,122.19106)"><path
       d="m 875.22825,564.89606 c 6.234,-2.71811 -6.4085,-4.30042 -20.752,-4.82066 -14.3435,-0.52024 -31.695,-0.49146 -40.86127,-1.97121 -8.86513,-1.43113 -8.21194,-3.97577 -8.95766,-6.2813 -0.74572,-2.30553 -4.15383,-4.66951 -17.98695,-5.182 -17.23785,-0.63864 -45.6641,1.81965 -58.67678,0.34379 -12.14326,-1.37725 -4.925,-5.6974 -22.632,-5.86274 -10.11121,-0.0944 -23.13723,1.32986 -34.388,1.67358 a 125.35792,125.35792 0 0 1 -23.86052,-1.244 c -5.48377,-0.89845 -9.30325,-2.03749 -15.475,-2.83107 -16.20333,-2.08349 -47.90478,-1.38316 -76.19949,1.28712 -28.29471,2.67028 -52.54848,7.04636 -66.22683,11.38066 -13.67835,4.3343 -17.45735,8.60177 -14.27114,12.22052 2.03457,2.31081 7.241,4.47154 19.87043,5.4001 23.62257,1.73681 65.68047,-1.25272 90.09036,0.32746 13.60468,0.8807 19.64029,3.06422 31.577,4.259 12.824,1.28361 31.59716,1.35165 50.04182,1.3212 38.4041,-0.0634 77.7905,-0.458 117.95262,-1.18157 16.775,-0.30225 34.35193,-0.69519 52.202,-2.13554 17.85007,-1.44035 36.05643,-4.21941 39.82235,-6.82467"
       transform="translate(-185.43432,-156.16183)"
       fill="#ffffff"
       id="path2098" /></g><g
     id="g2286"
     transform="translate(-62.622778,18.17707)"><path
       id="uuid-fb6bba6d-324d-4625-a98c-3d990729dcd8-114-164-127-1824"
       d="m 294.36,308.7 c 1.69,8.48 7.72,13.98 13.47,12.28 5.75,-1.7 9.04,-9.96 7.35,-18.44 -0.63,-3.4 -2.11,-6.52 -4.32,-9.07 l -7.63,-35.8 -17.84,5.88 9.42,34.67 c -1.01,3.51 -1.16,7.11 -0.43,10.48 0,0 0,0 0,0 z"
       fill="#f8a8ab" /><rect
       x="254.14"
       y="514.38"
       width="20.940001"
       height="29.709999"
       transform="rotate(180,264.615,529.235)"
       fill="#f8a8ab"
       id="rect2226" /><path
       d="m 272.77,561.11 c -3.58,0.32 -21.5,1.74 -22.4,-2.37 -0.82,-3.77 0.39,-7.71 0.56,-8.25 1.72,-17.14 2.36,-17.33 2.75,-17.44 0.61,-0.18 2.39,0.67 5.28,2.53 l 0.18,0.12 0.04,0.21 c 0.05,0.27 1.33,6.56 7.4,5.59 4.16,-0.66 5.51,-1.58 5.94,-2.03 -0.35,-0.16 -0.79,-0.44 -1.1,-0.92 -0.45,-0.7 -0.53,-1.6 -0.23,-2.68 0.78,-2.85 3.12,-7.06 3.22,-7.23 l 0.27,-0.48 23.8,16.06 14.7,4.2 c 1.11,0.32 2,1.11 2.45,2.17 v 0 c 0.62,1.48 0.24,3.2 -0.96,4.28 -2.67,2.4 -7.97,6.51 -13.54,7.02 -1.48,0.14 -3.44,0.19 -5.64,0.19 -9.19,0 -22.61,-0.95 -22.71,-0.97 z"
       fill="#2f2e43"
       id="path2228" /><rect
       x="196.13"
       y="514.38"
       width="20.940001"
       height="29.709999"
       transform="rotate(180,206.605,529.235)"
       fill="#f8a8ab"
       id="rect2230" /><path
       d="m 214.76,561.11 c -3.58,0.32 -21.5,1.74 -22.4,-2.37 -0.82,-3.77 0.39,-7.71 0.56,-8.25 1.72,-17.14 2.36,-17.33 2.75,-17.44 0.61,-0.18 2.39,0.67 5.28,2.53 l 0.18,0.12 0.04,0.21 c 0.05,0.27 1.33,6.56 7.4,5.59 4.16,-0.66 5.51,-1.58 5.94,-2.03 -0.35,-0.16 -0.79,-0.44 -1.1,-0.92 -0.45,-0.7 -0.53,-1.6 -0.23,-2.68 0.78,-2.85 3.12,-7.06 3.22,-7.23 l 0.27,-0.48 23.8,16.06 14.7,4.2 c 1.11,0.32 2,1.11 2.45,2.17 v 0 c 0.62,1.48 0.24,3.2 -0.96,4.28 -2.67,2.4 -7.97,6.51 -13.54,7.02 -1.48,0.14 -3.44,0.19 -5.64,0.19 -9.19,0 -22.61,-0.95 -22.71,-0.97 z"
       fill="#2f2e43"
       id="path2232" /><polygon
       points="245.58,64.21 216.12,64.21 213.11,100.28 245.58,110.95 "
       fill="#f8a8ab"
       id="polygon2234" /><circle
       cx="241.56"
       cy="44.799999"
       r="32.349998"
       fill="#f8a8ab"
       id="circle2236" /><path
       d="m 233.32,47.33 4.46,5.41 8.07,-14.12 c 0,0 10.3,0.53 10.3,-7.11 0,-7.64 9.45,-7.86 9.45,-7.86 0,0 13.37,-23.35 -14.33,-17.2 0,0 -19.21,-13.16 -28.77,-1.91 0,0 -29.3,14.75 -20.91,40.44 l 13.93,26.48 3.16,-5.99 c 0,0 -1.91,-25.16 14.65,-18.15 z"
       fill="#2f2e43"
       id="path2238" /><path
       d="m 328.8,349.01 -61.13,-19.65 c -7.54,-2.42 -15.64,1.63 -18.21,9.13 l -27.62,80.54 c -2.82,8.22 2.16,17.06 10.65,18.92 l 70.26,15.37 c 7.72,1.69 15.38,-3.1 17.24,-10.78 l 18.49,-76.26 c 1.79,-7.4 -2.43,-14.94 -9.68,-17.27 z"
       fill="#e2e3e4"
       id="path2242" /><path
       d="m 322.6,366 -3.94,-0.7 c 2.52,-14.32 6,-52.5 -8.05,-57.18 -6.81,-2.27 -13.67,1.7 -20.38,11.81 -5.27,7.95 -8.35,16.75 -8.38,16.84 l -3.78,-1.31 c 0.54,-1.55 13.39,-37.94 33.8,-31.14 20.17,6.72 11.12,59.43 10.72,61.67 z"
       fill="#2f2e43"
       id="path2244" /><polygon
       points="166.98,254.19 193.72,529.88 224.72,527.88 226.25,329.34 245.76,416.47 251.47,526.38 279.72,527.88 283,402.85 276.25,254.19 "
       fill="#2f2e43"
       id="polygon2246" /><polygon
       points="183.6,269.87 166.98,254.19 211.34,83.19 248.34,92.19 279.97,228.88 276.25,254.19 "
       fill="#6c63ff"
       id="polygon2248"
       inkscape:label="polygon2248"
       style="fill:#7e7e7e;fill-opacity:0.403922" /><polygon
       points="213.52,305.5 237,107.39 211.28,76.35 198.63,90.54 172.97,96.7 129.22,291.22 "
       fill="#2f2e43"
       id="polygon2250" /><polygon
       points="280.76,111.48 259.36,94.48 248.32,83.44 241.72,106.96 272.27,317.88 288.03,317.88 "
       fill="#2f2e43"
       id="polygon2252" /><path
       d="m 268.07,108.87 12.69,2.61 c 0,0 5.56,2.04 7.58,17.84 2.01,15.8 2.37,68.86 2.37,68.86 l 21.58,85.6 -24.51,8.08 -11.54,-46.06 -8.18,-136.94 z"
       fill="#2f2e43"
       id="path2254" /><polygon
       points="245.36,92.25 246.9,97.89 240.76,109.15 253.04,241.23 238.71,254.54 225.4,242.26 235.13,109.66 220.95,97.89 225.91,94.3 231.03,100.44 241.27,98.4 "
       fill="#2f2e43"
       id="polygon2256" /><path
       id="uuid-4155b336-10d9-4b14-826d-07551e167be9-115-165-128-1825"
       d="m 186.59,275.51 c 5.15,6.95 12.95,9.34 17.42,5.35 4.47,-3.99 3.92,-12.86 -1.23,-19.82 -2.02,-2.81 -4.69,-4.99 -7.79,-6.35 l -22.2,-29.11 -13.62,12.94 23.33,27.32 c 0.59,3.61 1.99,6.92 4.09,9.66 0,0 0,0 0,0 z"
       fill="#f8a8ab" /><path
       d="M 183.11,99.89 172.97,96.7 c 0,0 -13.74,3.41 -18.29,20.57 l -22.21,83.6 37.67,66.12 20.13,-24.44 -18.96,-60.7 11.81,-81.96 z"
       fill="#2f2e43"
       id="path2259" /></g><g
     id="g5208"
     transform="matrix(0.59130887,0,0,0.56670494,1773.6811,876.00088)"><path
       d="m 743.934,373.90525 h -14.13569 a 1.81781,1.81781 0 0 1 -1.81577,-1.64688 l -2.82949,-29.00177 h 23.42618 l -2.82948,29.0014 a 1.81784,1.81784 0 0 1 -1.81575,1.64725 z"
       transform="translate(-228.14818,-241.75)"
       fill="#e6e6e6"
       id="path5055" /><path
       d="m 748.54182,346.90525 h -23.35135 a 1.82648,1.82648 0 0 1 -1.82433,-1.82433 v -4.37838 a 1.82647,1.82647 0 0 1 1.82433,-1.82432 h 23.35135 a 1.82647,1.82647 0 0 1 1.82432,1.82432 v 4.37838 a 1.82648,1.82648 0 0 1 -1.82432,1.82433 z"
       transform="translate(-228.14818,-241.75)"
       fill="#cccccc"
       id="path5057" /><path
       d="m 578.54867,342.75 h -56 v -17 c 17.6958,-12.31482 33.37451,-11.24438 54,1 z"
       transform="translate(-228.14818,-241.75)"
       fill="#6c63ff"
       id="path5059" /><polygon
       points="281.435,355.669 281.433,402.957 269.173,402.956 267.34,355.668 "
       fill="#ffb8b8"
       id="polygon5061" /><path
       d="m 512.70726,656.59064 -39.53051,-10e-4 v -0.5 a 15.38605,15.38605 0 0 1 15.38647,-15.38624 h 10e-4 l 24.1438,10e-4 z"
       transform="translate(-228.14818,-241.75)"
       fill="#2f2e41"
       id="path5063" /><polygon
       points="350.484,355.669 350.486,402.957 362.746,402.956 364.579,355.668 "
       fill="#ffb8b8"
       id="polygon5065" /><path
       d="m 575.50745,640.70392 24.1438,-0.001 h 10e-4 a 15.38605,15.38605 0 0 1 15.38647,15.38624 v 0.5 l -39.53051,10e-4 z"
       transform="translate(-228.14818,-241.75)"
       fill="#2f2e41"
       id="path5067" /><path
       d="m 578.9566,638.646 a 4.52007,4.52007 0 0 1 -4.394,-3.52247 L 544.17608,502.58446 a 1.45735,1.45735 0 0 0 -1.46411,-1.17383 h -0.008 a 1.45832,1.45832 0 0 0 -1.4602,1.18848 l -27.90454,131.64551 a 4.52164,4.52164 0 0 1 -4.40235,3.5664 h -13.29272 a 4.50015,4.50015 0 0 1 -4.49219,-4.76562 l 9.90088,-166.85547 3.98413,-1.17871 0.0747,0.001 78.25806,0.68457 16.66748,166.67187 a 4.49788,4.49788 0 0 1 -4.11646,4.92188 l -16.604,1.34082 q -0.18127,0.0146 -0.3606,0.0146 z"
       transform="translate(-228.14818,-241.75)"
       fill="#2f2e41"
       id="path5069" /><circle
       cx="318.49103"
       cy="45.97086"
       r="24.561029"
       fill="#ffb8b8"
       id="circle5071" /><path
       d="m 531.59308,484.48388 a 42.39306,42.39306 0 0 1 -12.72754,-1.791 28.09708,28.09708 0 0 1 -17.03809,-14.375 4.50533,4.50533 0 0 1 -0.335,-3.35449 c 2.70874,-9.24512 15.79858,-57.30078 7.44678,-95.50293 a 40.48488,40.48488 0 0 1 5.75512,-31.11426 39.97674,39.97674 0 0 1 25.927,-17.43848 l 2.4e-4,-10e-4 c 1.38525,-0.27051 2.77808,-0.49219 4.13916,-0.66016 a 39.83567,39.83567 0 0 1 32.25781,10.61328 40.82033,40.82033 0 0 1 12.81568,32.36035 l -6.41895,103.00391 a 4.46,4.46 0 0 1 -2.398,3.70313 c -7.39248,3.87403 -29.59951,14.55665 -49.42421,14.55665 z"
       transform="translate(-228.14818,-241.75)"
       fill="#3f3d56"
       id="path5073" /><path
       d="M 574.38563,269.64169 A 30.15573,30.15573 0 0 0 541.33294,251.058 l 7.744,6.2578 c -9.62156,0.324 -19.74953,-0.36491 -26.61937,6.37933 2.18707,-0.0607 5.05355,4.61731 7.24062,4.55664 -4.08894,0.0809 -7.79673,2.95387 -9.60282,6.62321 a 18.86524,18.86524 0 0 0 -1.114,11.99709 c 0.80759,4.00921 6.96813,13.40164 8.62633,17.14011 -0.28515,-9.77015 18.94922,-33.07441 28.3418,-30.64234 a 25.77238,25.77238 0 0 0 -11.90045,9.03527 34.90423,34.90423 0 0 1 20.70095,-3.38704 14.64993,14.64993 0 0 0 4.935,0.27623 6.02513,6.02513 0 0 0 3.57206,-9.62851 z"
       transform="translate(-228.14818,-241.75)"
       fill="#2f2e41"
       id="path5075" /><path
       d="m 529.90121,478.29883 a 4.50354,4.50354 0 0 1 -1.802,-0.38037 l -46.60059,-20.34033 a 4.47019,4.47019 0 0 1 -2.55322,-5.27686 l 30.84985,-116.53906 a 16.86544,16.86544 0 0 1 20.94068,-11.90332 l 12.33544,3.5205 -8.68383,146.68067 a 4.51257,4.51257 0 0 1 -2.146,3.56982 4.46616,4.46616 0 0 1 -2.34033,0.66895 z"
       transform="translate(-228.14818,-241.75)"
       fill="#6c63ff"
       id="path5077" /><path
       d="m 616.14877,452.3 -2.0503,-7.73 -2.96972,-11.24 -1.43018,-5.39 -2.96972,-11.21 -21.43018,-80.97 a 16.84727,16.84727 0 0 0 -20.93994,-11.9 l -12.33008,3.52 6.10986,103.17 0.63037,10.77 0.39991,6.79 v 0.01 l 0.63964,10.71 0.9004,15.23 a 4.53042,4.53042 0 0 0 4.48974,4.24 4.58256,4.58256 0 0 0 1.80029,-0.38 l 46.59961,-20.34 a 4.46627,4.46627 0 0 0 2.5503,-5.28 z"
       transform="translate(-228.14818,-241.75)"
       fill="#6c63ff"
       id="path5079" /><polygon
       points="378.581,174.98 381.55,186.19 330.621,199.57 329.99,188.8 "
       fill="#cccccc"
       id="polygon5081" /><polygon
       points="331.66,217.08 331.021,206.37 331.021,206.36 382.981,191.58 385.95,202.82 "
       fill="#cccccc"
       id="polygon5083" /><polygon
       points="260.53,175.75 308.181,191.12 307.55,201.69 257.601,186.81 "
       fill="#cccccc"
       id="polygon5085" /><polygon
       points="306.52,219.16 307.14,208.65 256.17,192.2 253.24,203.29 "
       fill="#cccccc"
       id="polygon5087" /><path
       d="m 485.20719,461.454 a 10.7427,10.7427 0 0 0 7.04354,-14.89081 l 23.962,-75.22559 -16.99143,-3.55858 -21.96889,73.75316 a 10.80091,10.80091 0 0 0 7.95476,19.92182 z"
       transform="translate(-228.14818,-241.75)"
       fill="#ffb8b8"
       id="path5089" /><path
       d="m 516.87787,334.35575 v 0 c 4.879,0.4977 7.62331,5.98353 6.41025,12.81414 l -5.82112,32.77838 c -0.43637,2.45712 -2.45848,4.40264 -4.13928,3.98249 l -19.69048,-4.922 c -1.51517,-0.37875 -2.07319,-2.53134 -1.21458,-4.68526 L 504.24337,344.67 c 2.56711,-6.43983 7.90417,-10.79677 12.6345,-10.31425 z"
       transform="translate(-228.14818,-241.75)"
       fill="#3f3d56"
       id="path5091" /><path
       d="m 546.54867,241.75 v 0 a 31.99347,31.99347 0 0 1 31.97461,31 h 6.02539 a 2.00006,2.00006 0 0 1 2,2 v 8 a 2.00006,2.00006 0 0 1 -2,2 h -68 a 2.00006,2.00006 0 0 1 -2,-2 v -9.00006 a 31.99981,31.99981 0 0 1 32,-31.99994 z"
       transform="translate(-228.14818,-241.75)"
       fill="#6c63ff"
       id="path5093" /><path
       d="M 550.37241,439.55485 H 536.23674 A 1.8178,1.8178 0 0 1 534.421,437.908 l -2.82948,-29.00177 h 23.42617 l -2.82948,29.00142 a 1.81783,1.81783 0 0 1 -1.8158,1.6472 z"
       transform="translate(-228.14818,-241.75)"
       fill="#e6e6e6"
       id="path5095" /><path
       d="M 554.98025,412.55485 H 531.6289 a 1.82648,1.82648 0 0 1 -1.82433,-1.82432 v -4.37838 a 1.82648,1.82648 0 0 1 1.82433,-1.82432 h 23.35135 a 1.82647,1.82647 0 0 1 1.82432,1.82432 v 4.37838 a 1.82647,1.82647 0 0 1 -1.82432,1.82432 z"
       transform="translate(-228.14818,-241.75)"
       fill="#cccccc"
       id="path5097" /><path
       d="m 543.60787,424.00154 a 10.52648,10.52648 0 0 1 1.62647,0.31919 l 37.64605,-32.28411 -2.20057,-11.84534 17.44265,-5.65757 5.93353,20.59129 a 8,8 0 0 1 -3.40935,8.97531 l -47.67746,30.1704 a 10.49709,10.49709 0 1 1 -9.36135,-10.26914 z"
       transform="translate(-228.14818,-241.75)"
       fill="#ffb8b8"
       id="path5099" /><path
       d="m 582.97837,337.06325 v 0 c 5.21164,-1.45893 10.4192,2.50789 12.16411,9.26592 l 8.3734,32.43014 c 0.62768,2.431 -0.59144,5.01448 -2.49556,5.28836 l -22.30669,3.20857 c -1.71648,0.2469 -3.22884,-1.51345 -3.29175,-3.8315 l -0.8661,-31.9132 c -0.18808,-6.93059 3.36978,-13.03382 8.42259,-14.44829 z"
       transform="translate(-228.14818,-241.75)"
       fill="#3f3d56"
       id="path5101" /><path
       d="m 882.81118,544.22005 a 167.50624,167.50624 0 0 1 -24.0754,-44.93174 4.30257,4.30257 0 0 1 2.03179,-5.17937 l 35.14526,-18.83159 a 4.24661,4.24661 0 0 1 3.72552,-0.15124 4.31917,4.31917 0 0 1 2.46132,2.884 102.32827,102.32827 0 0 0 22.44563,41.89074 4.318,4.318 0 0 1 1.03823,3.64653 4.2466,4.2466 0 0 1 -2.18939,3.01811 l -35.14526,18.83161 a 4.30257,4.30257 0 0 1 -5.4377,-1.17705 z"
       transform="translate(-228.14818,-241.75)"
       fill="#cccccc"
       id="path5103" /><path
       d="m 885.20949,542.41789 a 1.29855,1.29855 0 0 0 1.62208,0.335 l 35.1455,-18.832 a 1.24595,1.24595 0 0 0 0.65259,-0.897 1.31806,1.31806 0 0 0 -0.32495,-1.12793 105.34006,105.34006 0 0 1 -23.10693,-43.125 1.31862,1.31862 0 0 0 -0.75806,-0.895 1.24691,1.24691 0 0 0 -1.11035,0.0459 l -35.14478,18.83154 a 1.29832,1.29832 0 0 0 -0.61963,1.53711 164.50739,164.50739 0 0 0 23.64453,44.12744 z"
       transform="translate(-228.14818,-241.75)"
       fill="#ffffff"
       id="path5105" /><path
       d="m 898.22008,502.152 -19.14161,8.44958 a 3.00327,3.00327 0 0 1 -3.956,-1.533 l -0.47343,-1.07252 a 3.00327,3.00327 0 0 1 1.533,-3.956 l 19.1416,-8.44958 a 3.00328,3.00328 0 0 1 3.956,1.533 l 0.47344,1.07252 a 3.00328,3.00328 0 0 1 -1.533,3.956 z"
       transform="translate(-228.14818,-241.75)"
       fill="#cccccc"
       id="path5107" /><path
       d="m 905.22008,515.152 -19.14161,8.44958 a 3.00327,3.00327 0 0 1 -3.956,-1.533 l -0.47343,-1.07252 a 3.00327,3.00327 0 0 1 1.533,-3.956 l 19.1416,-8.44958 a 3.00328,3.00328 0 0 1 3.956,1.533 l 0.47344,1.07252 a 3.00328,3.00328 0 0 1 -1.533,3.956 z"
       transform="translate(-228.14818,-241.75)"
       fill="#cccccc"
       id="path5109" /><path
       d="m 860.32682,504.3196 a 10.74267,10.74267 0 0 1 -2.06222,-16.343 l -8.0725,-114.55784 23.253,2.25508 0.63868,112.18666 a 10.80091,10.80091 0 0 1 -13.757,16.45913 z"
       transform="translate(-228.14818,-241.75)"
       fill="#a0616a"
       id="path5111" /><path
       d="m 855.45584,411.91175 a 4.48168,4.48168 0 0 1 -1.85871,-3.40066 L 851.89328,377.635 a 12.39862,12.39862 0 0 1 24.34642,-3.92684 l 7.48456,27.6049 a 4.50507,4.50507 0 0 1 -3.16561,5.52077 l -21.29065,5.77251 a 4.48292,4.48292 0 0 1 -3.81216,-0.69459 z"
       transform="translate(-228.14818,-241.75)"
       fill="#3f3d56"
       id="path5113" /><polygon
       points="587.678,356.12 587.676,403.408 575.416,403.408 569.584,356.12 "
       fill="#a0616a"
       id="polygon5115" /><path
       d="M 566.65909,399.90461 H 590.303 v 14.88687 h -38.53077 v 0 a 14.88686,14.88686 0 0 1 14.88686,-14.88687 z"
       fill="#2f2e41"
       id="path5117" /><polygon
       points="633.678,356.12 633.676,403.408 621.416,403.408 615.584,356.12 "
       fill="#a0616a"
       id="polygon5119" /><path
       d="M 612.65909,399.90461 H 636.303 v 14.88687 h -38.53077 v 0 a 14.88686,14.88686 0 0 1 14.88686,-14.88687 z"
       fill="#2f2e41"
       id="path5121" /><path
       d="m 815.245,621.33534 -13.49634,-0.64355 a 4.499,4.499 0 0 1 -4.28587,-4.46289 c -3.5581,-54.91919 -8.48584,-113.80722 -0.94189,-136.55664 a 4.50108,4.50108 0 0 1 5.14646,-4.48535 l 53.99366,7.83789 a 4.47383,4.47383 0 0 1 3.85353,4.41992 c 6.89356,26.93641 7.20508,75.7819 6.94434,126.53418 a 4.5005,4.5005 0 0 1 -4.5,4.53418 h -14.55 a 4.47888,4.47888 0 0 1 -4.44531,-3.80078 l -8.977,-57.06739 a 3.5,3.5 0 0 0 -6.93287,0.12793 l -7.12622,59.60254 a 4.5171,4.5171 0 0 1 -4.46875,3.96582 q -0.10629,0 -0.21374,-0.006 z"
       transform="translate(-228.14818,-241.75)"
       fill="#2f2e41"
       id="path5123" /><path
       d="m 824.746,487.45058 c -11.89942,-6.61133 -21.197,-8.34863 -25.67993,-8.7959 a 4.41807,4.41807 0 0 1 -3.05347,-1.67285 4.47791,4.47791 0 0 1 -0.93115,-3.40137 l 12.9375,-96.05078 a 33.21915,33.21915 0 0 1 19.36352,-25.957 32.30589,32.30589 0 0 1 31.39551,2.46094 q 0.665,0.44238 1.30518,0.90332 a 33.17817,33.17817 0 0 1 12.63647,34.57324 c -7.93359,32.45508 -10.65869,85.66211 -11.12451,95.999 a 4.46546,4.46546 0 0 1 -2.918,4.00489 45.085,45.085 0 0 1 -15.22583,2.71093 38.12459,38.12459 0 0 1 -18.70529,-4.77442 z"
       transform="translate(-228.14818,-241.75)"
       fill="#3f3d56"
       id="path5125" /><circle
       cx="607.41949"
       cy="72.219772"
       r="24.561029"
       fill="#a0616a"
       id="circle5127" /><path
       d="m 852.94827,333.40134 c -4.582,4.88078 -13.09132,2.26066 -13.68835,-4.40717 a 8.05556,8.05556 0 0 1 0.0101,-1.5557 c 0.30827,-2.95357 2.01461,-5.635 1.60587,-8.7536 a 4.59041,4.59041 0 0 0 -0.8401,-2.14891 c -3.65125,-4.88934 -12.22228,2.18687 -15.6682,-2.2393 -2.113,-2.714 0.3708,-6.98712 -1.25066,-10.02051 -2.14,-4.00357 -8.47881,-2.0286 -12.45387,-4.22115 -4.42275,-2.43949 -4.15822,-9.22525 -1.24686,-13.35269 3.55052,-5.0336 9.77572,-7.71952 15.92335,-8.10661 6.14763,-0.38709 12.25292,1.27475 17.9923,3.51145 6.52108,2.54134 12.98768,6.05351 17.00066,11.78752 4.88022,6.97317 5.34986,16.34794 2.90917,24.50175 -1.48471,4.96004 -6.55178,11.01924 -10.29344,15.00492 z"
       transform="translate(-228.14818,-241.75)"
       fill="#2f2e41"
       id="path5129" /><path
       d="m 872.39877,357.28 c -0.43018,-2.02 -4.12012,-4.78 -9.39991,-7.03 a 58.13527,58.13527 0 0 0 -52.5,4.5 2.47961,2.47961 0 0 0 -2.29,1.95 l -17.76026,78.55 -2.31006,10.23 -1.52978,6.77 -2.31006,10.2 -1.23,5.45 a 2.5078,2.5078 0 0 0 2.22021,3.05 l 76.68995,6.62 c 0.0698,0 0.1499,0.01 0.21972,0.01 a 2.50026,2.50026 0 0 0 2.48,-2.34 l 0.73,-11.11 0.78028,-11.88 0.33984,-5.15 0.77,-11.85 5.10986,-77.84 v -0.07 z"
       transform="translate(-228.14818,-241.75)"
       fill="#6c63ff"
       id="path5131" /><path
       d="m 746.564,362.22439 a 10.52617,10.52617 0 0 1 0.23929,1.64013 l 42.95745,24.782 10.44142,-6.01094 11.13116,14.57228 -22.33719,15.92054 -49.00791,-38.66268 a 10.4958,10.4958 0 1 1 6.57573,-12.24133 z"
       transform="translate(-228.14818,-241.75)"
       fill="#a0616a"
       id="path5133" /><path
       d="m 791.295,386.53919 a 4.48166,4.48166 0 0 1 1.29315,-3.65337 l 21.8634,-21.86849 a 12.39862,12.39862 0 0 1 19.16808,15.51623 l -15.57,23.9922 a 4.50506,4.50506 0 0 1 -6.22447,1.3251 l -18.5043,-12.00853 a 4.48289,4.48289 0 0 1 -2.02586,-3.30314 z"
       transform="translate(-228.14818,-241.75)"
       fill="#3f3d56"
       id="path5135" /><polygon
       points="562.3,193.5 639.15,193.5 638.38,205.35 559.99,203.73 "
       fill="#cccccc"
       id="polygon5137" /><polygon
       points="558.461,210.5 638.041,210.5 637.26,222.38 556.15,220.7 "
       fill="#cccccc"
       id="polygon5139" /><path
       d="m 836.04867,266.25 v 0 a 31.99347,31.99347 0 0 0 -31.97461,31 h -6.02539 a 2.00006,2.00006 0 0 0 -2,2 v 8 a 2.00006,2.00006 0 0 0 2,2 h 68 a 2.00006,2.00006 0 0 0 2,-2 v -9.00006 a 31.99981,31.99981 0 0 0 -32,-31.99994 z"
       transform="translate(-228.14818,-241.75)"
       fill="#6c63ff"
       id="path5141" /><path
       d="m 336.26259,584.80615 a 39.063,39.063 0 0 1 -37.72112,-6.64474 c -13.212,-11.08918 -17.35435,-29.35854 -20.72485,-46.275 l -9.96924,-50.0356 20.87162,14.37142 c 15.00965,10.33508 30.35744,21.00126 40.75007,35.97113 10.39263,14.96987 14.929,35.40506 6.57885,51.60314"
       transform="translate(-228.14818,-241.75)"
       fill="#e6e6e6"
       id="path5143" /><path
       d="m 334.47849,645.38466 c 2.11249,-15.38745 4.28468,-30.97255 2.80288,-46.52494 -1.316,-13.81219 -5.52988,-27.30283 -14.10882,-38.36422 a 63.81942,63.81942 0 0 0 -16.37384,-14.83745 c -1.63739,-1.03352 -3.14442,1.56139 -1.51416,2.59041 a 60.67173,60.67173 0 0 1 23.99889,28.9564 c 5.22489,13.28947 6.06393,27.77612 5.16355,41.89337 -0.54449,8.53723 -1.69847,17.01851 -2.86134,25.48891 a 1.55429,1.55429 0 0 0 1.04766,1.84518 1.50915,1.50915 0 0 0 1.84518,-1.04766 z"
       transform="translate(-228.14818,-241.75)"
       fill="#f2f2f2"
       id="path5145" /><path
       d="m 314.13137,618.15614 a 28.7553,28.7553 0 0 1 -25.05474,12.93134 c -12.68315,-0.60209 -23.25684,-9.45412 -32.77516,-17.85807 l -28.15329,-24.85722 18.63281,-0.8917 c 13.39961,-0.64126 27.14492,-1.23941 39.90759,2.89278 12.76267,4.13219 24.53307,14.07691 26.8668,27.2873"
       transform="translate(-228.14818,-241.75)"
       fill="#e6e6e6"
       id="path5147" /><path
       d="m 340.44853,654.23018 c -10.16773,-17.99115 -21.9614,-37.98626 -43.03473,-44.377 a 48.022,48.022 0 0 0 -18.10109,-1.869 c -1.9218,0.1657 -1.44191,3.1281 0.4764,2.96269 a 44.61387,44.61387 0 0 1 28.88649,7.64231 c 8.1449,5.544 14.48659,13.25166 19.85415,21.42526 3.28778,5.00658 6.23277,10.22556 9.17833,15.43753 0.94133,1.66564 3.69278,0.46329 2.74045,-1.22181 z"
       transform="translate(-228.14818,-241.75)"
       fill="#f2f2f2"
       id="path5149" /><path
       d="m 970.85182,658.25 h -712 a 1,1 0 0 1 0,-2 h 712 a 1,1 0 0 1 0,2 z"
       transform="translate(-228.14818,-241.75)"
       fill="#cccccc"
       id="path5151" /></g><path
     style="font-variation-settings:'wght' 800;fill:#b3b3b3;fill-rule:evenodd;stroke-width:0;stroke-linecap:round;stroke-linejoin:round"
     id="path8690"
     sodipodi:type="arc"
     sodipodi:cx="306.66187"
     sodipodi:cy="559.21661"
     sodipodi:rx="18.547247"
     sodipodi:ry="20.178736"
     sodipodi:start="0"
     sodipodi:end="6.2788131"
     sodipodi:open="true"
     sodipodi:arc-type="arc"
     d="m 325.20911,559.21661 a 18.547247,20.178736 0 0 1 -18.52697,20.17873 18.547247,20.178736 0 0 1 -18.56748,-20.13461 18.547247,20.178736 0 0 1 18.48639,-20.22274 18.547247,20.178736 0 0 1 18.60788,20.0904" /><path
     style="font-variation-settings:'wght' 800;fill:#bcd2ef;fill-opacity:1;fill-rule:evenodd;stroke-width:0;stroke-linecap:round;stroke-linejoin:round"
     id="path8744"
     sodipodi:type="arc"
     sodipodi:cx="357.66681"
     sodipodi:cy="559.21661"
     sodipodi:rx="18.547247"
     sodipodi:ry="20.178736"
     sodipodi:start="0"
     sodipodi:end="6.2788131"
     sodipodi:open="true"
     sodipodi:arc-type="arc"
     d="m 376.21406,559.21661 a 18.547247,20.178736 0 0 1 -18.52698,20.17873 18.547247,20.178736 0 0 1 -18.56747,-20.13461 18.547247,20.178736 0 0 1 18.48638,-20.22274 18.547247,20.178736 0 0 1 18.60789,20.0904" /><path
     style="font-variation-settings:'wght' 800;fill:#91bad6;fill-opacity:1;fill-rule:evenodd;stroke-width:0;stroke-linecap:round;stroke-linejoin:round"
     id="path8746"
     sodipodi:type="arc"
     sodipodi:cx="413.30856"
     sodipodi:cy="559.21661"
     sodipodi:rx="18.547247"
     sodipodi:ry="20.178736"
     sodipodi:start="0"
     sodipodi:end="6.2788131"
     sodipodi:open="true"
     sodipodi:arc-type="arc"
     d="m 431.85581,559.21661 a 18.547247,20.178736 0 0 1 -18.52697,20.17873 18.547247,20.178736 0 0 1 -18.56748,-20.13461 18.547247,20.178736 0 0 1 18.48638,-20.22274 18.547247,20.178736 0 0 1 18.60789,20.0904" /><path
     style="font-variation-settings:'wght' 800;fill:#73a5a6;fill-opacity:1;fill-rule:evenodd;stroke-width:0;stroke-linecap:round;stroke-linejoin:round"
     id="path8748"
     sodipodi:type="arc"
     sodipodi:cx="471.26868"
     sodipodi:cy="559.21661"
     sodipodi:rx="18.547247"
     sodipodi:ry="20.178736"
     sodipodi:start="0"
     sodipodi:end="6.2788131"
     sodipodi:open="true"
     sodipodi:arc-type="arc"
     d="m 489.81592,559.21661 a 18.547247,20.178736 0 0 1 -18.52697,20.17873 18.547247,20.178736 0 0 1 -18.56748,-20.13461 18.547247,20.178736 0 0 1 18.48639,-20.22274 18.547247,20.178736 0 0 1 18.60789,20.0904" /><path
     style="font-variation-settings:'wght' 800;fill:#528aae;fill-opacity:1;fill-rule:evenodd;stroke-width:0;stroke-linecap:round;stroke-linejoin:round"
     id="path8750"
     sodipodi:type="arc"
     sodipodi:cx="533.86566"
     sodipodi:cy="559.21661"
     sodipodi:rx="18.547247"
     sodipodi:ry="20.178736"
     sodipodi:start="0"
     sodipodi:end="6.2788131"
     sodipodi:open="true"
     sodipodi:arc-type="arc"
     d="m 552.41291,559.21661 a 18.547247,20.178736 0 0 1 -18.52698,20.17873 18.547247,20.178736 0 0 1 -18.56747,-20.13461 18.547247,20.178736 0 0 1 18.48638,-20.22274 18.547247,20.178736 0 0 1 18.60789,20.0904" /><path
     style="font-variation-settings:'wght' 800;fill:#b3b3b3;fill-rule:evenodd;stroke-width:0;stroke-linecap:round;stroke-linejoin:round"
     id="path8752"
     sodipodi:type="arc"
     sodipodi:cx="591.82574"
     sodipodi:cy="559.21661"
     sodipodi:rx="18.547247"
     sodipodi:ry="20.178736"
     sodipodi:start="0"
     sodipodi:end="6.2788131"
     sodipodi:open="true"
     sodipodi:arc-type="arc"
     d="m 610.37299,559.21661 a 18.547247,20.178736 0 0 1 -18.52697,20.17873 18.547247,20.178736 0 0 1 -18.56748,-20.13461 18.547247,20.178736 0 0 1 18.48639,-20.22274 18.547247,20.178736 0 0 1 18.60788,20.0904" /><path
     style="font-variation-settings:'wght' 800;fill:#2e5984;fill-opacity:1;fill-rule:evenodd;stroke-width:0;stroke-linecap:round;stroke-linejoin:round"
     id="path8754"
     sodipodi:type="arc"
     sodipodi:cx="591.82574"
     sodipodi:cy="559.21661"
     sodipodi:rx="18.547247"
     sodipodi:ry="20.178736"
     sodipodi:start="0"
     sodipodi:end="6.2788131"
     sodipodi:open="true"
     sodipodi:arc-type="arc"
     d="m 610.37299,559.21661 a 18.547247,20.178736 0 0 1 -18.52697,20.17873 18.547247,20.178736 0 0 1 -18.56748,-20.13461 18.547247,20.178736 0 0 1 18.48639,-20.22274 18.547247,20.178736 0 0 1 18.60788,20.0904" /><path
     style="font-variation-settings:'wght' 800;fill:#1e3f66;fill-opacity:1;fill-rule:evenodd;stroke-width:0;stroke-linecap:round;stroke-linejoin:round"
     id="path15168"
     sodipodi:type="arc"
     sodipodi:cx="649.05682"
     sodipodi:cy="559.21661"
     sodipodi:rx="18.547247"
     sodipodi:ry="20.178736"
     sodipodi:start="0"
     sodipodi:end="6.2788131"
     sodipodi:open="true"
     sodipodi:arc-type="arc"
     d="m 667.60407,559.21661 a 18.547247,20.178736 0 0 1 -18.52697,20.17873 18.547247,20.178736 0 0 1 -18.56748,-20.13461 18.547247,20.178736 0 0 1 18.48638,-20.22274 18.547247,20.178736 0 0 1 18.60789,20.0904" /></svg>
